<svg width="447" height="448" viewBox="0 0 447 448" fill="none" xmlns="http://www.w3.org/2000/svg">
<rect x="21" y="21.2729" width="405" height="405" rx="77.3595" fill="white"/>
<mask id="path-2-outside-1_32_51" maskUnits="userSpaceOnUse" x="169.876" y="215.779" width="200" height="163" fill="black">
<rect fill="white" x="169.876" y="215.779" width="200" height="163"/>
<path d="M199.746 363.788C199.746 367.764 198.293 371.127 195.388 373.88C192.483 376.479 189.119 377.779 185.297 377.779C181.016 377.779 177.575 376.479 174.976 373.88C172.377 371.127 171.077 367.764 171.077 363.788V231.225C171.077 227.25 172.453 223.962 175.205 221.363C177.958 218.611 181.474 217.235 185.755 217.235C189.425 217.235 192.636 218.611 195.388 221.363C198.293 223.962 199.746 227.25 199.746 231.225V363.788ZM356.021 217.235C359.691 217.235 362.673 218.458 364.966 220.904C367.259 223.351 368.406 226.409 368.406 230.078V363.788C368.406 367.764 367.03 371.127 364.278 373.88C361.679 376.479 358.391 377.779 354.416 377.779C352.428 377.779 350.364 377.473 348.224 376.861C346.236 376.097 344.707 375.103 343.637 373.88L253.503 259.435L259.466 255.765V364.935C259.466 368.605 258.243 371.663 255.796 374.109C253.503 376.555 250.445 377.779 246.622 377.779C242.953 377.779 239.971 376.555 237.678 374.109C235.384 371.663 234.237 368.605 234.237 364.935V231.225C234.237 227.25 235.537 223.962 238.136 221.363C240.889 218.611 244.252 217.235 248.228 217.235C250.368 217.235 252.585 217.693 254.879 218.611C257.172 219.375 258.854 220.599 259.924 222.28L347.306 333.744L343.407 336.496V230.078C343.407 226.409 344.554 223.351 346.847 220.904C349.141 218.458 352.199 217.235 356.021 217.235Z"/>
</mask>
<path d="M199.746 363.788C199.746 367.764 198.293 371.127 195.388 373.88C192.483 376.479 189.119 377.779 185.297 377.779C181.016 377.779 177.575 376.479 174.976 373.88C172.377 371.127 171.077 367.764 171.077 363.788V231.225C171.077 227.25 172.453 223.962 175.205 221.363C177.958 218.611 181.474 217.235 185.755 217.235C189.425 217.235 192.636 218.611 195.388 221.363C198.293 223.962 199.746 227.25 199.746 231.225V363.788ZM356.021 217.235C359.691 217.235 362.673 218.458 364.966 220.904C367.259 223.351 368.406 226.409 368.406 230.078V363.788C368.406 367.764 367.03 371.127 364.278 373.88C361.679 376.479 358.391 377.779 354.416 377.779C352.428 377.779 350.364 377.473 348.224 376.861C346.236 376.097 344.707 375.103 343.637 373.88L253.503 259.435L259.466 255.765V364.935C259.466 368.605 258.243 371.663 255.796 374.109C253.503 376.555 250.445 377.779 246.622 377.779C242.953 377.779 239.971 376.555 237.678 374.109C235.384 371.663 234.237 368.605 234.237 364.935V231.225C234.237 227.25 235.537 223.962 238.136 221.363C240.889 218.611 244.252 217.235 248.228 217.235C250.368 217.235 252.585 217.693 254.879 218.611C257.172 219.375 258.854 220.599 259.924 222.28L347.306 333.744L343.407 336.496V230.078C343.407 226.409 344.554 223.351 346.847 220.904C349.141 218.458 352.199 217.235 356.021 217.235Z" fill="url(#paint0_linear_32_51)"/>
<path d="M195.388 373.88L195.995 374.558L196.005 374.549L196.014 374.54L195.388 373.88ZM174.976 373.88L174.314 374.505L174.323 374.514L174.332 374.523L174.976 373.88ZM175.205 221.363L175.83 222.025L175.84 222.016L175.849 222.007L175.205 221.363ZM195.388 221.363L194.744 222.007L194.762 222.024L194.781 222.041L195.388 221.363ZM198.836 363.788C198.836 367.512 197.487 370.637 194.762 373.219L196.014 374.54C199.099 371.618 200.656 368.015 200.656 363.788H198.836ZM194.781 373.201C192.039 375.655 188.89 376.868 185.297 376.868V378.689C189.348 378.689 192.927 377.303 195.995 374.558L194.781 373.201ZM185.297 376.868C181.214 376.868 178.02 375.637 175.62 373.236L174.332 374.523C177.131 377.321 180.817 378.689 185.297 378.689V376.868ZM175.638 373.255C173.207 370.681 171.987 367.544 171.987 363.788H170.167C170.167 367.983 171.547 371.574 174.314 374.505L175.638 373.255ZM171.987 363.788V231.225H170.167V363.788H171.987ZM171.987 231.225C171.987 227.486 173.27 224.443 175.83 222.025L174.58 220.701C171.636 223.482 170.167 227.013 170.167 231.225H171.987ZM175.849 222.007C178.413 219.443 181.689 218.145 185.755 218.145V216.325C181.259 216.325 177.503 217.779 174.562 220.719L175.849 222.007ZM185.755 218.145C189.168 218.145 192.151 219.414 194.744 222.007L196.032 220.719C193.12 217.808 189.682 216.325 185.755 216.325V218.145ZM194.781 222.041C197.489 224.464 198.836 227.503 198.836 231.225H200.656C200.656 226.997 199.097 223.461 195.995 220.685L194.781 222.041ZM198.836 231.225V363.788H200.656V231.225H198.836ZM364.966 220.904L364.302 221.527L364.302 221.527L364.966 220.904ZM364.278 373.88L364.922 374.523L364.922 374.523L364.278 373.88ZM348.224 376.861L347.897 377.711L347.935 377.725L347.974 377.736L348.224 376.861ZM343.637 373.88L342.922 374.443L342.936 374.461L342.952 374.479L343.637 373.88ZM253.503 259.435L253.026 258.66L252.156 259.195L252.788 259.998L253.503 259.435ZM259.466 255.765H260.376V254.137L258.989 254.99L259.466 255.765ZM255.796 374.109L255.153 373.465L255.142 373.476L255.132 373.487L255.796 374.109ZM238.136 221.363L237.493 220.719L237.493 220.719L238.136 221.363ZM254.879 218.611L254.541 219.456L254.566 219.466L254.591 219.474L254.879 218.611ZM259.924 222.28L259.157 222.769L259.181 222.807L259.208 222.842L259.924 222.28ZM347.306 333.744L347.831 334.487L348.613 333.935L348.022 333.182L347.306 333.744ZM343.407 336.496H342.497V338.252L343.932 337.239L343.407 336.496ZM346.847 220.904L347.511 221.527L347.511 221.527L346.847 220.904ZM356.021 218.145C359.466 218.145 362.198 219.282 364.302 221.527L365.63 220.282C363.147 217.634 359.916 216.325 356.021 216.325V218.145ZM364.302 221.527C366.422 223.788 367.496 226.616 367.496 230.078H369.316C369.316 226.201 368.097 222.913 365.63 220.282L364.302 221.527ZM367.496 230.078V363.788H369.316V230.078H367.496ZM367.496 363.788C367.496 367.528 366.212 370.659 363.634 373.236L364.922 374.523C367.848 371.596 369.316 367.999 369.316 363.788H367.496ZM363.634 373.236C361.221 375.65 358.172 376.868 354.416 376.868V378.689C358.611 378.689 362.137 377.308 364.922 374.523L363.634 373.236ZM354.416 376.868C352.522 376.868 350.542 376.577 348.474 375.986L347.974 377.736C350.186 378.368 352.334 378.689 354.416 378.689V376.868ZM348.55 376.012C346.659 375.284 345.269 374.363 344.322 373.28L342.952 374.479C344.145 375.843 345.813 376.909 347.897 377.711L348.55 376.012ZM344.352 373.317L254.218 258.872L252.788 259.998L342.922 374.443L344.352 373.317ZM253.98 260.21L259.943 256.54L258.989 254.99L253.026 258.66L253.98 260.21ZM258.556 255.765V364.935H260.376V255.765H258.556ZM258.556 364.935C258.556 368.38 257.417 371.201 255.153 373.465L256.44 374.753C259.068 372.124 260.376 368.83 260.376 364.935H258.556ZM255.132 373.487C253.036 375.723 250.232 376.868 246.622 376.868V378.689C250.658 378.689 253.97 377.388 256.46 374.731L255.132 373.487ZM246.622 376.868C243.178 376.868 240.446 375.731 238.342 373.487L237.014 374.731C239.497 377.38 242.728 378.689 246.622 378.689V376.868ZM238.342 373.487C236.222 371.225 235.148 368.397 235.148 364.935H233.327C233.327 368.812 234.547 372.1 237.014 374.731L238.342 373.487ZM235.148 364.935V231.225H233.327V364.935H235.148ZM235.148 231.225C235.148 227.469 236.366 224.42 238.78 222.007L237.493 220.719C234.708 223.504 233.327 227.03 233.327 231.225H235.148ZM238.78 222.007C241.357 219.429 244.488 218.145 248.228 218.145V216.325C244.017 216.325 240.42 217.793 237.493 220.719L238.78 222.007ZM248.228 218.145C250.236 218.145 252.338 218.575 254.541 219.456L255.217 217.766C252.832 216.812 250.5 216.325 248.228 216.325V218.145ZM254.591 219.474C256.73 220.187 258.221 221.299 259.157 222.769L260.692 221.792C259.487 219.898 257.615 218.563 255.167 217.747L254.591 219.474ZM259.208 222.842L346.59 334.305L348.022 333.182L260.641 221.719L259.208 222.842ZM346.781 333L342.882 335.752L343.932 337.239L347.831 334.487L346.781 333ZM344.317 336.496V230.078H342.497V336.496H344.317ZM344.317 230.078C344.317 226.616 345.392 223.788 347.511 221.527L346.184 220.282C343.716 222.913 342.497 226.201 342.497 230.078H344.317ZM347.511 221.527C349.608 219.29 352.412 218.145 356.021 218.145V216.325C351.986 216.325 348.674 217.626 346.184 220.282L347.511 221.527Z" fill="url(#paint1_linear_32_51)" mask="url(#path-2-outside-1_32_51)"/>
<rect x="10.5337" y="10.8067" width="425.933" height="425.933" rx="87.8258" stroke="url(#paint2_linear_32_51)" stroke-width="20.9326"/>
<path d="M163.253 101.26C162.605 101.049 162.05 100.879 161.604 100.748C161.944 100.595 162.35 100.409 162.816 100.189C164.316 99.4825 166.427 98.4336 168.875 97.0634C173.769 94.3248 180.026 90.2948 185.445 85.1381C191.254 79.6106 195.801 72.7857 198.892 67.3546C200.439 64.6369 201.624 62.2633 202.423 60.5681C202.746 59.8827 203.006 59.308 203.201 58.8662C203.383 59.3066 203.625 59.8776 203.926 60.5576C204.677 62.2527 205.797 64.6263 207.273 67.3443C210.224 72.7758 214.611 79.603 220.342 85.1358C225.819 90.4228 232.836 94.4563 238.466 97.1645C241.284 98.5201 243.761 99.5469 245.535 100.235C246.222 100.502 246.804 100.718 247.26 100.882C246.801 101.081 246.209 101.341 245.508 101.662C243.734 102.473 241.257 103.669 238.44 105.206C232.81 108.277 225.799 112.725 220.335 118.215C214.927 123.649 210.544 130.316 207.516 135.612C206 138.262 204.822 140.574 204.022 142.224C203.75 142.786 203.521 143.271 203.338 143.667C203.22 143.225 203.069 142.68 202.882 142.047C202.35 140.244 201.529 137.724 200.371 134.856C198.057 129.126 194.387 121.976 188.97 116.372C183.325 110.532 176.167 106.542 170.437 104.014C167.57 102.748 165.054 101.846 163.253 101.26Z" fill="url(#paint3_linear_32_51)" stroke="url(#paint4_linear_32_51)" stroke-width="0.910112"/>
<path d="M200.833 177.842C200.761 177.872 200.685 177.905 200.606 177.938C199.745 178.307 198.493 178.854 196.933 179.571C193.812 181.006 189.452 183.119 184.493 185.836C174.582 191.267 162.256 199.125 152.658 208.813C143.155 218.405 135.444 230.18 130.114 239.546C127.447 244.231 125.373 248.318 123.965 251.235C123.261 252.693 122.724 253.859 122.362 254.661C122.361 254.664 122.359 254.667 122.358 254.671C122.353 254.653 122.349 254.635 122.344 254.617C122.12 253.737 121.78 252.461 121.312 250.868C120.377 247.682 118.932 243.231 116.896 238.165C112.825 228.038 106.376 215.423 96.8703 205.546C86.9613 195.25 74.3876 188.206 64.3083 183.738C59.2659 181.503 54.841 179.909 51.6757 178.874C50.0928 178.357 48.8245 177.979 47.9509 177.73C47.9199 177.721 47.8895 177.712 47.8595 177.704C48.5773 177.387 49.5966 176.927 50.8642 176.327C53.5025 175.078 57.2168 173.224 61.5252 170.802C70.1389 165.96 81.1416 158.84 90.6667 149.736C100.873 139.981 108.868 127.928 114.309 118.325C117.031 113.522 119.116 109.327 120.521 106.331C121.223 104.834 121.756 103.636 122.113 102.811C122.15 102.728 122.184 102.648 122.217 102.571C122.246 102.644 122.277 102.721 122.309 102.801C122.643 103.625 123.141 104.823 123.802 106.32C125.122 109.315 127.092 113.51 129.69 118.313C134.883 127.915 142.596 139.971 152.664 149.734C162.281 159.059 174.613 166.183 184.524 170.971C189.482 173.367 193.841 175.182 196.961 176.398C198.521 177.006 199.772 177.464 200.634 177.771C200.703 177.796 200.769 177.819 200.833 177.842Z" fill="#7651EF" stroke="url(#paint5_linear_32_51)" stroke-width="0.910112"/>
<defs>
<linearGradient id="paint0_linear_32_51" x1="301.719" y1="199.256" x2="74.875" y2="410.765" gradientUnits="userSpaceOnUse">
<stop stop-color="#7853F0"/>
<stop offset="1" stop-color="#A185FE"/>
</linearGradient>
<linearGradient id="paint1_linear_32_51" x1="269.876" y1="147.779" x2="269.876" y2="434.779" gradientUnits="userSpaceOnUse">
<stop stop-color="#6841EA"/>
<stop offset="1" stop-color="#A387FF"/>
</linearGradient>
<linearGradient id="paint2_linear_32_51" x1="392.326" y1="110.009" x2="80.1573" y2="410.801" gradientUnits="userSpaceOnUse">
<stop stop-color="#6841EA"/>
<stop offset="1" stop-color="#A387FF"/>
</linearGradient>
<linearGradient id="paint3_linear_32_51" x1="241.247" y1="64.5033" x2="160.247" y2="145.048" gradientUnits="userSpaceOnUse">
<stop stop-color="#704AED"/>
<stop offset="1" stop-color="#7B57F1"/>
</linearGradient>
<linearGradient id="paint4_linear_32_51" x1="204.388" y1="57.6775" x2="204.388" y2="145.048" gradientUnits="userSpaceOnUse">
<stop stop-color="#6841EA"/>
<stop offset="1" stop-color="#A387FF"/>
</linearGradient>
<linearGradient id="paint5_linear_32_51" x1="124.298" y1="101.363" x2="124.298" y2="256.082" gradientUnits="userSpaceOnUse">
<stop stop-color="#6841EA"/>
<stop offset="1" stop-color="#A387FF"/>
</linearGradient>
</defs>
</svg>
