<svg width="491" height="491" viewBox="0 0 491 491" fill="none" xmlns="http://www.w3.org/2000/svg">
<mask id="path-1-outside-1_28_30" maskUnits="userSpaceOnUse" x="186" y="236" width="220" height="179" fill="black">
<rect fill="white" x="186" y="236" width="220" height="179"/>
<path d="M219.4 398.628C219.4 402.996 217.804 406.692 214.612 409.716C211.42 412.572 207.724 414 203.524 414C198.82 414 195.04 412.572 192.184 409.716C189.328 406.692 187.9 402.996 187.9 398.628V252.972C187.9 248.604 189.412 244.992 192.436 242.136C195.46 239.112 199.324 237.6 204.028 237.6C208.06 237.6 211.588 239.112 214.612 242.136C217.804 244.992 219.4 248.604 219.4 252.972V398.628ZM391.11 237.6C395.142 237.6 398.418 238.944 400.938 241.632C403.458 244.32 404.718 247.68 404.718 251.712V398.628C404.718 402.996 403.206 406.692 400.182 409.716C397.326 412.572 393.714 414 389.346 414C387.162 414 384.894 413.664 382.542 412.992C380.358 412.152 378.678 411.06 377.502 409.716L278.466 283.968L285.018 279.936V399.888C285.018 403.92 283.674 407.28 280.986 409.968C278.466 412.656 275.106 414 270.906 414C266.874 414 263.598 412.656 261.078 409.968C258.558 407.28 257.298 403.92 257.298 399.888V252.972C257.298 248.604 258.726 244.992 261.582 242.136C264.606 239.112 268.302 237.6 272.67 237.6C275.022 237.6 277.458 238.104 279.978 239.112C282.498 239.952 284.346 241.296 285.522 243.144L381.534 365.616L377.25 368.64V251.712C377.25 247.68 378.51 244.32 381.03 241.632C383.55 238.944 386.91 237.6 391.11 237.6Z"/>
</mask>
<path d="M219.4 398.628C219.4 402.996 217.804 406.692 214.612 409.716C211.42 412.572 207.724 414 203.524 414C198.82 414 195.04 412.572 192.184 409.716C189.328 406.692 187.9 402.996 187.9 398.628V252.972C187.9 248.604 189.412 244.992 192.436 242.136C195.46 239.112 199.324 237.6 204.028 237.6C208.06 237.6 211.588 239.112 214.612 242.136C217.804 244.992 219.4 248.604 219.4 252.972V398.628ZM391.11 237.6C395.142 237.6 398.418 238.944 400.938 241.632C403.458 244.32 404.718 247.68 404.718 251.712V398.628C404.718 402.996 403.206 406.692 400.182 409.716C397.326 412.572 393.714 414 389.346 414C387.162 414 384.894 413.664 382.542 412.992C380.358 412.152 378.678 411.06 377.502 409.716L278.466 283.968L285.018 279.936V399.888C285.018 403.92 283.674 407.28 280.986 409.968C278.466 412.656 275.106 414 270.906 414C266.874 414 263.598 412.656 261.078 409.968C258.558 407.28 257.298 403.92 257.298 399.888V252.972C257.298 248.604 258.726 244.992 261.582 242.136C264.606 239.112 268.302 237.6 272.67 237.6C275.022 237.6 277.458 238.104 279.978 239.112C282.498 239.952 284.346 241.296 285.522 243.144L381.534 365.616L377.25 368.64V251.712C377.25 247.68 378.51 244.32 381.03 241.632C383.55 238.944 386.91 237.6 391.11 237.6Z" fill="url(#paint0_linear_28_30)"/>
<path d="M214.612 409.716L215.279 410.461L215.289 410.452L215.3 410.442L214.612 409.716ZM192.184 409.716L191.457 410.403L191.467 410.413L191.477 410.423L192.184 409.716ZM192.436 242.136L193.123 242.863L193.133 242.853L193.143 242.843L192.436 242.136ZM214.612 242.136L213.905 242.843L213.925 242.863L213.945 242.881L214.612 242.136ZM218.4 398.628C218.4 402.719 216.918 406.153 213.924 408.99L215.3 410.442C218.69 407.231 220.4 403.273 220.4 398.628H218.4ZM213.945 408.971C210.933 411.666 207.473 413 203.524 413V415C207.975 415 211.907 413.478 215.279 410.461L213.945 408.971ZM203.524 413C199.038 413 195.529 411.646 192.891 409.009L191.477 410.423C194.551 413.498 198.602 415 203.524 415V413ZM192.911 409.029C190.24 406.201 188.9 402.755 188.9 398.628H186.9C186.9 403.237 188.416 407.183 191.457 410.403L192.911 409.029ZM188.9 398.628V252.972H186.9V398.628H188.9ZM188.9 252.972C188.9 248.864 190.31 245.52 193.123 242.863L191.749 241.409C188.514 244.464 186.9 248.344 186.9 252.972H188.9ZM193.143 242.843C195.96 240.026 199.56 238.6 204.028 238.6V236.6C199.088 236.6 194.96 238.198 191.729 241.429L193.143 242.843ZM204.028 238.6C207.777 238.6 211.056 239.994 213.905 242.843L215.319 241.429C212.12 238.23 208.343 236.6 204.028 236.6V238.6ZM213.945 242.881C216.92 245.543 218.4 248.882 218.4 252.972H220.4C220.4 248.326 218.688 244.441 215.279 241.391L213.945 242.881ZM218.4 252.972V398.628H220.4V252.972H218.4ZM400.938 241.632L400.209 242.316L400.209 242.316L400.938 241.632ZM400.182 409.716L400.89 410.423L400.89 410.423L400.182 409.716ZM382.542 412.992L382.183 413.925L382.225 413.941L382.268 413.954L382.542 412.992ZM377.502 409.716L376.717 410.335L376.733 410.355L376.75 410.375L377.502 409.716ZM278.466 283.968L277.942 283.116L276.986 283.705L277.681 284.587L278.466 283.968ZM285.018 279.936H286.018V278.146L284.494 279.084L285.018 279.936ZM280.986 409.968L280.279 409.261L280.268 409.272L280.257 409.284L280.986 409.968ZM261.582 242.136L260.875 241.429L260.875 241.429L261.582 242.136ZM279.978 239.112L279.607 240.04L279.634 240.051L279.662 240.061L279.978 239.112ZM285.522 243.144L284.679 243.681L284.705 243.722L284.735 243.761L285.522 243.144ZM381.534 365.616L382.111 366.433L382.97 365.827L382.321 364.999L381.534 365.616ZM377.25 368.64H376.25V370.57L377.827 369.457L377.25 368.64ZM381.03 241.632L381.76 242.316L381.76 242.316L381.03 241.632ZM391.11 238.6C394.895 238.6 397.897 239.85 400.209 242.316L401.668 240.948C398.94 238.038 395.39 236.6 391.11 236.6V238.6ZM400.209 242.316C402.538 244.8 403.718 247.908 403.718 251.712H405.718C405.718 247.452 404.379 243.84 401.668 240.948L400.209 242.316ZM403.718 251.712V398.628H405.718V251.712H403.718ZM403.718 398.628C403.718 402.737 402.307 406.177 399.475 409.009L400.89 410.423C404.106 407.207 405.718 403.255 405.718 398.628H403.718ZM399.475 409.009C396.823 411.661 393.473 413 389.346 413V415C393.956 415 397.83 413.483 400.89 410.423L399.475 409.009ZM389.346 413C387.266 413 385.09 412.68 382.817 412.03L382.268 413.954C384.699 414.648 387.059 415 389.346 415V413ZM382.901 412.059C380.824 411.259 379.296 410.247 378.255 409.057L376.75 410.375C378.061 411.873 379.893 413.045 382.183 413.925L382.901 412.059ZM378.288 409.097L279.252 283.349L277.681 284.587L376.717 410.335L378.288 409.097ZM278.991 284.82L285.543 280.788L284.494 279.084L277.942 283.116L278.991 284.82ZM284.018 279.936V399.888H286.018V279.936H284.018ZM284.018 399.888C284.018 403.673 282.768 406.773 280.279 409.261L281.694 410.675C284.581 407.787 286.018 404.167 286.018 399.888H284.018ZM280.257 409.284C277.953 411.741 274.873 413 270.906 413V415C275.34 415 278.98 413.571 281.716 410.652L280.257 409.284ZM270.906 413C267.122 413 264.12 411.75 261.808 409.284L260.349 410.652C263.077 413.562 266.627 415 270.906 415V413ZM261.808 409.284C259.479 406.8 258.298 403.692 258.298 399.888H256.298C256.298 404.148 257.638 407.76 260.349 410.652L261.808 409.284ZM258.298 399.888V252.972H256.298V399.888H258.298ZM258.298 252.972C258.298 248.845 259.637 245.495 262.29 242.843L260.875 241.429C257.816 244.489 256.298 248.363 256.298 252.972H258.298ZM262.29 242.843C265.122 240.011 268.561 238.6 272.67 238.6V236.6C268.044 236.6 264.091 238.213 260.875 241.429L262.29 242.843ZM272.67 238.6C274.877 238.6 277.187 239.073 279.607 240.04L280.35 238.184C277.73 237.135 275.168 236.6 272.67 236.6V238.6ZM279.662 240.061C282.012 240.844 283.651 242.065 284.679 243.681L286.366 242.607C285.042 240.527 282.985 239.06 280.295 238.163L279.662 240.061ZM284.735 243.761L380.747 366.233L382.321 364.999L286.309 242.527L284.735 243.761ZM380.958 364.799L376.674 367.823L377.827 369.457L382.111 366.433L380.958 364.799ZM378.25 368.64V251.712H376.25V368.64H378.25ZM378.25 251.712C378.25 247.908 379.431 244.8 381.76 242.316L380.301 240.948C377.59 243.84 376.25 247.452 376.25 251.712H378.25ZM381.76 242.316C384.064 239.859 387.144 238.6 391.11 238.6V236.6C386.677 236.6 383.037 238.029 380.301 240.948L381.76 242.316Z" fill="url(#paint1_linear_28_30)" mask="url(#path-1-outside-1_28_30)"/>
<rect x="11.5" y="11.5" width="468" height="468" rx="96.5" stroke="url(#paint2_linear_28_30)" stroke-width="23"/>
<path d="M179.303 110.887C178.591 110.655 177.981 110.469 177.491 110.324C177.864 110.156 178.311 109.952 178.822 109.711C180.47 108.934 182.79 107.781 185.48 106.276C190.858 103.267 197.732 98.8388 203.687 93.1727C210.07 87.0994 215.065 79.6004 218.462 73.6329C220.161 70.6468 221.464 68.0387 222.341 66.1762C222.696 65.423 222.982 64.7916 223.196 64.3061C223.396 64.7901 223.662 65.4174 223.993 66.1645C224.818 68.0271 226.048 70.6351 227.671 73.6216C230.913 79.5895 235.733 87.091 242.03 93.1703C248.048 98.9794 255.758 103.411 261.944 106.387C265.04 107.876 267.762 109.005 269.711 109.761C270.467 110.054 271.106 110.291 271.606 110.472C271.102 110.69 270.452 110.976 269.682 111.329C267.733 112.22 265.011 113.534 261.915 115.222C255.73 118.597 248.027 123.484 242.023 129.516C236.081 135.487 231.264 142.812 227.937 148.632C226.272 151.544 224.977 154.084 224.098 155.897C223.799 156.514 223.548 157.047 223.347 157.482C223.218 156.997 223.051 156.398 222.846 155.703C222.262 153.721 221.359 150.952 220.087 147.801C217.544 141.505 213.512 133.649 207.56 127.492C201.357 121.075 193.492 116.691 187.197 113.913C184.046 112.522 181.281 111.531 179.303 110.887Z" fill="url(#paint3_linear_28_30)" stroke="url(#paint4_linear_28_30)"/>
<path d="M220.594 195.032C220.514 195.066 220.431 195.101 220.345 195.138C219.398 195.543 218.023 196.145 216.309 196.933C212.879 198.509 208.089 200.831 202.641 203.816C191.751 209.784 178.207 218.417 167.661 229.062C157.219 239.602 148.747 252.54 142.89 262.831C139.96 267.979 137.681 272.47 136.134 275.674C135.361 277.277 134.771 278.558 134.373 279.439C134.371 279.442 134.37 279.446 134.368 279.449C134.363 279.43 134.358 279.41 134.353 279.39C134.107 278.424 133.733 277.021 133.219 275.271C132.191 271.771 130.604 266.88 128.366 261.313C123.894 250.187 116.808 236.325 106.363 225.473C95.4757 214.16 81.6601 206.42 70.5854 201.511C65.0449 199.055 60.1831 197.304 56.7051 196.167C54.9659 195.598 53.5723 195.183 52.6124 194.909C52.5784 194.9 52.545 194.89 52.5121 194.881C53.3007 194.533 54.4207 194.027 55.8135 193.368C58.7123 191.995 62.7935 189.959 67.5274 187.298C76.9918 181.978 89.0812 174.154 99.547 164.151C110.761 153.432 119.546 140.188 125.524 129.638C128.515 124.36 130.806 119.75 132.35 116.459C133.122 114.814 133.707 113.497 134.1 112.592C134.14 112.5 134.178 112.412 134.214 112.328C134.246 112.408 134.279 112.492 134.315 112.58C134.681 113.486 135.229 114.802 135.955 116.447C137.406 119.738 139.57 124.346 142.425 129.624C148.13 140.175 156.605 153.421 167.668 164.148C178.234 174.395 191.784 182.222 202.674 187.483C208.122 190.116 212.911 192.11 216.34 193.446C218.054 194.114 219.428 194.618 220.375 194.955C220.451 194.982 220.524 195.008 220.594 195.032Z" fill="url(#paint5_linear_28_30)" stroke="url(#paint6_linear_28_30)"/>
<defs>
<linearGradient id="paint0_linear_28_30" x1="331.5" y1="218.5" x2="82.5" y2="451" gradientUnits="userSpaceOnUse">
<stop stop-color="#7853F0"/>
<stop offset="1" stop-color="#A185FE"/>
</linearGradient>
<linearGradient id="paint1_linear_28_30" x1="296.5" y1="162" x2="296.5" y2="477" gradientUnits="userSpaceOnUse">
<stop stop-color="#6841EA"/>
<stop offset="1" stop-color="#A387FF"/>
</linearGradient>
<linearGradient id="paint2_linear_28_30" x1="431" y1="120.5" x2="88" y2="451" gradientUnits="userSpaceOnUse">
<stop stop-color="#6841EA"/>
<stop offset="1" stop-color="#A387FF"/>
</linearGradient>
<linearGradient id="paint3_linear_28_30" x1="265" y1="70.5" x2="176" y2="159" gradientUnits="userSpaceOnUse">
<stop stop-color="#704AED"/>
<stop offset="1" stop-color="#7B57F1"/>
</linearGradient>
<linearGradient id="paint4_linear_28_30" x1="224.5" y1="63" x2="224.5" y2="159" gradientUnits="userSpaceOnUse">
<stop stop-color="#6841EA"/>
<stop offset="1" stop-color="#A387FF"/>
</linearGradient>
<linearGradient id="paint5_linear_28_30" x1="222" y1="85.5" x2="27" y2="260.5" gradientUnits="userSpaceOnUse">
<stop stop-color="#7651EF"/>
<stop offset="1" stop-color="#8A68F6"/>
</linearGradient>
<linearGradient id="paint6_linear_28_30" x1="136.5" y1="111" x2="136.5" y2="281" gradientUnits="userSpaceOnUse">
<stop stop-color="#6841EA"/>
<stop offset="1" stop-color="#A387FF"/>
</linearGradient>
</defs>
</svg>
