<svg width="447" height="448" viewBox="0 0 447 448" fill="none" xmlns="http://www.w3.org/2000/svg">
<rect x="21" y="21.2729" width="405" height="405" rx="77.3595" fill="white"/>
<path d="M199.746 363.788C199.746 367.764 198.293 371.127 195.388 373.88C192.483 376.479 189.119 377.779 185.297 377.779C181.016 377.779 177.575 376.479 174.976 373.88C172.377 371.127 171.077 367.764 171.077 363.788V231.225C171.077 227.25 172.453 223.962 175.205 221.363C177.958 218.611 181.474 217.235 185.755 217.235C189.425 217.235 192.636 218.611 195.388 221.363C198.293 223.962 199.746 227.25 199.746 231.225V363.788ZM356.021 217.235C359.691 217.235 362.673 218.458 364.966 220.904C367.259 223.351 368.406 226.409 368.406 230.078V363.788C368.406 367.764 367.03 371.127 364.278 373.88C361.679 376.479 358.391 377.779 354.416 377.779C352.428 377.779 350.364 377.473 348.224 376.861C346.236 376.097 344.707 375.103 343.637 373.88L253.503 259.435L259.466 255.765V364.935C259.466 368.605 258.243 371.663 255.796 374.109C253.503 376.555 250.445 377.779 246.622 377.779C242.953 377.779 239.971 376.555 237.678 374.109C235.384 371.663 234.237 368.605 234.237 364.935V231.225C234.237 227.25 235.537 223.962 238.136 221.363C240.889 218.611 244.252 217.235 248.228 217.235C250.368 217.235 252.585 217.693 254.879 218.611C257.172 219.375 258.854 220.599 259.924 222.28L347.306 333.744L343.407 336.496V230.078C343.407 226.409 344.554 223.351 346.847 220.904C349.141 218.458 352.199 217.235 356.021 217.235Z" fill="url(#paint0_linear_32_51)"/>
<rect x="10.5337" y="10.8067" width="425.933" height="425.933" rx="87.8258" stroke="url(#paint1_linear_32_51)" stroke-width="20.9326"/>
<path d="M203.216 57.6775C203.216 57.6775 209.288 73.8328 220.658 84.8084C231.511 95.2854 248.528 100.843 248.528 100.843C248.528 100.843 231.497 107.645 220.658 118.536C209.922 129.324 203.216 145.048 203.216 145.048C203.216 145.048 199.362 127.776 188.643 116.688C177.466 105.127 160.247 100.843 160.247 100.843C160.247 100.843 174.368 95.0503 185.132 84.8084C196.66 73.8393 203.216 57.6775 203.216 57.6775Z" fill="url(#paint2_linear_32_51)"/>
<path d="M122.232 101.363C122.232 101.363 132.938 129.971 152.981 149.407C172.114 167.96 202.113 177.801 202.113 177.801C202.113 177.801 172.088 189.847 152.981 209.133C134.054 228.237 122.232 256.082 122.232 256.082C122.232 256.082 115.439 225.496 96.5424 205.861C76.8384 185.388 46.4834 177.801 46.4834 177.801C46.4834 177.801 71.3772 167.544 90.3522 149.407C110.674 129.983 122.232 101.363 122.232 101.363Z" fill="url(#paint3_linear_32_51)"/>
<defs>
<linearGradient id="paint0_linear_32_51" x1="372" y1="215" x2="74.8977" y2="410.664" gradientUnits="userSpaceOnUse">
<stop stop-color="#FF5C35"/>
<stop offset="1" stop-color="#EB4E28"/>
</linearGradient>
<linearGradient id="paint1_linear_32_51" x1="392.326" y1="110.009" x2="80.1573" y2="410.801" gradientUnits="userSpaceOnUse">
<stop stop-color="#FF5C35"/>
<stop offset="1" stop-color="#EB4E28"/>
</linearGradient>
<linearGradient id="paint2_linear_32_51" x1="241.247" y1="64.5033" x2="160.247" y2="145.048" gradientUnits="userSpaceOnUse">
<stop stop-color="#FF5C35"/>
<stop offset="1" stop-color="#FF5C35"/>
</linearGradient>
<linearGradient id="paint3_linear_32_51" x1="124.298" y1="101.363" x2="124.298" y2="256.082" gradientUnits="userSpaceOnUse">
<stop stop-color="#FF5C35"/>
<stop offset="1" stop-color="#EB4E28"/>
</linearGradient>
</defs>
</svg>
