<svg width="491" height="491" viewBox="0 0 491 491" fill="none" xmlns="http://www.w3.org/2000/svg">
<mask id="path-1-outside-1_28_30" maskUnits="userSpaceOnUse" x="186" y="236" width="220" height="179" fill="black">
<rect fill="white" x="186" y="236" width="220" height="179"/>
<path d="M219.4 398.628C219.4 402.996 217.804 406.692 214.612 409.716C211.42 412.572 207.724 414 203.524 414C198.82 414 195.04 412.572 192.184 409.716C189.328 406.692 187.9 402.996 187.9 398.628V252.972C187.9 248.604 189.412 244.992 192.436 242.136C195.46 239.112 199.324 237.6 204.028 237.6C208.06 237.6 211.588 239.112 214.612 242.136C217.804 244.992 219.4 248.604 219.4 252.972V398.628ZM391.11 237.6C395.142 237.6 398.418 238.944 400.938 241.632C403.458 244.32 404.718 247.68 404.718 251.712V398.628C404.718 402.996 403.206 406.692 400.182 409.716C397.326 412.572 393.714 414 389.346 414C387.162 414 384.894 413.664 382.542 412.992C380.358 412.152 378.678 411.06 377.502 409.716L278.466 283.968L285.018 279.936V399.888C285.018 403.92 283.674 407.28 280.986 409.968C278.466 412.656 275.106 414 270.906 414C266.874 414 263.598 412.656 261.078 409.968C258.558 407.28 257.298 403.92 257.298 399.888V252.972C257.298 248.604 258.726 244.992 261.582 242.136C264.606 239.112 268.302 237.6 272.67 237.6C275.022 237.6 277.458 238.104 279.978 239.112C282.498 239.952 284.346 241.296 285.522 243.144L381.534 365.616L377.25 368.64V251.712C377.25 247.68 378.51 244.32 381.03 241.632C383.55 238.944 386.91 237.6 391.11 237.6Z"/>
</mask>
<path d="M219.4 398.628C219.4 402.996 217.804 406.692 214.612 409.716C211.42 412.572 207.724 414 203.524 414C198.82 414 195.04 412.572 192.184 409.716C189.328 406.692 187.9 402.996 187.9 398.628V252.972C187.9 248.604 189.412 244.992 192.436 242.136C195.46 239.112 199.324 237.6 204.028 237.6C208.06 237.6 211.588 239.112 214.612 242.136C217.804 244.992 219.4 248.604 219.4 252.972V398.628ZM391.11 237.6C395.142 237.6 398.418 238.944 400.938 241.632C403.458 244.32 404.718 247.68 404.718 251.712V398.628C404.718 402.996 403.206 406.692 400.182 409.716C397.326 412.572 393.714 414 389.346 414C387.162 414 384.894 413.664 382.542 412.992C380.358 412.152 378.678 411.06 377.502 409.716L278.466 283.968L285.018 279.936V399.888C285.018 403.92 283.674 407.28 280.986 409.968C278.466 412.656 275.106 414 270.906 414C266.874 414 263.598 412.656 261.078 409.968C258.558 407.28 257.298 403.92 257.298 399.888V252.972C257.298 248.604 258.726 244.992 261.582 242.136C264.606 239.112 268.302 237.6 272.67 237.6C275.022 237.6 277.458 238.104 279.978 239.112C282.498 239.952 284.346 241.296 285.522 243.144L381.534 365.616L377.25 368.64V251.712C377.25 247.68 378.51 244.32 381.03 241.632C383.55 238.944 386.91 237.6 391.11 237.6Z" fill="white"/>
<path d="M214.612 409.716L215.279 410.461L215.289 410.452L215.3 410.442L214.612 409.716ZM192.184 409.716L191.457 410.403L191.467 410.413L191.477 410.423L192.184 409.716ZM192.436 242.136L193.123 242.863L193.133 242.853L193.143 242.843L192.436 242.136ZM214.612 242.136L213.905 242.843L213.925 242.863L213.945 242.881L214.612 242.136ZM218.4 398.628C218.4 402.719 216.918 406.153 213.924 408.99L215.3 410.442C218.69 407.231 220.4 403.273 220.4 398.628H218.4ZM213.945 408.971C210.933 411.666 207.473 413 203.524 413V415C207.975 415 211.907 413.478 215.279 410.461L213.945 408.971ZM203.524 413C199.038 413 195.529 411.646 192.891 409.009L191.477 410.423C194.551 413.498 198.602 415 203.524 415V413ZM192.911 409.029C190.24 406.201 188.9 402.755 188.9 398.628H186.9C186.9 403.237 188.416 407.183 191.457 410.403L192.911 409.029ZM188.9 398.628V252.972H186.9V398.628H188.9ZM188.9 252.972C188.9 248.864 190.31 245.52 193.123 242.863L191.749 241.409C188.514 244.464 186.9 248.344 186.9 252.972H188.9ZM193.143 242.843C195.96 240.026 199.56 238.6 204.028 238.6V236.6C199.088 236.6 194.96 238.198 191.729 241.429L193.143 242.843ZM204.028 238.6C207.777 238.6 211.056 239.994 213.905 242.843L215.319 241.429C212.12 238.23 208.343 236.6 204.028 236.6V238.6ZM213.945 242.881C216.92 245.543 218.4 248.882 218.4 252.972H220.4C220.4 248.326 218.688 244.441 215.279 241.391L213.945 242.881ZM218.4 252.972V398.628H220.4V252.972H218.4ZM400.938 241.632L400.209 242.316L400.209 242.316L400.938 241.632ZM400.182 409.716L400.89 410.423L400.89 410.423L400.182 409.716ZM382.542 412.992L382.183 413.925L382.225 413.941L382.268 413.954L382.542 412.992ZM377.502 409.716L376.717 410.335L376.733 410.355L376.75 410.375L377.502 409.716ZM278.466 283.968L277.942 283.116L276.986 283.705L277.681 284.587L278.466 283.968ZM285.018 279.936H286.018V278.146L284.494 279.084L285.018 279.936ZM280.986 409.968L280.279 409.261L280.268 409.272L280.257 409.284L280.986 409.968ZM261.582 242.136L260.875 241.429L260.875 241.429L261.582 242.136ZM279.978 239.112L279.607 240.04L279.634 240.051L279.662 240.061L279.978 239.112ZM285.522 243.144L284.679 243.681L284.705 243.722L284.735 243.761L285.522 243.144ZM381.534 365.616L382.111 366.433L382.97 365.827L382.321 364.999L381.534 365.616ZM377.25 368.64H376.25V370.57L377.827 369.457L377.25 368.64ZM381.03 241.632L381.76 242.316L381.76 242.316L381.03 241.632ZM391.11 238.6C394.895 238.6 397.897 239.85 400.209 242.316L401.668 240.948C398.94 238.038 395.39 236.6 391.11 236.6V238.6ZM400.209 242.316C402.538 244.8 403.718 247.908 403.718 251.712H405.718C405.718 247.452 404.379 243.84 401.668 240.948L400.209 242.316ZM403.718 251.712V398.628H405.718V251.712H403.718ZM403.718 398.628C403.718 402.737 402.307 406.177 399.475 409.009L400.89 410.423C404.106 407.207 405.718 403.255 405.718 398.628H403.718ZM399.475 409.009C396.823 411.661 393.473 413 389.346 413V415C393.956 415 397.83 413.483 400.89 410.423L399.475 409.009ZM389.346 413C387.266 413 385.09 412.68 382.817 412.03L382.268 413.954C384.699 414.648 387.059 415 389.346 415V413ZM382.901 412.059C380.824 411.259 379.296 410.247 378.255 409.057L376.75 410.375C378.061 411.873 379.893 413.045 382.183 413.925L382.901 412.059ZM378.288 409.097L279.252 283.349L277.681 284.587L376.717 410.335L378.288 409.097ZM278.991 284.82L285.543 280.788L284.494 279.084L277.942 283.116L278.991 284.82ZM284.018 279.936V399.888H286.018V279.936H284.018ZM284.018 399.888C284.018 403.673 282.768 406.773 280.279 409.261L281.694 410.675C284.581 407.787 286.018 404.167 286.018 399.888H284.018ZM280.257 409.284C277.953 411.741 274.873 413 270.906 413V415C275.34 415 278.98 413.571 281.716 410.652L280.257 409.284ZM270.906 413C267.122 413 264.12 411.75 261.808 409.284L260.349 410.652C263.077 413.562 266.627 415 270.906 415V413ZM261.808 409.284C259.479 406.8 258.298 403.692 258.298 399.888H256.298C256.298 404.148 257.638 407.76 260.349 410.652L261.808 409.284ZM258.298 399.888V252.972H256.298V399.888H258.298ZM258.298 252.972C258.298 248.845 259.637 245.495 262.29 242.843L260.875 241.429C257.816 244.489 256.298 248.363 256.298 252.972H258.298ZM262.29 242.843C265.122 240.011 268.561 238.6 272.67 238.6V236.6C268.044 236.6 264.091 238.213 260.875 241.429L262.29 242.843ZM272.67 238.6C274.877 238.6 277.187 239.073 279.607 240.04L280.35 238.184C277.73 237.135 275.168 236.6 272.67 236.6V238.6ZM279.662 240.061C282.012 240.844 283.651 242.065 284.679 243.681L286.366 242.607C285.042 240.527 282.985 239.06 280.295 238.163L279.662 240.061ZM284.735 243.761L380.747 366.233L382.321 364.999L286.309 242.527L284.735 243.761ZM380.958 364.799L376.674 367.823L377.827 369.457L382.111 366.433L380.958 364.799ZM378.25 368.64V251.712H376.25V368.64H378.25ZM378.25 251.712C378.25 247.908 379.431 244.8 381.76 242.316L380.301 240.948C377.59 243.84 376.25 247.452 376.25 251.712H378.25ZM381.76 242.316C384.064 239.859 387.144 238.6 391.11 238.6V236.6C386.677 236.6 383.037 238.029 380.301 240.948L381.76 242.316Z" fill="url(#paint0_linear_28_30)" mask="url(#path-1-outside-1_28_30)"/>
<rect x="11.5" y="11.5" width="468" height="468" rx="96.5" stroke="white" stroke-width="23"/>
<path d="M223.212 63C223.212 63 229.885 80.7508 242.377 92.8105C254.302 104.322 273 110.429 273 110.429C273 110.429 254.287 117.903 242.377 129.869C230.581 141.723 223.212 159 223.212 159C223.212 159 218.978 140.022 207.201 127.839C194.92 115.136 176 110.429 176 110.429C176 110.429 191.516 104.064 203.342 92.8105C216.009 80.7581 223.212 63 223.212 63Z" fill="white"/>
<path d="M134.23 111C134.23 111 145.993 142.434 168.016 163.789C189.038 184.175 222 194.988 222 194.988C222 194.988 189.01 208.223 168.016 229.414C147.22 250.405 134.23 281 134.23 281C134.23 281 126.766 247.393 106.003 225.819C84.353 203.324 51 194.988 51 194.988C51 194.988 78.3525 183.717 99.2016 163.789C121.531 142.447 134.23 111 134.23 111Z" fill="white"/>
<defs>
<linearGradient id="paint0_linear_28_30" x1="296.5" y1="162" x2="296.5" y2="477" gradientUnits="userSpaceOnUse">
<stop stop-color="#6841EA"/>
<stop offset="1" stop-color="#A387FF"/>
</linearGradient>
</defs>
</svg>
