<svg width="110" height="64" viewBox="0 0 110 64" fill="none" xmlns="http://www.w3.org/2000/svg">
<g clip-path="url(#clip0_2002_302)">
<path d="M28.228 9.11086H23.3786C23.5097 8.38743 23.9789 7.98171 24.9303 7.52228L25.8255 7.09029C27.4217 6.31086 28.2713 5.43314 28.2713 3.99771C28.2713 3.09143 27.9062 2.38171 27.1736 1.86629C26.4563 1.35086 25.5774 1.10057 24.5652 1.10057C23.7589 1.10057 23.0264 1.296 22.3535 1.69943C21.6935 2.09029 21.195 2.59086 20.8872 3.21714L22.2938 4.55543C22.8356 3.51086 23.6279 2.99543 24.6682 2.99543C25.547 2.99543 26.0888 3.42743 26.0888 4.02628C26.0888 4.52686 25.8243 4.94514 24.8145 5.43314L24.2434 5.69714C22.9983 6.296 22.1335 6.97829 21.635 7.76C21.1365 8.52571 20.8872 9.51429 20.8872 10.6994V11.0194H28.228V9.11086ZM27.5797 13.2229H19.5497L15.5347 19.8354H23.5647L27.5797 26.4469L31.5958 19.8354L27.5797 13.2229Z" fill="#FF492C"/>
<path d="M16.2262 24.2434C11.1123 24.2434 6.9534 20.2891 6.9534 15.4274C6.9534 10.5669 11.1135 6.61143 16.2262 6.61143L19.401 0.294863C18.3548 0.0978248 17.2916 -0.00091158 16.2262 6.34141e-06C7.26468 -0.00227937 0 6.90515 0 15.4274C0 23.9497 7.26468 30.856 16.2273 30.856C19.8 30.856 23.1023 29.7589 25.7833 27.8971L22.2691 22.1086C20.5748 23.4924 18.435 24.2484 16.2262 24.2434Z" fill="#FF492C"/>
<path d="M45.8397 11.5166C45.5389 11.8994 45.1212 12.1897 44.5875 12.3863C44.0551 12.584 43.4489 12.6834 42.7714 12.6834C42.0739 12.6834 41.4572 12.528 40.9201 12.2194C40.3803 11.9082 39.9468 11.4482 39.6738 10.8971C39.3848 10.32 39.2338 9.64914 39.2233 8.88229V8.24571C39.2233 7.01829 39.524 6.06057 40.1255 5.37257C40.727 4.68 41.5672 4.33371 42.645 4.33371C43.5706 4.33371 44.3067 4.55771 44.8508 5.00343C45.3962 5.45029 45.7238 6.09371 45.8338 6.93486H44.4179C44.2564 5.95657 43.676 5.46743 42.6742 5.46743C42.026 5.46743 41.5333 5.696 41.1939 6.15314C40.8592 6.60686 40.6861 7.27543 40.6744 8.15657V8.78171C40.6744 9.65943 40.8616 10.3429 41.2396 10.8297C41.6211 11.3131 42.1488 11.5554 42.8229 11.5554C43.5613 11.5554 44.0867 11.392 44.3991 11.064V9.47429H42.686V8.40229H45.8397V11.5166ZM52.7989 12.5703H47.2053V11.6389L49.9764 8.68686C50.3766 8.25257 50.6598 7.88914 50.8283 7.59886C50.9991 7.30514 51.0857 7.01143 51.0857 6.71657C51.0857 6.33029 50.9722 6.01714 50.7475 5.77943C50.5264 5.54171 50.228 5.42286 49.8512 5.42286C49.4006 5.42286 49.0531 5.55657 48.805 5.824C48.5569 6.09257 48.434 6.45829 48.434 6.92343H47.045C47.045 6.42857 47.1597 5.984 47.3879 5.58971C47.6184 5.19385 47.962 4.87216 48.3767 4.664C48.8371 4.43729 49.3473 4.3239 49.8629 4.33371C50.6703 4.33371 51.3057 4.53371 51.7703 4.93143C52.2384 5.32571 52.4724 5.87314 52.4724 6.57143C52.4724 6.97714 52.3554 7.40343 52.119 7.85029C51.8873 8.29257 51.5035 8.79657 50.9711 9.36229L48.9361 11.488H52.7989V12.5714V12.5703ZM58.8677 4.44571L61.2666 10.6743L63.6608 4.44571H65.5297V12.5714H64.0903V9.89143L64.2331 6.30857L61.7756 12.5691H60.7412L58.2907 6.31429L58.4335 9.89143V12.5691H56.9941V4.44571H58.8677ZM70.8038 12.5714C70.7235 12.3915 70.6695 12.2015 70.6435 12.0069C70.2023 12.4571 69.6605 12.6823 69.0204 12.6823C68.4002 12.6823 67.8935 12.5097 67.5015 12.1634C67.3132 12.0046 67.1629 11.8073 67.0612 11.5856C66.9595 11.3638 66.9089 11.123 66.9129 10.88C66.9129 10.2366 67.1563 9.744 67.6442 9.40114C68.1357 9.05486 68.8367 8.88229 69.7471 8.88229H70.5979V8.48571C70.5979 8.17371 70.5089 7.92457 70.3287 7.73829C70.1508 7.54857 69.8782 7.45371 69.5119 7.45371C69.196 7.45371 68.9373 7.53143 68.7349 7.688C68.6397 7.75458 68.5624 7.84268 68.5096 7.94478C68.4568 8.04687 68.4301 8.15993 68.4318 8.27429H67.0439C67.0439 7.94286 67.1563 7.63429 67.381 7.34857C67.6056 7.05714 67.9111 6.83086 68.2949 6.66743C68.7056 6.49933 69.1474 6.41569 69.5927 6.42171C70.3158 6.42171 70.8928 6.6 71.3246 6.95657C71.754 7.31086 71.9752 7.80914 71.9869 8.45257V11.176C71.9869 11.7189 72.0641 12.152 72.221 12.4754V12.5714H70.8038ZM69.2779 11.5943C69.5517 11.5943 69.8091 11.5291 70.0502 11.4C70.2936 11.2686 70.4762 11.0937 70.5979 10.8743V9.73714H69.8489C69.3352 9.73714 68.9479 9.82514 68.6904 10C68.5657 10.0806 68.4644 10.1911 68.3961 10.321C68.3279 10.4509 68.295 10.5958 68.3007 10.7417C68.3007 11.0023 68.3885 11.2103 68.564 11.3669C68.7431 11.5189 68.9806 11.5943 69.2779 11.5943ZM76.6771 7.77143C76.4903 7.74139 76.3013 7.72648 76.1119 7.72686C75.4753 7.72686 75.047 7.96571 74.8258 8.44114V12.5714H73.438V6.53257H74.7638L74.7978 7.208C75.1324 6.68343 75.5982 6.42171 76.1915 6.42171C76.3904 6.42171 76.5542 6.44686 76.683 6.49943L76.6771 7.77143ZM79.5629 9.98171L78.9462 10.6011V12.5703H77.5571V4H78.9462V8.94514L79.3803 8.41486L81.0888 6.53371H82.7575L80.4604 9.05029L83.0033 12.5714H81.3978L79.5629 9.98171ZM86.2775 12.6823C85.3975 12.6823 84.6826 12.4126 84.1349 11.8731C83.5896 11.3303 83.3169 10.608 83.3169 9.70857V9.54057C83.3169 8.93829 83.4351 8.4 83.6715 7.928C83.893 7.47245 84.2419 7.08735 84.6779 6.81714C85.1089 6.55316 85.6085 6.41589 86.1172 6.42171C86.9598 6.42171 87.6081 6.68457 88.0656 7.208C88.5267 7.73371 88.7561 8.47543 88.7561 9.43429V9.98171H84.7165C84.7586 10.48 84.9283 10.8743 85.2255 11.1646C85.5263 11.4549 85.9042 11.5989 86.3571 11.5989C86.9925 11.5989 87.511 11.3486 87.9112 10.8469L88.6601 11.544C88.4109 11.906 88.0676 12.1967 87.6654 12.3863C87.2325 12.5886 86.7574 12.6891 86.2775 12.6823ZM86.1114 7.50971C85.7299 7.50971 85.4209 7.64 85.1857 7.90057C84.9529 8.16 84.8042 8.52343 84.7411 8.98857H87.3857V8.888C87.3553 8.43429 87.2313 8.09143 87.0136 7.86057C86.7971 7.62629 86.4964 7.50971 86.1114 7.50971ZM91.5798 5.06514V6.53257H92.6704V7.53829H91.5798V10.9074C91.5798 11.1383 91.6254 11.3063 91.7167 11.4103C91.8115 11.5109 91.98 11.5611 92.2199 11.5611C92.379 11.5611 92.5417 11.5417 92.7055 11.504V12.5543C92.3896 12.64 92.0853 12.6823 91.7904 12.6823C90.7244 12.6823 90.1907 12.1074 90.1907 10.9577V7.53714H89.1738V6.53257H90.1919V5.06514H91.5798ZM95.2133 12.5714H93.8254V6.53257H95.2133V12.5714ZM93.7388 4.96571C93.7332 4.77382 93.8051 4.58746 93.9389 4.44686C94.077 4.30971 94.2713 4.24114 94.5217 4.24114C94.7733 4.24114 94.9676 4.30971 95.1056 4.44686C95.2425 4.584 95.3104 4.75771 95.3104 4.96571C95.3133 5.06046 95.2967 5.15481 95.2615 5.24316C95.2263 5.33151 95.1733 5.41205 95.1056 5.48C94.9676 5.61371 94.7733 5.68 94.5217 5.68C94.2713 5.68 94.077 5.61371 93.9389 5.47886C93.8058 5.34023 93.7342 5.15572 93.74 4.96571H93.7388ZM98.0195 6.53371L98.0592 7.23086C98.5156 6.69257 99.116 6.42286 99.859 6.42286C101.146 6.42286 101.802 7.14286 101.825 8.58286V12.5714H100.436V8.65943C100.436 8.27543 100.351 7.99314 100.179 7.81029C100.011 7.62514 99.735 7.53143 99.35 7.53143C98.7906 7.53143 98.3729 7.77943 98.099 8.27429V12.5714H96.7112V6.53143H98.0195V6.53371ZM103.001 9.50857C103.001 8.57143 103.227 7.82286 103.676 7.26514C104.129 6.70286 104.729 6.42286 105.476 6.42286C106.181 6.42286 106.735 6.66286 107.138 7.14286L107.201 6.53371H108.453V12.3874C108.453 13.1806 108.199 13.8046 107.692 14.2629C107.189 14.72 106.511 14.9486 105.653 14.9486C105.2 14.9486 104.756 14.8571 104.321 14.6697C103.892 14.4869 103.564 14.248 103.338 13.9497L103.996 13.136C104.423 13.6309 104.948 13.8789 105.573 13.8789C106.034 13.8789 106.397 13.7554 106.664 13.5097C106.931 13.2674 107.064 12.9109 107.064 12.4377V12.0309C106.664 12.4651 106.131 12.6834 105.464 12.6834C104.741 12.6834 104.148 12.4023 103.688 11.8411C103.23 11.2789 103.001 10.5017 103.001 9.50857ZM104.384 9.62514C104.384 10.232 104.511 10.7109 104.761 11.0594C105.017 11.4057 105.37 11.5783 105.819 11.5783C106.378 11.5783 106.794 11.344 107.064 10.8754V8.21829C106.802 7.76114 106.39 7.53257 105.829 7.53257C105.373 7.53257 105.016 7.70857 104.761 8.06171C104.511 8.416 104.384 8.936 104.384 9.624V9.62514ZM43.8129 24.1943C43.8129 23.8366 43.683 23.5611 43.4232 23.368C43.1681 23.1737 42.7058 22.9794 42.0353 22.7817C41.3648 22.5851 40.8312 22.3657 40.4356 22.1234C39.6773 21.6583 39.2982 21.0514 39.2982 20.304C39.2982 19.6491 39.5708 19.1097 40.115 18.6857C40.6638 18.2617 41.3741 18.0503 42.2471 18.0503C42.8252 18.0503 43.3413 18.1531 43.7953 18.3623C44.2482 18.5703 44.6051 18.8686 44.8637 19.2549C45.1223 19.6377 45.2522 20.064 45.2522 20.5326H43.8129C43.8129 20.1097 43.6748 19.7783 43.401 19.5394C43.1306 19.2983 42.7421 19.1771 42.2354 19.1771C41.7627 19.1771 41.3952 19.2754 41.1319 19.4731C40.8745 19.6697 40.7434 19.9451 40.7434 20.2983C40.7434 20.5954 40.8838 20.8457 41.167 21.0469C41.4479 21.2434 41.9136 21.4366 42.5607 21.6263C43.2079 21.8126 43.7286 22.0263 44.1206 22.2686C44.5127 22.5063 44.8005 22.7829 44.9843 23.0937C45.1668 23.4023 45.2581 23.7657 45.2581 24.1829C45.2581 24.8594 44.9913 25.3989 44.4577 25.8011C43.9287 26.1989 43.2079 26.3977 42.2974 26.3977C41.7265 26.4039 41.1606 26.2937 40.6357 26.0743C40.1674 25.8815 39.7608 25.5692 39.4585 25.1703C39.1773 24.7784 39.031 24.3093 39.0407 23.8309H40.4871C40.4871 24.2926 40.6428 24.6491 40.9552 24.9029C41.2677 25.1543 41.7158 25.2823 42.2986 25.2823C42.8018 25.2823 43.1786 25.1829 43.429 24.9851C43.5521 24.892 43.651 24.7719 43.7177 24.6345C43.7844 24.4971 43.817 24.3463 43.8129 24.1943ZM46.1322 23.2114C46.1231 22.6595 46.2461 22.1132 46.4915 21.616C46.7325 21.1394 47.0696 20.7749 47.5037 20.5223C47.9567 20.2606 48.4754 20.1272 49.0016 20.1371C49.8348 20.1371 50.5112 20.4 51.0296 20.9234C51.5503 21.4491 51.8323 22.144 51.8745 23.0103L51.8803 23.3291C51.8803 23.9234 51.7633 24.456 51.5257 24.9246C51.3084 25.3768 50.958 25.7556 50.5194 26.0126C50.0864 26.2697 49.5832 26.3977 49.0121 26.3977C48.1391 26.3977 47.4405 26.1154 46.9151 25.5497C46.3932 24.9806 46.1311 24.224 46.1311 23.2789L46.1322 23.2114ZM47.5201 23.3291C47.5201 23.9497 47.6523 24.4377 47.9145 24.7909C48.1778 25.1406 48.5429 25.3154 49.0121 25.3154C49.4802 25.3154 49.8441 25.1371 50.1039 24.7794C50.3661 24.4229 50.4971 23.8994 50.4971 23.2114C50.4971 22.6011 50.3625 22.1177 50.0922 21.76C49.9704 21.589 49.8066 21.4505 49.6159 21.3571C49.4252 21.2636 49.2136 21.2183 49.0004 21.2251C48.5475 21.2251 48.1871 21.4011 47.9203 21.7554C47.6535 22.1051 47.5201 22.6297 47.5201 23.3291ZM54.532 26.2857H53.143V17.7143H54.532V26.2857ZM59.7945 25.6937C59.3861 26.1623 58.808 26.3966 58.0567 26.3966C57.3862 26.3966 56.8783 26.2046 56.5319 25.8217C56.189 25.4389 56.017 24.8846 56.017 24.1589V20.2469H57.4061V24.1429C57.4061 24.9086 57.7314 25.2914 58.3832 25.2914C59.0572 25.2914 59.5124 25.056 59.7488 24.5829V20.2469H61.1367V26.2857H59.8284L59.7945 25.6937ZM64.2916 18.7794V20.2469H65.3822V21.2526H64.2904V24.6217C64.2904 24.8526 64.3372 25.0206 64.4285 25.1246C64.5233 25.2251 64.6906 25.2754 64.9317 25.2754C65.0908 25.2754 65.2523 25.256 65.4162 25.2183V26.2686C65.1193 26.3515 64.8122 26.3945 64.5034 26.3966C63.4362 26.3966 62.9025 25.8217 62.9025 24.672V21.2514H61.8845V20.2469H62.9025V18.7794H64.2916ZM67.9228 26.2857H66.5337V20.2469H67.9228V26.2857ZM66.4483 18.6789C66.4483 18.4709 66.515 18.2983 66.6484 18.16C66.7853 18.0229 66.9796 17.9543 67.2312 17.9543C67.4828 17.9543 67.677 18.0229 67.8139 18.16C67.9508 18.2971 68.0199 18.4709 68.0199 18.6789C68.0226 18.7737 68.0057 18.8681 67.9703 18.9564C67.9349 19.0447 67.8818 19.1252 67.8139 19.1931C67.677 19.3269 67.4828 19.3931 67.2312 19.3931C66.9796 19.3931 66.7865 19.3269 66.6484 19.1931C66.5823 19.1244 66.5306 19.0436 66.4965 18.9553C66.4624 18.8671 66.4452 18.7731 66.4483 18.6789ZM69.1796 23.2103C69.1708 22.6583 69.2942 22.112 69.54 21.6149C69.7799 21.1383 70.1169 20.7737 70.5511 20.5211C71.004 20.2594 71.5227 20.1261 72.0489 20.136C72.8821 20.136 73.5585 20.3989 74.0769 20.9223C74.5988 21.448 74.8808 22.1429 74.9218 23.0091L74.9277 23.328C74.9277 23.9223 74.8106 24.4549 74.5731 24.9234C74.3561 25.3755 74.0061 25.7543 73.5679 26.0114C73.1349 26.2686 72.6317 26.3966 72.0595 26.3966C71.1877 26.3966 70.4879 26.1143 69.9624 25.5486C69.4405 24.9794 69.1796 24.2229 69.1796 23.2777V23.2103ZM70.5686 23.328C70.5686 23.9486 70.6997 24.4366 70.963 24.7897C71.2251 25.1394 71.5914 25.3143 72.0595 25.3143C72.5275 25.3143 72.8915 25.136 73.1513 24.7783C73.4134 24.4217 73.5456 23.8983 73.5456 23.2103C73.5456 22.6 73.4099 22.1166 73.1396 21.7589C73.0177 21.5879 72.854 21.4493 72.6633 21.3559C72.4726 21.2625 72.261 21.2172 72.0478 21.224C71.5949 21.224 71.2345 21.4 70.9688 21.7543C70.702 22.104 70.5686 22.6286 70.5686 23.328ZM77.391 20.2469L77.4307 20.944C77.8871 20.4057 78.4874 20.136 79.2305 20.136C80.5178 20.136 81.1731 20.856 81.1965 22.296V26.2846H79.8086V22.3737C79.8086 21.9897 79.7232 21.7074 79.5512 21.5246C79.3838 21.3394 79.1077 21.2457 78.7227 21.2457C78.1633 21.2457 77.7455 21.4937 77.4717 21.9886V26.2857H76.0838V20.2469H77.391ZM86.0809 24.6446C86.0854 24.534 86.0591 24.4243 86.0049 24.3272C85.9507 24.23 85.8707 24.1489 85.7732 24.0926C85.5707 23.9657 85.2349 23.8537 84.7621 23.7577C84.3541 23.6812 83.9569 23.5573 83.579 23.3886C82.8851 23.0617 82.5387 22.5874 82.5387 21.9657C82.5387 21.4457 82.7634 21.0103 83.2128 20.6606C83.6633 20.3109 84.2344 20.1349 84.9271 20.1349C85.6667 20.1349 86.2623 20.3143 86.7152 20.672C87.1728 21.0286 87.4021 21.4914 87.4021 22.0606H86.0131C86.0157 21.938 85.9904 21.8163 85.939 21.7045C85.8876 21.5926 85.8114 21.4933 85.7158 21.4137C85.5169 21.2389 85.2548 21.1509 84.9271 21.1509C84.6229 21.1509 84.3736 21.2194 84.1782 21.3577C84.0876 21.4195 84.014 21.5022 83.9642 21.5986C83.9144 21.6949 83.8898 21.8018 83.8927 21.9097C83.8895 22.0067 83.9128 22.1027 83.9601 22.1881C84.0074 22.2734 84.077 22.3449 84.1618 22.3954C84.3408 22.5109 84.7024 22.6286 85.2478 22.7474C85.7919 22.8617 86.219 23.0023 86.5268 23.1657C86.8393 23.3257 87.0698 23.52 87.2184 23.7463C87.3705 23.9726 87.4466 24.2491 87.4466 24.5726C87.4466 25.1154 87.2172 25.5554 86.7562 25.8949C86.2951 26.2297 85.6913 26.3977 84.9447 26.3977C84.438 26.3977 83.9863 26.3074 83.5907 26.1291C83.2193 25.9702 82.8992 25.7154 82.6651 25.392C82.4496 25.0971 82.3334 24.744 82.3328 24.3817H83.682C83.7007 24.7017 83.8248 24.9497 84.053 25.1246C84.2812 25.296 84.5842 25.3806 84.9611 25.3806C85.3273 25.3806 85.6047 25.3143 85.7954 25.1806C85.8849 25.1214 85.9579 25.0414 86.008 24.9479C86.058 24.8543 86.0823 24.7501 86.0809 24.6446Z" fill="#75787B"/>
<path d="M3.92832 63.6526C3.7882 63.6524 3.64992 63.6214 3.52373 63.5619C3.39753 63.5024 3.28667 63.416 3.19934 63.309C3.11201 63.2019 3.05046 63.0771 3.01926 62.9437C2.98805 62.8103 2.98798 62.6717 3.01906 62.5383L4.14832 57.6811L0.319383 54.4C0.181064 54.2828 0.0811141 54.1285 0.0319935 53.9563C-0.0171271 53.784 -0.0132455 53.6014 0.0431542 53.4313C0.099554 53.2612 0.205977 53.1111 0.349156 52.9996C0.492335 52.8882 0.665937 52.8203 0.848319 52.8046L5.91534 52.3554L7.91874 47.7771C7.9905 47.613 8.11005 47.4731 8.26254 47.3747C8.41504 47.2763 8.59376 47.2239 8.77651 47.2239C8.95926 47.2239 9.13798 47.2763 9.29048 47.3747C9.44298 47.4731 9.56252 47.613 9.63428 47.7771L11.6377 52.3554L16.7047 52.8046C16.8872 52.8198 17.061 52.8873 17.2045 52.9985C17.3479 53.1098 17.4546 53.2599 17.5112 53.43C17.5678 53.6001 17.5717 53.7828 17.5226 53.9551C17.4734 54.1275 17.3733 54.2818 17.2348 54.3989L13.4047 57.6789L14.534 62.536C14.5748 62.71 14.5624 62.8919 14.4982 63.0591C14.4341 63.2262 14.3211 63.3713 14.1732 63.4763C14.0253 63.5812 13.8492 63.6414 13.6665 63.6494C13.4839 63.6574 13.303 63.6128 13.1461 63.5211L8.77651 60.9714L4.40694 63.5223C4.26221 63.6066 4.09685 63.6524 3.92832 63.6526ZM22.6517 63.6526C22.5116 63.6524 22.3733 63.6214 22.2471 63.5619C22.1209 63.5024 22.0101 63.416 21.9227 63.309C21.8354 63.2019 21.7739 63.0771 21.7427 62.9437C21.7115 62.8103 21.7114 62.6717 21.7425 62.5383L22.8729 57.6811L19.0428 54.4011C18.9045 54.284 18.8045 54.1297 18.7554 53.9574C18.7063 53.7851 18.7102 53.6026 18.7666 53.4325C18.823 53.2623 18.9294 53.1122 19.0726 53.0007C19.2157 52.8893 19.3893 52.8215 19.5717 52.8057L24.6387 52.3566L26.6421 47.7783C26.7139 47.6141 26.8335 47.4742 26.9859 47.3758C27.1384 47.2775 27.3172 47.2251 27.4999 47.2251C27.6827 47.2251 27.8614 47.2775 28.0139 47.3758C28.1664 47.4742 28.2859 47.6141 28.3577 47.7783L30.3611 52.3566L35.4281 52.8057C35.6106 52.821 35.7845 52.8884 35.9279 52.9997C36.0714 53.1109 36.178 53.261 36.2346 53.4311C36.2912 53.6013 36.2951 53.7839 36.246 53.9563C36.1968 54.1286 36.0967 54.2829 35.9582 54.4L32.1281 57.68L33.2574 62.5371C33.2982 62.7112 33.2858 62.893 33.2216 63.0602C33.1575 63.2274 33.0445 63.3725 32.8966 63.4774C32.7487 63.5824 32.5726 63.6426 32.3899 63.6506C32.2073 63.6585 32.0264 63.6139 31.8695 63.5223L27.4999 60.9714L23.1303 63.5223C22.9856 63.6066 22.8203 63.6524 22.6517 63.6526ZM41.3751 63.6526C41.235 63.6524 41.0967 63.6214 40.9705 63.5619C40.8443 63.5024 40.7335 63.416 40.6461 63.309C40.5588 63.2019 40.4973 63.0771 40.4661 62.9437C40.4349 62.8103 40.4348 62.6717 40.4659 62.5383L41.5951 57.6811L37.7662 54.4011C37.6279 54.284 37.5279 54.1297 37.4788 53.9574C37.4297 53.7851 37.4336 53.6026 37.49 53.4325C37.5464 53.2623 37.6528 53.1122 37.796 53.0007C37.9391 52.8893 38.1127 52.8215 38.2951 52.8057L43.3621 52.3566L45.3656 47.7783C45.4373 47.6141 45.5569 47.4742 45.7094 47.3758C45.8618 47.2775 46.0406 47.2251 46.2233 47.2251C46.4061 47.2251 46.5848 47.2775 46.7373 47.3758C46.8898 47.4742 47.0093 47.6141 47.0811 47.7783L49.0845 52.3566L54.1515 52.8057C54.334 52.821 54.5079 52.8884 54.6513 52.9997C54.7948 53.1109 54.9014 53.261 54.958 53.4311C55.0146 53.6013 55.0185 53.7839 54.9694 53.9563C54.9202 54.1286 54.8201 54.2829 54.6816 54.4L50.8515 57.68L51.9808 62.5371C52.0216 62.7112 52.0092 62.893 51.945 63.0602C51.8809 63.2274 51.7679 63.3725 51.62 63.4774C51.4721 63.5824 51.296 63.6426 51.1134 63.6506C50.9307 63.6585 50.7498 63.6139 50.5929 63.5223L46.2233 60.9714L41.8537 63.5223C41.709 63.6066 41.5437 63.6524 41.3751 63.6526ZM60.0985 63.6526C59.9584 63.6524 59.8201 63.6214 59.6939 63.5619C59.5677 63.5024 59.4569 63.416 59.3696 63.309C59.2822 63.2019 59.2207 63.0771 59.1895 62.9437C59.1583 62.8103 59.1582 62.6717 59.1893 62.5383L60.3185 57.6811L56.4896 54.4011C56.3513 54.284 56.2513 54.1297 56.2022 53.9574C56.1531 53.7851 56.157 53.6026 56.2134 53.4325C56.2698 53.2623 56.3762 53.1122 56.5194 53.0007C56.6625 52.8893 56.8361 52.8215 57.0185 52.8057L62.0856 52.3566L64.089 47.7783C64.1607 47.6141 64.2803 47.4742 64.4328 47.3758C64.5853 47.2775 64.764 47.2251 64.9467 47.2251C65.1295 47.2251 65.3082 47.2775 65.4607 47.3758C65.6132 47.4742 65.7327 47.6141 65.8045 47.7783L67.8079 52.3566L72.8749 52.8057C73.0574 52.821 73.2313 52.8884 73.3747 52.9997C73.5182 53.1109 73.6248 53.261 73.6814 53.4311C73.738 53.6013 73.7419 53.7839 73.6928 53.9563C73.6436 54.1286 73.5435 54.2829 73.405 54.4L69.5749 57.68L70.7042 62.5371C70.745 62.7112 70.7326 62.893 70.6684 63.0602C70.6043 63.2274 70.4913 63.3725 70.3434 63.4774C70.1955 63.5824 70.0194 63.6426 69.8368 63.6506C69.6541 63.6585 69.4732 63.6139 69.3163 63.5223L64.9467 60.9714L60.5771 63.5223C60.4324 63.6066 60.2671 63.6524 60.0985 63.6526ZM78.8219 63.6526C78.6818 63.6524 78.5435 63.6214 78.4173 63.5619C78.2912 63.5024 78.1803 63.416 78.093 63.309C78.0056 63.2019 77.9441 63.0771 77.9129 62.9437C77.8817 62.8103 77.8816 62.6717 77.9127 62.5383L79.0431 57.6811L75.213 54.4011C75.0747 54.284 74.9747 54.1297 74.9256 53.9574C74.8765 53.7851 74.8804 53.6026 74.9368 53.4325C74.9932 53.2623 75.0996 53.1122 75.2428 53.0007C75.3859 52.8893 75.5596 52.8215 75.7419 52.8057L80.809 52.3566L82.8124 47.7783C82.8841 47.6141 83.0037 47.4742 83.1562 47.3758C83.3087 47.2775 83.4874 47.2251 83.6701 47.2251C83.8529 47.2251 84.0316 47.2775 84.1841 47.3758C84.3366 47.4742 84.4561 47.6141 84.5279 47.7783L86.5313 52.3566L91.5983 52.8057C91.7808 52.821 91.9547 52.8884 92.0981 52.9997C92.2416 53.1109 92.3482 53.261 92.4048 53.4311C92.4614 53.6013 92.4653 53.7839 92.4162 53.9563C92.367 54.1286 92.2669 54.2829 92.1284 54.4L88.2983 57.68L89.4276 62.5371C89.4684 62.7112 89.456 62.893 89.3918 63.0602C89.3277 63.2274 89.2147 63.3725 89.0668 63.4774C88.919 63.5824 88.7428 63.6426 88.5602 63.6506C88.3776 63.6585 88.1966 63.6139 88.0397 63.5223L83.6701 60.9714L79.3006 63.5223C79.1558 63.6066 78.9905 63.6524 78.8219 63.6526ZM83.6701 59.8743C83.8363 59.8743 84.0001 59.9177 84.1487 60.0034L88.2726 62.4126L87.2065 57.8274C87.1691 57.6672 87.1767 57.5001 87.2286 57.3437C87.2805 57.1874 87.3748 57.0477 87.5014 56.9394L91.1174 53.8423L86.3335 53.4183C86.1653 53.4035 86.0043 53.3444 85.8679 53.2471C85.7314 53.1499 85.6246 53.0183 85.5589 52.8663L83.6701 48.544V59.8743Z" fill="#FF492C"/>
</g>
<defs>
<clipPath id="clip0_2002_302">
<rect width="110" height="64" fill="white"/>
</clipPath>
</defs>
</svg>
