<svg width="130" height="62" viewBox="0 0 130 62" fill="none" xmlns="http://www.w3.org/2000/svg">
<path d="M45.2331 20.6238C45.1309 20.722 44.9615 20.846 44.7235 20.9946C44.4276 21.1708 44.1164 21.3196 43.7938 21.4391C43.4107 21.5877 42.943 21.7152 42.3916 21.8228C41.7647 21.9362 41.1285 21.9898 40.4915 21.9831C39.1149 21.9831 37.9264 21.769 36.9235 21.3397C35.9207 20.9115 35.0919 20.3138 34.4373 19.5475C33.7697 18.7558 33.2788 17.8286 32.998 16.8289C32.6915 15.7819 32.5383 14.6332 32.5383 13.3803C32.5383 12.1286 32.7043 10.9705 33.0351 9.90713C33.3671 8.84377 33.8639 7.92547 34.5266 7.15105C35.2078 6.36284 36.058 5.74119 37.0129 5.33317C38.0065 4.89683 39.1753 4.67807 40.5182 4.67807C41.6115 4.66733 42.6968 4.86499 43.7172 5.26064C44.1153 5.41623 44.4484 5.58117 44.7107 5.7543C44.9742 5.92743 45.1739 6.07132 45.3097 6.18713C45.4629 6.31932 45.594 6.4749 45.7043 6.65623C45.8142 6.83416 45.8722 7.03972 45.8715 7.24932C45.8715 7.57921 45.7438 7.90909 45.4884 8.23898C45.2331 8.5677 44.9533 8.87302 44.6469 9.1526C44.4265 8.94078 44.1969 8.73898 43.9586 8.54781C43.6945 8.336 43.4085 8.15362 43.1055 8.00385C42.7621 7.83689 42.4033 7.70445 42.0341 7.60845C41.5969 7.49646 41.147 7.44219 40.6958 7.44702C39.8288 7.44702 39.1033 7.61664 38.516 7.95472C37.9475 8.27629 37.463 8.72936 37.1023 9.2766C36.7345 9.84582 36.4747 10.4789 36.3362 11.1436C36.0311 12.5818 36.0311 14.0688 36.3362 15.507C36.4894 16.2148 36.754 16.8406 37.1266 17.3846C37.5047 17.9328 38.0073 18.382 38.5926 18.6948C39.1962 19.0246 39.9483 19.1896 40.849 19.1896C41.3249 19.1896 41.7625 19.1311 42.1618 19.0165C42.8368 18.8284 43.4688 18.5093 44.0224 18.0771C44.2523 17.8958 44.4426 17.7402 44.5958 17.608C44.698 17.7226 44.8164 17.863 44.9533 18.028C45.0903 18.1941 45.218 18.3672 45.3364 18.5474C45.4548 18.7287 45.5569 18.91 45.6416 19.0901C45.7264 19.2726 45.7693 19.4364 45.7693 19.585C45.7752 19.7745 45.7311 19.9622 45.6416 20.1289C45.5557 20.2775 45.4211 20.4425 45.2331 20.6238ZM58.37 18.7275C58.37 20.0377 58.5674 20.9911 58.9608 21.5877C58.4223 21.8031 57.8479 21.9127 57.2685 21.9106C56.6533 21.9106 56.1867 21.7936 55.8698 21.5631C55.553 21.3303 55.3522 20.9993 55.2674 20.5688C54.8914 20.9501 54.3957 21.273 53.7794 21.5386C53.1642 21.8029 52.4121 21.9363 51.523 21.9363C51.061 21.9363 50.6002 21.8731 50.1382 21.7491C49.6849 21.6293 49.2583 21.4236 48.8812 21.1432C48.4906 20.8444 48.1746 20.4578 47.9584 20.0143C47.7193 19.5429 47.5986 18.9697 47.5986 18.2923C47.5986 17.4489 47.8075 16.7622 48.2277 16.2335C48.6519 15.7005 49.1915 15.2723 49.8051 14.9818C50.4545 14.6713 51.1455 14.4584 51.8561 14.3501C52.7262 14.2099 53.6044 14.127 54.4851 14.1021H55.0365V13.6494C55.0365 13.0118 54.8612 12.5591 54.5107 12.2912C54.1601 12.0222 53.5914 11.8888 52.8044 11.8888C52.0697 11.8888 51.4162 12.0058 50.8428 12.2362C50.2706 12.4702 49.7111 12.7346 49.1632 13.0317C48.9251 12.7527 48.7306 12.4387 48.5864 12.1005C48.4413 11.7613 48.3682 11.5074 48.3682 11.3413C48.3682 11.1097 48.5005 10.8851 48.7663 10.6698C49.0309 10.4546 49.3942 10.2604 49.8562 10.0849C50.3727 9.89682 50.9049 9.75587 51.4464 9.66381C52.0729 9.55292 52.708 9.49812 53.3441 9.50004C54.2669 9.50004 55.0504 9.59245 55.6911 9.77494C56.3318 9.95743 56.853 10.2394 57.2546 10.6207C57.6562 11.0021 57.9429 11.4782 58.1135 12.0502C58.2853 12.6223 58.37 13.2902 58.37 14.0518V18.7275ZM55.0875 15.8428H54.7289C54.6093 15.8428 54.4886 15.8509 54.369 15.8673C53.9419 15.9012 53.5194 15.9504 53.1004 16.0171C52.7128 16.0734 52.3364 16.1906 51.9849 16.3645C51.6757 16.5183 51.4042 16.7392 51.1898 17.0114C50.9844 17.2769 50.8823 17.6174 50.8823 18.0315C50.8823 18.4959 51.0181 18.8889 51.292 19.213C51.5659 19.5358 52.0267 19.6973 52.6767 19.6973C53.2705 19.7018 53.8548 19.5476 54.3702 19.2504C54.5907 19.1171 54.7672 18.972 54.896 18.8141C55.0237 18.6573 55.0875 18.5123 55.0875 18.3801V15.8416V15.8428ZM64.7563 10.9436C65.0279 10.6277 65.455 10.3095 66.0331 9.98551C66.6134 9.66264 67.3458 9.50121 68.2326 9.50121C68.864 9.50121 69.4641 9.60415 70.0352 9.81238C70.6127 10.0242 71.1333 10.3687 71.5557 10.8184C71.9991 11.284 72.3532 11.897 72.6178 12.6597C72.8813 13.4224 73.0136 14.3594 73.0136 15.4696C73.0136 16.7622 72.8604 17.8279 72.554 18.6655C72.2464 19.5031 71.8506 20.1664 71.3654 20.6542C70.9125 21.1228 70.3561 21.4767 69.7415 21.6871C69.1647 21.8828 68.5604 21.9835 67.9517 21.9854C67.5161 21.9931 67.0816 21.9387 66.661 21.824C66.3393 21.7339 66.0269 21.6133 65.7278 21.4637C65.401 21.3045 65.1129 21.0749 64.884 20.7911V26.9057H61.396V9.84981C61.6187 9.80866 61.8434 9.77938 62.0692 9.76207C62.2324 9.75343 62.3957 9.74953 62.559 9.75038C63.1278 9.75038 63.6095 9.84045 64.0065 10.0229C64.4023 10.2054 64.6518 10.5119 64.7563 10.9436ZM69.3724 15.5445C69.3751 15.0773 69.3324 14.6111 69.2448 14.1524C69.1731 13.7565 69.0303 13.3771 68.8234 13.0329C68.6311 12.7205 68.3584 12.4666 68.0341 12.2982C67.701 12.1251 67.2982 12.0374 66.8223 12.0374C66.1085 12.0374 65.6106 12.1707 65.3308 12.4351C65.0499 12.7006 64.9095 12.9908 64.9095 13.3054V18.5789C65.0453 18.7111 65.2879 18.8691 65.6361 19.0504C65.9843 19.234 66.3882 19.3241 66.8479 19.3241C67.7149 19.3241 68.3522 18.9931 68.7596 18.3298C69.1682 17.6665 69.3724 16.7388 69.3724 15.5445ZM75.7053 19.8225C75.5842 19.4856 75.5066 19.1346 75.4743 18.7778C75.4401 18.4138 75.4231 18.0485 75.4232 17.6829V6.14385L75.8086 6.09355C76.0718 6.05853 76.3371 6.04211 76.6025 6.04441C76.8765 6.04441 77.1504 6.06898 77.4243 6.11928C77.6971 6.16841 77.9455 6.26785 78.1672 6.41758C78.39 6.56615 78.5688 6.7697 78.7057 7.02589C78.8427 7.28324 78.9112 7.61898 78.9112 8.03309V9.79951H82.5013V12.3111H78.9112V17.615C78.9112 18.7708 79.3987 19.3498 80.3737 19.3498C80.6128 19.3498 80.838 19.3124 81.0527 19.2375C81.251 19.1694 81.4439 19.0861 81.6296 18.9884C81.8885 18.8486 82.1294 18.6773 82.3469 18.4783C82.6046 18.8445 82.7996 19.1603 82.9377 19.4259C83.0747 19.6938 83.1432 19.9441 83.1432 20.1781C83.1432 20.3957 83.0526 20.6097 82.8739 20.818C82.6583 21.0551 82.4019 21.2509 82.1171 21.3958C81.7921 21.5713 81.3986 21.7129 80.9378 21.8228C80.4412 21.9356 79.9333 21.9906 79.4242 21.9866C78.3633 21.9866 77.5392 21.7866 76.9496 21.3888C76.3784 21.0147 75.9421 20.4662 75.7053 19.8225ZM91.3355 19.4984C92.3043 19.5124 93.2488 19.1921 94.0121 18.5906C94.1847 18.4471 94.3561 18.302 94.5263 18.1555C94.7317 18.4046 94.9465 18.724 95.1693 19.1135C95.3922 19.5031 95.5048 19.8225 95.5048 20.0705C95.5048 20.4354 95.29 20.7665 94.8629 21.0648C94.5042 21.3303 93.9958 21.5585 93.3377 21.7491C92.6796 21.9398 91.9054 22.0357 91.0163 22.0357C90.2162 22.0359 89.4191 21.9353 88.6438 21.7363C87.8834 21.5464 87.1739 21.1897 86.5661 20.6916C85.9602 20.1956 85.4681 19.5277 85.092 18.6912C84.7159 17.8537 84.5279 16.7961 84.5279 15.5199C84.5279 14.4752 84.695 13.5757 85.027 12.8211C85.333 12.1059 85.7883 11.4656 86.3618 10.9436C86.9083 10.4512 87.5502 10.0784 88.2468 9.84864C88.9419 9.61783 89.6692 9.50053 90.4011 9.50121C91.3587 9.50121 92.17 9.64626 92.8374 9.93638C93.5037 10.2265 94.0469 10.616 94.4659 11.1062C94.8838 11.594 95.1879 12.1543 95.3759 12.7837C95.564 13.4142 95.658 14.0775 95.658 14.7724V15.121C95.658 15.2543 95.6533 15.3947 95.6464 15.5445L95.6197 15.9796C95.6115 16.12 95.5976 16.2323 95.5814 16.3154H88.017C88.0866 17.2278 88.3768 17.9858 88.8922 18.5906C89.4064 19.1966 90.22 19.4984 91.3355 19.4984ZM92.5043 14.4495C92.5043 13.654 92.3441 13.0071 92.0261 12.51C91.7081 12.0128 91.1358 11.7636 90.3117 11.7636C89.606 11.7636 89.0431 11.9999 88.6217 12.4725C88.2004 12.9451 87.9903 13.6049 87.9903 14.4495H92.5043ZM101.727 11.0068C101.831 10.8582 101.966 10.6944 102.138 10.5131C102.309 10.3318 102.519 10.1668 102.766 10.0194C103.013 9.87087 103.289 9.74804 103.587 9.6486C103.898 9.54851 104.223 9.49876 104.549 9.50121C104.754 9.50121 104.972 9.51758 105.203 9.55034C105.434 9.58309 105.647 9.64509 105.843 9.73517C106.041 9.82641 106.198 9.94924 106.319 10.1048C106.442 10.2723 106.505 10.4768 106.498 10.6851C106.498 11.0465 106.404 11.4618 106.216 11.9309C106.054 12.3436 105.866 12.7449 105.652 13.1323C105.386 12.9157 105.093 12.7359 104.78 12.5977C104.454 12.4665 104.105 12.4029 103.754 12.4105C103.224 12.4105 102.779 12.5603 102.42 12.8597C102.06 13.1592 101.882 13.516 101.882 13.9325V21.9831H98.3938V9.84864C98.6146 9.80797 98.8374 9.77907 99.0612 9.76207C99.197 9.75389 99.3595 9.75038 99.5487 9.75038C100.094 9.75038 100.57 9.85215 100.971 10.058C101.372 10.2628 101.625 10.5798 101.727 11.0056V11.0068ZM111.645 11.0068C111.747 10.8582 111.884 10.6944 112.054 10.5131C112.225 10.3318 112.435 10.1668 112.682 10.0194C112.931 9.87087 113.204 9.74804 113.503 9.6486C113.814 9.54851 114.139 9.49876 114.465 9.50121C114.67 9.50121 114.888 9.51758 115.119 9.55034C115.349 9.58309 115.563 9.64509 115.76 9.73517C115.957 9.82641 116.114 9.94924 116.235 10.1048C116.358 10.2725 116.421 10.4769 116.414 10.6851C116.414 11.0465 116.32 11.4618 116.132 11.9309C115.97 12.3435 115.782 12.7449 115.568 13.1323C115.302 12.9156 115.009 12.7358 114.696 12.5977C114.37 12.4665 114.021 12.4028 113.67 12.4105C113.139 12.4105 112.695 12.5603 112.336 12.8597C111.976 13.1592 111.798 13.516 111.798 13.9325V21.9831H108.31V9.84864C108.531 9.80795 108.753 9.77905 108.977 9.76207C109.113 9.75389 109.275 9.75038 109.465 9.75038C110.01 9.75038 110.486 9.85215 110.888 10.058C111.289 10.2628 111.541 10.5798 111.643 11.0056L111.645 11.0068ZM128.288 18.7275C128.288 20.0377 128.484 20.9911 128.878 21.5877C128.339 21.8032 127.765 21.9128 127.185 21.9106C126.57 21.9106 126.104 21.7936 125.788 21.5631C125.471 21.3303 125.27 20.9993 125.185 20.5688C124.809 20.9501 124.313 21.273 123.697 21.5386C123.082 21.8029 122.329 21.9363 121.441 21.9363C120.973 21.9352 120.508 21.8722 120.056 21.7491C119.603 21.6293 119.176 21.4237 118.799 21.1432C118.409 20.8444 118.093 20.4578 117.876 20.0143C117.636 19.5429 117.517 18.9697 117.517 18.2923C117.517 17.4489 117.725 16.7622 118.146 16.2335C118.564 15.7047 119.089 15.2883 119.723 14.9818C120.372 14.671 121.063 14.4582 121.774 14.3501C122.445 14.2417 123.122 14.1675 123.801 14.1278C124.005 14.1103 124.206 14.1021 124.403 14.1021H124.954V13.6494C124.954 13.0118 124.779 12.5591 124.429 12.2912C124.078 12.0222 123.509 11.8888 122.722 11.8888C121.988 11.8888 121.334 12.0058 120.761 12.2362C120.186 12.4692 119.626 12.7348 119.081 13.0317C118.843 12.7525 118.649 12.4385 118.504 12.1005C118.359 11.7613 118.286 11.5074 118.286 11.3413C118.286 11.1097 118.418 10.8851 118.684 10.6698C118.949 10.4546 119.312 10.2604 119.774 10.0849C120.29 9.8968 120.822 9.75586 121.363 9.66381C121.99 9.55294 122.626 9.49813 123.262 9.50004C124.185 9.50004 124.967 9.59245 125.608 9.77494C126.249 9.95743 126.771 10.2394 127.173 10.6207C127.574 11.0021 127.861 11.4782 128.031 12.0502C128.202 12.6223 128.288 13.2902 128.288 14.0518V18.7275ZM125.005 15.8428H124.647C124.526 15.8428 124.407 15.8509 124.287 15.8673C123.862 15.9005 123.439 15.9505 123.018 16.0171C122.63 16.0733 122.254 16.1906 121.902 16.3645C121.593 16.518 121.321 16.739 121.108 17.0114C120.902 17.2769 120.799 17.6174 120.799 18.0315C120.799 18.4959 120.936 18.8889 121.21 19.213C121.483 19.5358 121.945 19.6973 122.595 19.6973C123.188 19.7014 123.772 19.5472 124.287 19.2504C124.509 19.1171 124.685 18.972 124.813 18.8141C124.942 18.6573 125.005 18.5123 125.005 18.3801V15.8416V15.8428Z" fill="#044D80"/>
<path d="M0 9.89192L10.9072 9.89426L17.5396 9.89543V3.1737L0 9.89192Z" fill="#FF9D28"/>
<path d="M17.5396 3.1737V26.9057L25.8236 0L17.5396 3.1737Z" fill="#68C5ED"/>
<path d="M17.5383 9.89543L10.906 9.89426L17.5383 26.9057V9.89543Z" fill="#044D80"/>
<path d="M0 9.89192L12.6077 14.2588L10.9072 9.89426L0 9.89192Z" fill="#E54747"/>
<path d="M7.37859 61.6444C7.23961 61.6442 7.10245 61.6125 6.97728 61.5516C6.85212 61.4907 6.74215 61.4022 6.65553 61.2927C6.56891 61.1831 6.50786 61.0553 6.47691 60.9188C6.44596 60.7822 6.44589 60.6404 6.47672 60.5038L7.59681 55.5321L3.79895 52.1748C3.66175 52.0548 3.56262 51.8969 3.51389 51.7205C3.46517 51.5442 3.46902 51.3573 3.52496 51.1832C3.58091 51.0091 3.68647 50.8554 3.82848 50.7413C3.9705 50.6272 4.14269 50.5578 4.32359 50.5417L9.34949 50.082L11.3366 45.3957C11.4078 45.2277 11.5264 45.0844 11.6776 44.9838C11.8289 44.8831 12.0062 44.8294 12.1874 44.8294C12.3687 44.8294 12.546 44.8831 12.6972 44.9838C12.8485 45.0844 12.9671 45.2277 13.0382 45.3957L15.0254 50.082L20.0513 50.5417C20.2323 50.5573 20.4047 50.6264 20.547 50.7402C20.6893 50.8541 20.7951 51.0077 20.8512 51.1819C20.9073 51.356 20.9113 51.543 20.8625 51.7194C20.8137 51.8958 20.7145 52.0538 20.5771 52.1736L16.7781 55.5309L17.8981 60.5026C17.9386 60.6808 17.9263 60.8669 17.8627 61.038C17.7991 61.2092 17.687 61.3577 17.5403 61.4651C17.3937 61.5725 17.2189 61.6341 17.0378 61.6423C16.8566 61.6505 16.6771 61.6048 16.5215 61.511L12.1874 58.9L7.85332 61.511C7.70977 61.5973 7.54576 61.6442 7.37859 61.6444ZM25.95 61.6444C25.811 61.6442 25.6739 61.6125 25.5487 61.5516C25.4235 61.4907 25.3136 61.4022 25.227 61.2927C25.1403 61.1831 25.0793 61.0553 25.0483 60.9188C25.0174 60.7822 25.0173 60.6404 25.0481 60.5038L26.1694 55.5321L22.3704 52.1748C22.2332 52.0548 22.134 51.8969 22.0853 51.7205C22.0366 51.5442 22.0405 51.3573 22.0964 51.1832C22.1523 51.0091 22.2579 50.8554 22.3999 50.7413C22.5419 50.6272 22.7141 50.5578 22.895 50.5417L27.9209 50.082L29.9081 45.3957C29.9792 45.2277 30.0978 45.0844 30.2491 44.9838C30.4003 44.8831 30.5776 44.8294 30.7589 44.8294C30.9401 44.8294 31.1174 44.8831 31.2687 44.9838C31.4199 45.0844 31.5385 45.2277 31.6097 45.3957L33.5968 50.082L38.6227 50.5417C38.8037 50.5573 38.9762 50.6264 39.1184 50.7402C39.2607 50.8541 39.3665 51.0077 39.4226 51.1819C39.4788 51.356 39.4827 51.543 39.4339 51.7194C39.3852 51.8958 39.2859 52.0538 39.1485 52.1736L35.3495 55.5309L36.4696 60.5026C36.5101 60.6808 36.4977 60.8669 36.4341 61.038C36.3705 61.2092 36.2584 61.3577 36.1117 61.4651C35.9651 61.5725 35.7903 61.6341 35.6092 61.6423C35.4281 61.6505 35.2486 61.6048 35.093 61.511L30.7589 58.9L26.4248 61.511C26.2812 61.5973 26.1172 61.6442 25.95 61.6444ZM44.5214 61.6444C44.3825 61.6442 44.2453 61.6125 44.1201 61.5516C43.995 61.4907 43.885 61.4022 43.7984 61.2927C43.7118 61.1831 43.6507 61.0553 43.6198 60.9188C43.5888 60.7822 43.5887 60.6404 43.6196 60.5038L44.7397 55.5321L40.9418 52.1748C40.8046 52.0548 40.7055 51.8969 40.6567 51.7205C40.608 51.5442 40.6119 51.3573 40.6678 51.1832C40.7238 51.0091 40.8293 50.8554 40.9713 50.7413C41.1134 50.6272 41.2855 50.5578 41.4664 50.5417L46.4923 50.082L48.4795 45.3957C48.5507 45.2277 48.6692 45.0844 48.8205 44.9838C48.9718 44.8831 49.149 44.8294 49.3303 44.8294C49.5116 44.8294 49.6888 44.8831 49.8401 44.9838C49.9913 45.0844 50.1099 45.2277 50.1811 45.3957L52.1682 50.082L57.1941 50.5417C57.3751 50.5573 57.5476 50.6264 57.6899 50.7402C57.8321 50.8541 57.938 51.0077 57.9941 51.1819C58.0502 51.356 58.0541 51.543 58.0054 51.7194C57.9566 51.8958 57.8573 52.0538 57.7199 52.1736L53.9209 55.5309L55.041 60.5026C55.0815 60.6808 55.0692 60.8669 55.0056 61.038C54.9419 61.2092 54.8298 61.3577 54.6832 61.4651C54.5365 61.5725 54.3618 61.6341 54.1806 61.6423C53.9995 61.6505 53.82 61.6048 53.6644 61.511L49.3303 58.9L44.9962 61.511C44.8526 61.5973 44.6886 61.6442 44.5214 61.6444ZM63.0929 61.6444C62.9539 61.6442 62.8167 61.6125 62.6916 61.5516C62.5664 61.4907 62.4564 61.4022 62.3698 61.2927C62.2832 61.1831 62.2221 61.0553 62.1912 60.9188C62.1602 60.7822 62.1602 60.6404 62.191 60.5038L63.3111 55.5321L59.5132 52.1748C59.376 52.0548 59.2769 51.8969 59.2282 51.7205C59.1795 51.5442 59.1833 51.3573 59.2392 51.1832C59.2952 51.0091 59.4007 50.8554 59.5428 50.7413C59.6848 50.6272 59.857 50.5578 60.0379 50.5417L65.0638 50.082L67.0509 45.3957C67.1221 45.2277 67.2407 45.0844 67.3919 44.9838C67.5432 44.8831 67.7205 44.8294 67.9017 44.8294C68.083 44.8294 68.2603 44.8831 68.4115 44.9838C68.5628 45.0844 68.6814 45.2277 68.7525 45.3957L70.7397 50.082L75.7656 50.5417C75.9466 50.5573 76.119 50.6264 76.2613 50.7402C76.4036 50.8541 76.5094 51.0077 76.5655 51.1819C76.6216 51.356 76.6255 51.543 76.5768 51.7194C76.528 51.8958 76.4287 52.0538 76.2914 52.1736L72.4923 55.5309L73.6124 60.5026C73.6529 60.6808 73.6406 60.8669 73.577 61.038C73.5134 61.2092 73.4013 61.3577 73.2546 61.4651C73.1079 61.5725 72.9332 61.6341 72.7521 61.6423C72.5709 61.6505 72.3914 61.6048 72.2358 61.511L67.9017 58.9L63.5676 61.511C63.4241 61.5973 63.26 61.6442 63.0929 61.6444ZM81.6643 61.6444C81.5253 61.6442 81.3882 61.6125 81.263 61.5516C81.1378 61.4907 81.0279 61.4022 80.9412 61.2927C80.8546 61.1831 80.7936 61.0553 80.7626 60.9188C80.7317 60.7822 80.7316 60.6404 80.7624 60.5038L81.8837 55.5321L78.0847 52.1748C77.9475 52.0548 77.8483 51.8969 77.7996 51.7205C77.7509 51.5442 77.7547 51.3573 77.8107 51.1832C77.8666 51.0091 77.9722 50.8554 78.1142 50.7413C78.2562 50.6272 78.4284 50.5578 78.6093 50.5417L83.6352 50.082L85.6223 45.3957C85.6935 45.2277 85.8121 45.0844 85.9634 44.9838C86.1146 44.8831 86.2919 44.8294 86.4732 44.8294C86.6544 44.8294 86.8317 44.8831 86.9829 44.9838C87.1342 45.0844 87.2528 45.2277 87.324 45.3957L89.3111 50.082L94.337 50.5417C94.518 50.5573 94.6904 50.6264 94.8327 50.7402C94.975 50.8541 95.0808 51.0077 95.1369 51.1819C95.1931 51.356 95.197 51.543 95.1482 51.7194C95.0994 51.8958 95.0002 52.0538 94.8628 52.1736L91.0638 55.5309L92.1839 60.5026C92.2244 60.6808 92.212 60.8669 92.1484 61.038C92.0848 61.2092 91.9727 61.3577 91.826 61.4651C91.6794 61.5725 91.5046 61.6341 91.3235 61.6423C91.1424 61.6505 90.9629 61.6048 90.8073 61.511L86.4732 58.9L82.139 61.511C81.9955 61.5973 81.8315 61.6442 81.6643 61.6444ZM86.4732 57.777C86.638 57.777 86.8005 57.8214 86.9479 57.9092L91.0382 60.3751L89.9808 55.6818C89.9437 55.5178 89.9513 55.3468 90.0028 55.1867C90.0543 55.0267 90.1477 54.8837 90.2733 54.7729L93.8599 51.6027L89.1149 51.1687C88.9481 51.1536 88.7884 51.093 88.6531 50.9935C88.5177 50.894 88.4118 50.7592 88.3465 50.6037L86.4732 46.1795V57.777Z" fill="#FF9D29"/>
</svg>
