<svg width="159" height="66" viewBox="0 0 159 66" fill="none" xmlns="http://www.w3.org/2000/svg">
<g clip-path="url(#clip0_2002_293)">
<path fill-rule="evenodd" clip-rule="evenodd" d="M2.32117 0C1.70556 0 1.11516 0.243984 0.679854 0.678279C0.244551 1.11257 0 1.7016 0 2.31579L0 32.4211C0 33.0352 0.244551 33.6243 0.679854 34.0586C1.11516 34.4929 1.70556 34.7368 2.32117 34.7368H38.2993C38.9149 34.7368 39.5053 34.4929 39.9406 34.0586C40.3759 33.6243 40.6204 33.0352 40.6204 32.4211V2.31579C40.6204 1.7016 40.3759 1.11257 39.9406 0.678279C39.5053 0.243984 38.9149 0 38.2993 0L2.32117 0ZM14.9216 4.63158H25.6942C26.8861 4.63158 27.854 5.40737 27.854 6.36842C27.854 7.32947 26.8907 8.10526 25.6988 8.10526H14.9216C13.7297 8.10526 12.7664 7.32947 12.7664 6.36842C12.7664 5.40737 13.7297 4.63158 14.9216 4.63158Z" fill="black" fill-opacity="0.05"/>
<path d="M54.6866 28.6706C53.2649 28.6706 52.0753 28.1913 51.1167 27.2325C50.1546 26.2715 49.6741 25.0765 49.6741 23.6419C49.6741 22.2061 50.1546 21.01 51.1167 20.0513C52.0776 19.0914 53.2696 18.612 54.6855 18.612C56.1432 18.612 57.3235 19.1354 58.2299 20.1856L57.3664 21.0181C56.7107 20.2041 55.8182 19.7931 54.6855 19.7931C53.6328 19.7931 52.7473 20.1451 52.0231 20.8537C51.2989 21.5623 50.9379 22.4898 50.9379 23.6373C50.9379 24.7859 51.2977 25.7134 52.0231 26.422C52.745 27.1306 53.6328 27.4826 54.6855 27.4826C55.8437 27.4826 56.8349 27.0172 57.6508 26.0839L58.5142 26.9454C58.0628 27.4824 57.4965 27.9117 56.8569 28.2017C56.1775 28.5173 55.436 28.6775 54.6866 28.6706ZM60.8609 18.8297V21.868L60.8052 22.7827H60.8598C61.0385 22.4713 61.3229 22.2026 61.7082 21.9838C62.0851 21.767 62.5126 21.6532 62.9477 21.6538C63.7636 21.6538 64.3891 21.9039 64.8197 22.4064C65.2491 22.9078 65.4685 23.5794 65.4685 24.4223V28.4564H64.229V24.6122C64.229 23.3941 63.687 22.7827 62.5972 22.7827C62.0842 22.7827 61.6687 22.9877 61.3437 23.3941C61.0222 23.796 60.851 24.2972 60.8598 24.8114V28.4564H59.6214V18.8297H60.8609ZM66.925 28.4564V21.868H68.1123V22.9437H68.1668C68.2945 22.5847 68.5498 22.2895 68.9432 22.0567C69.332 21.8252 69.7116 21.7082 70.0829 21.7082C70.4508 21.7082 70.7607 21.7626 71.0114 21.868L70.5379 23.0236C70.3255 22.9532 70.1023 22.921 69.8787 22.9286C69.4307 22.9286 69.0303 23.1069 68.6879 23.4601C68.3421 23.8121 68.1703 24.2776 68.1703 24.8519V28.4564H66.925ZM71.9909 22.6531C72.6293 21.9838 73.4417 21.6503 74.4317 21.6503C75.4228 21.6503 76.2352 21.9838 76.8724 22.6531C77.5107 23.3212 77.831 24.1583 77.831 25.1611C77.831 26.1638 77.5095 26.9998 76.8724 27.6679C76.2352 28.3372 75.4228 28.6706 74.4317 28.6706C73.4417 28.6706 72.6293 28.3372 71.9921 27.6679C71.3538 26.9998 71.0335 26.1626 71.0335 25.1611C71.0335 24.1572 71.3526 23.3212 71.9909 22.6531ZM72.9136 26.891C73.3395 27.3263 73.8456 27.5405 74.4282 27.5405C75.0108 27.5405 75.518 27.3228 75.9439 26.891C76.3698 26.4544 76.5845 25.8801 76.5845 25.1645C76.5845 24.4478 76.3698 23.87 75.9439 23.4381C75.7505 23.2305 75.5158 23.0654 75.2548 22.9533C74.9938 22.8413 74.7123 22.7848 74.4282 22.7874C73.8456 22.7874 73.3395 23.0051 72.9136 23.4381C72.4865 23.87 72.2718 24.4478 72.2718 25.1634C72.2753 25.8801 72.4865 26.4544 72.9136 26.891ZM78.8245 28.4564V21.868H80.0129V22.7827H80.0674C80.2566 22.4713 80.5433 22.2026 80.9379 21.9838C81.2912 21.7752 81.6926 21.6615 82.1031 21.6538C83.1267 21.6538 83.8231 22.0753 84.191 22.9182C84.7295 22.0753 85.4978 21.6538 86.4959 21.6538C87.2793 21.6538 87.8654 21.9004 88.2623 22.3983C88.6604 22.8962 88.8565 23.5724 88.8565 24.4223V28.4564H87.6182V24.6122C87.6182 23.9464 87.4975 23.4775 87.2538 23.2019C87.0101 22.9252 86.6422 22.7839 86.1501 22.7839C85.6661 22.7839 85.2611 22.9912 84.9442 23.4022C84.6286 23.8038 84.4603 24.3011 84.4672 24.8114V28.4564H83.2289V24.6122C83.2289 23.9464 83.1082 23.4775 82.8645 23.2019C82.6207 22.9252 82.2528 22.7839 81.7619 22.7839C81.2768 22.7839 80.8717 22.9912 80.5549 23.4022C80.2397 23.804 80.0718 24.3012 80.0791 24.8114V28.4564H78.8245ZM93.3004 28.6706C92.3023 28.6706 91.4934 28.3406 90.8667 27.6748C90.2446 27.0148 89.9312 26.1742 89.9312 25.1611C89.9312 24.2012 90.233 23.3767 90.8412 22.6855C91.4505 21.9954 92.2222 21.6503 93.1658 21.6503C94.1453 21.6503 94.9287 21.9699 95.5183 22.6056C96.109 23.2424 96.4003 24.0923 96.4003 25.1611L96.3853 25.3892H91.1696C91.2056 26.055 91.4284 26.5783 91.8358 26.9639C92.2443 27.3483 92.7248 27.5405 93.2714 27.5405C94.1604 27.5405 94.7616 27.1631 95.0784 26.4104L96.181 26.8689C95.9663 27.3807 95.61 27.8068 95.1179 28.1519C94.6223 28.4993 94.0177 28.6706 93.3004 28.6706ZM95.0784 24.3679C95.0529 23.9904 94.8777 23.6338 94.5608 23.2922C94.2405 22.9506 93.767 22.7804 93.1403 22.7804C92.6807 22.7804 92.2838 22.9252 91.9495 23.2088C91.6129 23.4925 91.3808 23.8804 91.2532 24.3644H95.0784V24.3679ZM111.415 18.8297L108.838 28.4564H107.572L105.495 22.1112H105.441L103.364 28.4564H102.098L99.4167 18.8297H100.71L102.745 26.4H102.8L104.891 20.1196H106.049L108.14 26.4H108.194L110.121 18.8297H111.415ZM114.634 28.6706C113.636 28.6706 112.828 28.3406 112.202 27.6748C111.578 27.0148 111.265 26.1742 111.265 25.1611C111.265 24.2012 111.567 23.3767 112.176 22.6855C112.784 21.9954 113.557 21.6503 114.5 21.6503C115.479 21.6503 116.263 21.9699 116.853 22.6056C117.443 23.2424 117.734 24.0923 117.734 25.1611L117.72 25.3892H112.503C112.541 26.055 112.762 26.5783 113.171 26.9639C113.578 27.3483 114.06 27.5405 114.605 27.5405C115.494 27.5405 116.095 27.1631 116.412 26.4104L117.516 26.8689C117.292 27.3896 116.923 27.835 116.452 28.1519C115.961 28.4993 115.353 28.6706 114.634 28.6706ZM116.412 24.3679C116.387 23.9904 116.212 23.6338 115.895 23.2922C115.574 22.9506 115.101 22.7804 114.474 22.7804C114.016 22.7804 113.619 22.9252 113.283 23.2088C112.948 23.4925 112.715 23.8804 112.587 24.3644H116.412V24.3679ZM122.357 28.6706C121.885 28.6776 121.42 28.5665 121.002 28.3476C120.601 28.1334 120.303 27.8647 120.105 27.5405H120.051V28.4564H118.863V18.8297H120.102V21.868L120.047 22.7827H120.102C120.299 22.4608 120.597 22.1922 120.998 21.9768C121.399 21.7626 121.851 21.6526 122.353 21.6526C123.205 21.6526 123.944 21.9884 124.564 22.66C125.184 23.3316 125.493 24.1653 125.493 25.1611C125.493 26.1568 125.184 26.9882 124.564 27.6609C123.949 28.3372 123.209 28.6706 122.357 28.6706ZM122.153 27.5405C122.728 27.5405 123.224 27.3228 123.636 26.891C124.047 26.4579 124.254 25.8801 124.254 25.1645C124.254 24.4478 124.047 23.87 123.636 23.4381C123.449 23.2313 123.22 23.0664 122.964 22.9542C122.708 22.8421 122.432 22.7852 122.153 22.7874C121.57 22.7874 121.071 23.0016 120.664 23.4346C120.255 23.8631 120.051 24.442 120.051 25.168C120.051 25.894 120.255 26.4729 120.664 26.9014C121.074 27.3263 121.57 27.5405 122.153 27.5405ZM132.127 28.6706C131.427 28.6706 130.742 28.4425 130.071 27.984C129.402 27.5266 128.964 26.8863 128.756 26.0619L129.89 25.6034C130.025 26.1348 130.301 26.5783 130.72 26.9407C131.139 27.3043 131.609 27.4861 132.13 27.4861C132.669 27.4861 133.128 27.3448 133.51 27.0612C133.893 26.7775 134.082 26.3965 134.082 25.9125C134.082 25.3753 133.893 24.9607 133.51 24.6701C133.128 24.3795 132.524 24.1062 131.696 23.8561C130.844 23.5875 130.195 23.2378 129.754 22.814C129.315 22.3879 129.095 21.8425 129.095 21.1779C129.095 20.4866 129.369 19.888 129.919 19.3751C130.465 18.8633 131.18 18.6085 132.06 18.6085C132.876 18.6085 133.543 18.8112 134.057 19.2187C134.571 19.6263 134.902 20.0733 135.055 20.5561L133.922 21.0251C133.842 20.7194 133.641 20.4357 133.321 20.1786C133.001 19.9204 132.592 19.7896 132.089 19.7896C131.612 19.7896 131.209 19.9204 130.87 20.1856C130.531 20.4507 130.364 20.7784 130.364 21.1744C130.364 21.5334 130.519 21.8344 130.829 22.0822C131.139 22.33 131.594 22.5512 132.199 22.748C132.676 22.8997 133.074 23.0491 133.39 23.1915C133.711 23.3327 134.031 23.525 134.358 23.7612C134.687 23.9974 134.934 24.2961 135.102 24.6481C135.269 25.0001 135.35 25.4123 135.35 25.8755C135.35 26.3421 135.251 26.759 135.058 27.126C134.879 27.4775 134.615 27.7789 134.29 28.0025C133.973 28.2159 133.625 28.3814 133.259 28.4935C132.894 28.6138 132.511 28.6736 132.127 28.6706ZM139.163 28.5618C138.472 28.5618 137.943 28.38 137.579 28.0095C137.215 27.639 137.032 27.1225 137.032 26.451V22.9946H135.874V21.8645H137.032V19.8463H138.271V21.8634H139.889V22.9935H138.271V26.3548C138.271 27.0704 138.567 27.4317 139.16 27.4317C139.386 27.4317 139.572 27.3946 139.725 27.3217L140.154 28.3823C139.892 28.5027 139.557 28.5618 139.163 28.5618ZM141.589 22.6531C142.227 21.9838 143.04 21.6503 144.03 21.6503C145.017 21.6503 145.833 21.9838 146.47 22.6531C147.107 23.3212 147.429 24.1583 147.429 25.1611C147.429 26.1638 147.107 26.9998 146.47 27.6679C145.833 28.3372 145.021 28.6706 144.03 28.6706C143.043 28.6706 142.227 28.3372 141.589 27.6679C140.952 26.9998 140.631 26.1626 140.631 25.1611C140.631 24.1572 140.952 23.3212 141.589 22.6531ZM142.512 26.891C142.705 27.0983 142.939 27.2631 143.2 27.375C143.461 27.4868 143.742 27.5432 144.026 27.5405C144.609 27.5405 145.116 27.3228 145.542 26.891C145.968 26.4544 146.182 25.8801 146.182 25.1645C146.182 24.4478 145.968 23.87 145.542 23.4381C145.348 23.2305 145.114 23.0655 144.853 22.9534C144.592 22.8414 144.31 22.7848 144.026 22.7874C143.443 22.7874 142.937 23.0051 142.512 23.4381C142.084 23.87 141.87 24.4478 141.87 25.1634C141.873 25.8801 142.084 26.4544 142.512 26.891ZM148.422 28.4564V21.868H149.611V22.9437H149.665C149.792 22.5847 150.047 22.2895 150.441 22.0567C150.831 21.8252 151.212 21.7082 151.58 21.7082C151.948 21.7082 152.258 21.7626 152.51 21.868L152.04 23.0236C151.828 22.9532 151.604 22.921 151.381 22.9286C150.933 22.9286 150.532 23.1069 150.19 23.4601C149.843 23.8121 149.672 24.2776 149.672 24.8519V28.4564H148.422ZM155.901 28.6706C154.903 28.6706 154.094 28.3406 153.467 27.6748C152.845 27.0148 152.532 26.1742 152.532 25.1611C152.532 24.2012 152.834 23.3767 153.442 22.6855C154.05 21.9954 154.823 21.6503 155.767 21.6503C156.746 21.6503 157.529 21.9699 158.119 22.6056C158.71 23.2424 159.001 24.0923 159.001 25.1611L158.986 25.3892H153.77C153.806 26.055 154.029 26.5783 154.437 26.9639C154.845 27.3483 155.326 27.5405 155.872 27.5405C156.76 27.5405 157.361 27.1631 157.678 26.4104L158.782 26.8689C158.567 27.3807 158.211 27.8068 157.719 28.1519C157.227 28.4993 156.618 28.6706 155.901 28.6706ZM157.678 24.3679C157.652 23.9904 157.478 23.6338 157.162 23.2922C156.841 22.9506 156.368 22.7804 155.741 22.7804C155.305 22.7732 154.881 22.9256 154.549 23.2088C154.215 23.4925 153.982 23.8804 153.854 24.3644H157.678V24.3679ZM50.3913 13.5092L53.1442 6.22369H54.205L56.9579 13.5092H55.9169L55.2135 11.5361H52.1426L51.4289 13.5092H50.3913ZM52.4595 10.6607H54.8851L53.692 7.37579H53.6514L52.4595 10.6607ZM58.6303 13.5092L56.612 8.52327H57.6322L59.1003 12.3906H59.1224L60.6114 8.52327H61.6095L59.5704 13.5092H58.6303ZM63.7009 13.6736C63.1682 13.6736 62.7283 13.5207 62.3709 13.2151C62.0146 12.9105 61.8358 12.5064 61.8358 12.0051C61.8358 11.4632 62.0471 11.0347 62.4695 10.7291C62.892 10.4211 63.4096 10.2682 64.0282 10.2682C64.5783 10.2682 65.0298 10.3701 65.3837 10.5739V10.4315C65.39 10.2659 65.3592 10.101 65.2935 9.94874C65.2279 9.79652 65.1291 9.6608 65.0042 9.55148C64.7474 9.32874 64.4159 9.21089 64.0758 9.22148C63.8165 9.2185 63.5613 9.28487 63.3365 9.41369C63.1262 9.53108 62.9648 9.71956 62.8815 9.94516L62.025 9.57811C62.1411 9.27937 62.3674 9.00379 62.7098 8.74906C63.0486 8.49432 63.5001 8.36695 64.0572 8.36695C64.6955 8.36695 65.2271 8.55221 65.6495 8.92737C66.072 9.30137 66.2832 9.82474 66.2832 10.5044V13.5173H65.3872V12.826H65.3466C64.9682 13.3864 64.4181 13.6736 63.7009 13.6736ZM63.8541 12.8156C64.2394 12.8156 64.5934 12.6697 64.9102 12.3837C65.2271 12.0965 65.3837 11.7549 65.3837 11.3624C65.1168 11.1436 64.7199 11.0347 64.1883 11.0347C63.7334 11.0347 63.391 11.1332 63.1577 11.3288C62.9279 11.5257 62.8119 11.7573 62.8119 12.0201C62.8119 12.2633 62.9175 12.4555 63.1287 12.6014C63.34 12.7461 63.5814 12.8156 63.8541 12.8156ZM68.3583 7.27042C68.2974 7.3326 68.2244 7.38171 68.1437 7.41476C68.0631 7.44781 67.9766 7.4641 67.8894 7.46263C67.8021 7.46392 67.7155 7.44756 67.6347 7.41452C67.5539 7.38149 67.4807 7.33247 67.4194 7.27042C67.3569 7.20949 67.3076 7.13646 67.2745 7.05582C67.2414 6.97517 67.2251 6.88862 67.2267 6.80148C67.2267 6.61621 67.2917 6.46337 67.4194 6.33253C67.4804 6.27 67.5535 6.22059 67.6344 6.18733C67.7152 6.15408 67.802 6.13768 67.8894 6.13916C68.0751 6.13916 68.2283 6.20516 68.3595 6.33253C68.4871 6.46337 68.5521 6.61621 68.5521 6.80148C68.5546 6.88873 68.5387 6.97553 68.5056 7.0563C68.4724 7.13706 68.4215 7.21 68.3583 7.27042ZM68.3583 13.5092H67.4194V8.52327H68.3595L68.3583 13.5092ZM70.5228 13.5092H69.5827V6.22369H70.5228V13.5092ZM73.1933 13.6736C72.6606 13.6736 72.2207 13.5207 71.8633 13.2151C71.507 12.9105 71.3282 12.5064 71.3282 12.0051C71.3282 11.4632 71.5395 11.0347 71.9619 10.7291C72.3844 10.4211 72.902 10.2682 73.5206 10.2682C74.0707 10.2682 74.5222 10.3701 74.8762 10.5739V10.4315C74.8824 10.2659 74.8516 10.101 74.786 9.94874C74.7203 9.79652 74.6215 9.6608 74.4966 9.55148C74.2399 9.32874 73.9083 9.21089 73.5682 9.22148C73.309 9.2185 73.0537 9.28487 72.8289 9.41369C72.6186 9.53108 72.4572 9.71956 72.3739 9.94516L71.5174 9.57811C71.6335 9.27937 71.8598 9.00379 72.2022 8.74906C72.5411 8.49432 72.9925 8.36695 73.5496 8.36695C74.1879 8.36695 74.7195 8.55221 75.1419 8.92737C75.5644 9.30137 75.7756 9.82474 75.7756 10.5044V13.5173H74.8796V12.826H74.839C74.4607 13.3864 73.914 13.6736 73.1933 13.6736ZM73.3465 12.8156C73.7318 12.8156 74.0858 12.6697 74.4026 12.3837C74.7195 12.0965 74.8762 11.7549 74.8762 11.3624C74.6092 11.1436 74.2135 11.0347 73.6808 11.0347C73.2258 11.0347 72.8834 11.1332 72.6502 11.3288C72.4204 11.5257 72.3043 11.7573 72.3043 12.0201C72.3043 12.2633 72.4099 12.4555 72.6211 12.6014C72.8324 12.7461 73.0761 12.8156 73.3465 12.8156ZM79.4767 13.6736C79.0937 13.6736 78.7548 13.5925 78.4531 13.4304C78.1766 13.2905 77.9426 13.0794 77.7753 12.8191H77.7358V13.5092H76.8387V6.22369H77.7788V8.52211L77.7393 9.21337H77.7788C77.9461 8.95301 78.1801 8.74195 78.4566 8.602C78.7583 8.4399 79.1007 8.35884 79.4802 8.35884C80.1243 8.35884 80.6826 8.61358 81.1514 9.12306C81.6215 9.63137 81.8547 10.2636 81.8547 11.0151C81.8547 11.7677 81.6226 12.3999 81.1526 12.9094C80.6826 13.4177 80.1208 13.6724 79.4767 13.6724V13.6736ZM79.3235 12.8156C79.7564 12.8156 80.1324 12.6523 80.4458 12.3212C80.7592 11.99 80.9147 11.5581 80.9147 11.0127C80.9147 10.472 80.7592 10.0355 80.4458 9.70432C80.3045 9.54743 80.1313 9.42231 79.9378 9.33727C79.7443 9.25223 79.5349 9.20921 79.3235 9.21105C78.8825 9.21105 78.5076 9.37316 78.1977 9.69737C77.8879 10.0251 77.7358 10.4616 77.7358 11.0093C77.7358 11.5581 77.8879 11.9981 78.1977 12.3212C78.5076 12.6558 78.8825 12.8156 79.3235 12.8156ZM83.5968 13.5092H82.6567V6.22369H83.5968V13.5092ZM86.9543 13.6736C86.2 13.6736 85.5849 13.4223 85.1148 12.9209C84.6413 12.4196 84.4045 11.7839 84.4045 11.0162C84.4045 10.2902 84.6343 9.66842 85.0928 9.14505C85.5524 8.62169 86.1385 8.36 86.8522 8.36C87.5915 8.36 88.1857 8.59969 88.6337 9.08369C89.0817 9.56653 89.2999 10.2103 89.2999 11.0174L89.2883 11.1911H85.3411C85.3667 11.6924 85.5384 12.0884 85.8472 12.3837C86.157 12.6732 86.518 12.8191 86.9323 12.8191C87.6054 12.8191 88.0616 12.5354 88.2983 11.9657L89.1363 12.3107C88.9663 12.7043 88.6867 13.0411 88.3308 13.2811C87.9559 13.5427 87.4975 13.6736 86.9543 13.6736ZM88.2983 10.4176C88.2763 10.1339 88.1451 9.86179 87.9049 9.60358C87.6646 9.34537 87.3037 9.218 86.8302 9.218C86.4992 9.21239 86.1777 9.32864 85.9272 9.54453C85.6719 9.76337 85.4978 10.054 85.4026 10.4211H88.2983V10.4176ZM93.42 7.27042C93.3589 7.33274 93.2857 7.38194 93.2049 7.41499C93.124 7.44805 93.0373 7.46426 92.9499 7.46263C92.8626 7.46392 92.776 7.44756 92.6952 7.41452C92.6144 7.38149 92.5412 7.33247 92.4799 7.27042C92.4167 7.21 92.367 7.13706 92.3338 7.0563C92.3006 6.97553 92.2848 6.88873 92.2872 6.80148C92.2872 6.61621 92.3522 6.46337 92.4799 6.33253C92.5409 6.27 92.614 6.22059 92.6949 6.18733C92.7757 6.15408 92.8625 6.13768 92.9499 6.13916C93.1356 6.13916 93.2888 6.20516 93.42 6.33253C93.5476 6.46337 93.6126 6.61621 93.6126 6.80148C93.6126 6.98674 93.5476 7.14305 93.42 7.27042ZM93.42 13.5092H92.4799V8.52327H93.42V13.5092ZM95.5392 8.52327V9.21453H95.5798C95.7353 8.95847 95.957 8.74889 96.2216 8.60779C96.5118 8.4399 96.8251 8.35653 97.1617 8.35653C97.7803 8.35653 98.2526 8.54527 98.5776 8.92737C98.9061 9.30484 99.065 9.81779 99.065 10.4535V13.5057H98.1261V10.5947C98.1261 9.6719 97.7141 9.21105 96.8913 9.21105C96.708 9.20712 96.5265 9.24689 96.3618 9.32704C96.1971 9.4072 96.0539 9.52543 95.9442 9.6719C95.7005 9.98105 95.5763 10.3365 95.5763 10.7441V13.5022H94.6363V8.52327H95.5392ZM104.577 13.5891C104.052 13.5891 103.655 13.4513 103.379 13.1722C103.102 12.892 102.967 12.4995 102.967 11.9912V9.37432H102.09V8.51979H102.967V6.99369H103.907V8.51979H105.13V9.37432H103.907V11.9182C103.907 12.459 104.133 12.7322 104.58 12.7322C104.752 12.7322 104.894 12.7067 105.01 12.6512L105.338 13.4547C105.096 13.5512 104.837 13.5973 104.577 13.5902V13.5891ZM107.014 6.22369V8.52211L106.974 9.21337H107.014C107.149 8.97716 107.363 8.77337 107.655 8.60663C107.946 8.43874 108.259 8.35537 108.595 8.35537C109.214 8.35537 109.688 8.54411 110.012 8.92621C110.339 9.30369 110.499 9.81663 110.499 10.4523V13.5045H109.559V10.5947C109.559 9.6719 109.148 9.21105 108.325 9.21105C108.142 9.20712 107.961 9.24689 107.796 9.32704C107.631 9.4072 107.488 9.52543 107.378 9.6719C107.135 9.98105 107.01 10.3365 107.01 10.7441V13.5022H106.07V6.22369H107.014ZM113.865 13.6736C113.11 13.6736 112.495 13.4223 112.026 12.9209C111.553 12.4196 111.316 11.7839 111.316 11.0162C111.316 10.2902 111.545 9.66842 112.004 9.14505C112.463 8.62169 113.049 8.36 113.764 8.36C114.503 8.36 115.096 8.59969 115.545 9.08369C115.992 9.56653 116.212 10.2103 116.212 11.0174L116.2 11.1911H112.252C112.277 11.6924 112.449 12.0884 112.758 12.3837C113.067 12.6732 113.428 12.8191 113.844 12.8191C114.517 12.8191 114.973 12.5354 115.21 11.9657L116.048 12.3107C115.878 12.7043 115.598 13.0411 115.242 13.2811C114.871 13.5427 114.41 13.6736 113.865 13.6736ZM115.213 10.4176C115.191 10.1339 115.06 9.86179 114.819 9.60358C114.58 9.34537 114.219 9.218 113.745 9.218C113.414 9.21239 113.093 9.32864 112.842 9.54453C112.587 9.76337 112.413 10.054 112.318 10.4211H115.213V10.4176Z" fill="#5F6368"/>
<path d="M13.9271 34.7368C13.4199 34.7368 12.0202 34.7507 11.6059 34.7368C11.0256 33 10.1621 32.4095 5.80298 23.3281C8.72881 18.3758 14.1313 15.0526 20.3103 15.0526C26.9976 15.0526 32.7738 18.9432 35.4884 24.5809C23.2117 30.1053 23.2117 30.1053 13.9271 34.7368Z" fill="#DB4437"/>
<path d="M37.1387 31.8421C37.1387 32.8286 37.0529 33.7966 36.8892 34.7368H26.1132L19.73 24.3158H35.3572C36.5324 26.6512 37.1426 29.2289 37.1387 31.8421Z" fill="#FFCD40"/>
<path d="M12.7664 34.7368H3.73122C3.56488 33.7809 3.4814 32.8124 3.48169 31.8421C3.48169 28.6648 4.36722 25.6925 5.90499 23.1579L12.7664 34.7368Z" fill="#0F9D58"/>
<path d="M20.5144 24.0367C16.2353 24.0367 12.7664 27.5046 12.7664 31.7819C12.7664 32.8286 12.9706 33.8256 13.3466 34.7368H27.6787C28.0655 33.7996 28.2639 32.7955 28.2625 31.7819C28.2625 27.5046 24.7935 24.0367 20.5144 24.0367Z" fill="#F1F1F1"/>
<path d="M20.5144 25.586C19.6998 25.5868 18.8933 25.7476 18.1409 26.0593C17.3886 26.371 16.7052 26.8276 16.1297 27.4028C15.5542 27.978 15.0979 28.6607 14.7869 29.4119C14.4758 30.1631 14.3161 30.968 14.3169 31.7807C14.3169 32.868 14.5954 33.8499 15.0875 34.7368H25.9622C26.456 33.8299 26.7142 32.814 26.7131 31.7819C26.7139 30.9691 26.5542 30.1642 26.2431 29.413C25.9321 28.6619 25.4758 27.9792 24.9003 27.404C24.3248 26.8287 23.6414 26.3722 22.889 26.0605C22.1367 25.7488 21.3302 25.5879 20.5156 25.5872L20.5144 25.586Z" fill="#4285F4"/>
<path d="M3.89598 65.648C3.75701 65.6478 3.61987 65.6164 3.49471 65.5562C3.36956 65.4959 3.2596 65.4083 3.173 65.2999C3.08639 65.1914 3.02535 65.065 2.9944 64.9298C2.96345 64.7946 2.96338 64.6543 2.9942 64.5191L4.11417 59.598L0.316737 56.2737C0.179556 56.155 0.0804286 55.9986 0.0317122 55.8241C-0.0170042 55.6496 -0.0131546 55.4646 0.042781 55.2923C0.0987167 55.1199 0.204264 54.9678 0.346265 54.8549C0.488266 54.7419 0.660439 54.6732 0.841321 54.6573L5.86665 54.2022L7.85357 49.5637C7.92473 49.3974 8.04329 49.2556 8.19454 49.1559C8.34578 49.0563 8.52303 49.0032 8.70428 49.0032C8.88552 49.0032 9.06277 49.0563 9.21402 49.1559C9.36526 49.2556 9.48382 49.3974 9.55498 49.5637L11.5419 54.2022L16.5672 54.6573C16.7482 54.6727 16.9206 54.7411 17.0629 54.8538C17.2052 54.9665 17.311 55.1185 17.3671 55.2909C17.4232 55.4633 17.4271 55.6484 17.3784 55.823C17.3296 55.9975 17.2303 56.1539 17.093 56.2725L13.2944 59.5957L14.4143 64.5167C14.4548 64.693 14.4425 64.8773 14.3789 65.0467C14.3153 65.2161 14.2032 65.363 14.0566 65.4694C13.9099 65.5757 13.7352 65.6367 13.5541 65.6448C13.373 65.6529 13.1935 65.6077 13.0379 65.5148L8.70428 62.9316L4.37066 65.516C4.22712 65.6015 4.06312 65.6478 3.89598 65.648ZM22.4653 65.648C22.3264 65.6478 22.1892 65.6164 22.0641 65.5562C21.9389 65.4959 21.8289 65.4083 21.7423 65.2999C21.6557 65.1914 21.5947 65.065 21.5637 64.9298C21.5328 64.7946 21.5327 64.6543 21.5635 64.5191L22.6847 59.598L18.8861 56.2748C18.7489 56.1561 18.6498 55.9998 18.6011 55.8253C18.5523 55.6507 18.5562 55.4658 18.6121 55.2934C18.6681 55.1211 18.7736 54.9689 18.9156 54.856C19.0576 54.7431 19.2298 54.6744 19.4107 54.6584L24.436 54.2034L26.4229 49.5648C26.4941 49.3985 26.6126 49.2568 26.7639 49.1571C26.9151 49.0575 27.0924 49.0043 27.2736 49.0043C27.4549 49.0043 27.6321 49.0575 27.7834 49.1571C27.9346 49.2568 28.0532 49.3985 28.1243 49.5648L30.1112 54.2034L35.1366 54.6584C35.3176 54.6739 35.49 54.7422 35.6323 54.8549C35.7745 54.9676 35.8803 55.1197 35.9364 55.2921C35.9925 55.4645 35.9965 55.6495 35.9477 55.8241C35.899 55.9987 35.7997 56.1551 35.6623 56.2737L31.8637 59.5968L32.9837 64.5179C33.0242 64.6942 33.0119 64.8785 32.9483 65.0478C32.8846 65.2172 32.7725 65.3642 32.6259 65.4705C32.4793 65.5769 32.3045 65.6379 32.1234 65.646C31.9423 65.654 31.7628 65.6089 31.6072 65.516L27.2736 62.9316L22.94 65.516C22.7965 65.6015 22.6325 65.6478 22.4653 65.648ZM41.0347 65.648C40.8957 65.6478 40.7585 65.6164 40.6334 65.5562C40.5082 65.4959 40.3983 65.4083 40.3117 65.2999C40.2251 65.1914 40.164 65.065 40.1331 64.9298C40.1021 64.7946 40.1021 64.6543 40.1329 64.5191L41.2528 59.598L37.4554 56.2748C37.3182 56.1561 37.2191 55.9998 37.1704 55.8253C37.1217 55.6507 37.1255 55.4658 37.1815 55.2934C37.2374 55.1211 37.3429 54.9689 37.4849 54.856C37.6269 54.7431 37.7991 54.6744 37.98 54.6584L43.0053 54.2034L44.9922 49.5648C45.0634 49.3985 45.182 49.2568 45.3332 49.1571C45.4845 49.0575 45.6617 49.0043 45.843 49.0043C46.0242 49.0043 46.2015 49.0575 46.3527 49.1571C46.5039 49.2568 46.6225 49.3985 46.6937 49.5648L48.6806 54.2034L53.7059 54.6584C53.8869 54.6739 54.0593 54.7422 54.2016 54.8549C54.3439 54.9676 54.4497 55.1197 54.5058 55.2921C54.5619 55.4645 54.5658 55.6495 54.517 55.8241C54.4683 55.9987 54.369 56.1551 54.2317 56.2737L50.4331 59.5968L51.553 64.5179C51.5935 64.6942 51.5812 64.8785 51.5176 65.0478C51.454 65.2172 51.3419 65.3642 51.1952 65.4705C51.0486 65.5769 50.8739 65.6379 50.6928 65.646C50.5117 65.654 50.3322 65.6089 50.1766 65.516L45.843 62.9316L41.5093 65.516C41.3658 65.6015 41.2018 65.6478 41.0347 65.648ZM59.604 65.648C59.465 65.6478 59.3279 65.6164 59.2027 65.5562C59.0776 65.4959 58.9676 65.4083 58.881 65.2999C58.7944 65.1914 58.7334 65.065 58.7024 64.9298C58.6715 64.7946 58.6714 64.6543 58.7022 64.5191L59.8222 59.598L56.0248 56.2748C55.8876 56.1561 55.7885 55.9998 55.7397 55.8253C55.691 55.6507 55.6949 55.4658 55.7508 55.2934C55.8067 55.1211 55.9123 54.9689 56.0543 54.856C56.1963 54.7431 56.3685 54.6744 56.5493 54.6584L61.5747 54.2034L63.5616 49.5648C63.6328 49.3985 63.7513 49.2568 63.9026 49.1571C64.0538 49.0575 64.2311 49.0043 64.4123 49.0043C64.5935 49.0043 64.7708 49.0575 64.922 49.1571C65.0733 49.2568 65.1918 49.3985 65.263 49.5648L67.2499 54.2034L72.2753 54.6584C72.4563 54.6739 72.6287 54.7422 72.7709 54.8549C72.9132 54.9676 73.019 55.1197 73.0751 55.2921C73.1312 55.4645 73.1351 55.6495 73.0864 55.8241C73.0376 55.9987 72.9384 56.1551 72.801 56.2737L69.0024 59.5968L70.1224 64.5179C70.1629 64.6942 70.1505 64.8785 70.0869 65.0478C70.0233 65.2172 69.9112 65.3642 69.7646 65.4705C69.6179 65.5769 69.4432 65.6379 69.2621 65.646C69.081 65.654 68.9015 65.6089 68.7459 65.516L64.4123 62.9316L60.0787 65.516C59.9351 65.6015 59.7711 65.6478 59.604 65.648ZM78.1733 65.648C78.0344 65.6478 77.8972 65.6164 77.7721 65.5562C77.6469 65.4959 77.537 65.4083 77.4504 65.2999C77.3638 65.1914 77.3027 65.065 77.2718 64.9298C77.2408 64.7946 77.2408 64.6543 77.2716 64.5191L78.3927 59.598L74.5941 56.2748C74.4569 56.1561 74.3578 55.9998 74.3091 55.8253C74.2604 55.6507 74.2642 55.4658 74.3202 55.2934C74.3761 55.1211 74.4816 54.9689 74.6236 54.856C74.7656 54.7431 74.9378 54.6744 75.1187 54.6584L80.144 54.2034L82.1309 49.5648C82.2021 49.3985 82.3207 49.2568 82.4719 49.1571C82.6231 49.0575 82.8004 49.0043 82.9816 49.0043C83.1629 49.0043 83.3401 49.0575 83.4914 49.1571C83.6426 49.2568 83.7612 49.3985 83.8324 49.5648L85.8193 54.2034L90.8446 54.6584C91.0256 54.6739 91.198 54.7422 91.3403 54.8549C91.4826 54.9676 91.5884 55.1197 91.6445 55.2921C91.7006 55.4645 91.7045 55.6495 91.6557 55.8241C91.607 55.9987 91.5077 56.1551 91.3703 56.2737L87.5718 59.5968L88.6917 64.5179C88.7322 64.6942 88.7199 64.8785 88.6563 65.0478C88.5927 65.2172 88.4806 65.3642 88.3339 65.4705C88.1873 65.5769 88.0126 65.6379 87.8314 65.646C87.6503 65.654 87.4708 65.6089 87.3153 65.516L82.9816 62.9316L78.648 65.516C78.5045 65.6015 78.3405 65.6478 78.1733 65.648Z" fill="#FFB629"/>
</g>
<defs>
<clipPath id="clip0_2002_293">
<rect width="159" height="66" fill="white"/>
</clipPath>
</defs>
</svg>
