<svg width="135" height="64" viewBox="0 0 135 64" fill="none" xmlns="http://www.w3.org/2000/svg">
<path d="M32.7981 11.792H20.2881L16.4239 0L12.5481 11.792L0.0380859 11.7806L10.1689 19.0754L6.29309 30.8571L16.4239 23.5726L26.5431 30.8571L22.6789 19.0766L32.7981 11.7931V11.792Z" fill="#00B67A"/>
<path d="M23.5489 21.7429L22.6789 19.0754L16.425 23.5726L23.5489 21.7429Z" fill="#005128"/>
<path d="M40.4341 8H53.2661V10.4503H48.2203V24.2297H45.4465V10.4503H40.4226V8H40.4341ZM52.718 12.4777H55.0903V14.7463H55.1341C55.2126 14.4251 55.358 14.1154 55.5703 13.8183C56.0169 13.1859 56.6332 12.6899 57.3495 12.3863C57.7188 12.2377 58.0995 12.1577 58.4803 12.1577C58.7711 12.1577 58.9834 12.1691 59.0953 12.1806C59.2072 12.192 59.3191 12.2149 59.4415 12.2263V14.7234C59.2598 14.6904 59.077 14.6637 58.8934 14.6434C58.703 14.6206 58.5241 14.6091 58.3453 14.6091C57.9252 14.606 57.5097 14.6971 57.1301 14.8754C56.7505 15.0537 56.4164 15.3147 56.153 15.6389C55.8533 16.0149 55.6257 16.4421 55.4815 16.8994C55.313 17.4023 55.2357 17.976 55.2357 18.6286V24.2183H52.7065V12.4777H52.718ZM71.0653 24.2297H68.5822V22.592H68.5372C68.2235 23.1885 67.7417 23.682 67.1503 24.0126C66.5353 24.3669 65.9088 24.5497 65.2695 24.5497C63.7603 24.5497 62.6641 24.1726 61.9926 23.4046C61.3211 22.6377 60.9853 21.4811 60.9853 19.9349V12.4777H63.5145V19.6823C63.5145 20.7131 63.7049 21.4469 64.0961 21.8709C64.4768 22.2937 65.0249 22.5109 65.7184 22.5109C66.2549 22.5109 66.6911 22.4309 67.0499 22.2594C67.4076 22.088 67.6984 21.8709 67.9107 21.584C68.1345 21.3097 68.2915 20.9657 68.3918 20.576C68.4922 20.1874 68.5372 19.7623 68.5372 19.304V12.4891H71.0653V24.2297ZM75.3726 20.4617C75.4511 21.2171 75.7303 21.744 76.2126 22.0537C76.7041 22.3509 77.2857 22.5109 77.9688 22.5109C78.203 22.5109 78.4718 22.488 78.7741 22.4537C79.0765 22.4194 79.3672 22.3394 79.6245 22.2366C79.8934 22.1337 80.1057 21.9737 80.2845 21.768C80.4518 21.5611 80.5303 21.2971 80.5199 20.9657C80.5192 20.8131 80.4871 20.6623 80.4256 20.5224C80.3641 20.3825 80.2745 20.2565 80.1622 20.152C79.9372 19.9349 79.658 19.7749 79.3107 19.6377C78.9645 19.5109 78.5722 19.3966 78.1257 19.3051C77.678 19.2137 77.2303 19.1109 76.7711 19.0069C76.3015 18.904 75.8434 18.7669 75.4061 18.6183C74.9832 18.4762 74.5865 18.267 74.2315 17.9989C73.8798 17.7411 73.596 17.4032 73.4041 17.0137C73.1918 16.6137 73.0903 16.12 73.0903 15.5246C73.0903 14.8834 73.2472 14.3566 73.5495 13.9211C73.8518 13.4869 74.243 13.1429 74.7022 12.8789C75.1869 12.6113 75.7116 12.4219 76.2564 12.3177C76.8276 12.2149 77.3757 12.1577 77.8903 12.1577C78.4834 12.1577 79.0534 12.2263 79.5911 12.352C80.1276 12.4777 80.6203 12.6834 81.0565 12.9817C81.495 13.2746 81.8649 13.6573 82.1411 14.104C82.433 14.5623 82.6118 15.1234 82.6903 15.7771H80.0491C79.9268 15.1577 79.6568 14.7349 79.2218 14.528C78.7857 14.3109 78.2815 14.208 77.7218 14.208C77.543 14.208 77.3307 14.2194 77.0849 14.2537C76.8391 14.288 76.6153 14.3451 76.3915 14.4251C76.1836 14.5052 75.9963 14.6301 75.8434 14.7909C75.69 14.965 75.6099 15.1908 75.6195 15.4217C75.6195 15.7417 75.7315 15.9943 75.9426 16.1886C76.1561 16.3829 76.4365 16.544 76.7826 16.6811C77.1288 16.8069 77.5211 16.9211 77.9688 17.0137C78.4165 17.1051 78.8745 17.208 79.3441 17.3109C79.8034 17.4137 80.2511 17.552 80.6988 17.7006C81.1258 17.8403 81.5263 18.0496 81.8838 18.32C82.2311 18.5829 82.5103 18.9029 82.7238 19.2926C82.9361 19.6823 83.0468 20.1749 83.0468 20.7474C83.0468 21.4469 82.8911 22.0309 82.5784 22.5234C82.2645 23.0034 81.8618 23.4057 81.3691 23.7029C80.8776 24 80.318 24.2297 79.7134 24.3669C79.1099 24.504 78.5053 24.5726 77.9134 24.5726C77.1865 24.5726 76.5138 24.4926 75.8988 24.3211C75.3232 24.1691 74.781 23.913 74.2995 23.5657C73.8531 23.2261 73.4895 22.7914 73.2357 22.2937C72.9784 21.7909 72.8445 21.1829 72.8226 20.4846H75.3726V20.4617ZM83.7195 12.4777H85.6326V8.94971H88.1595V12.4777H90.443V14.4137H88.1607V20.6903C88.1607 20.9646 88.1722 21.1943 88.1941 21.4011C88.2172 21.5954 88.2726 21.7669 88.3511 21.904C88.4284 22.0411 88.5518 22.1451 88.7203 22.2137C88.8876 22.2823 89.1011 22.3166 89.3907 22.3166C89.5707 22.3166 89.7484 22.3166 89.9284 22.3051C90.1072 22.2937 90.2861 22.2709 90.4649 22.2251V24.2297C90.1857 24.264 89.9053 24.2869 89.648 24.3211C89.3773 24.3538 89.1049 24.3691 88.8322 24.3669C88.1607 24.3669 87.623 24.2983 87.2203 24.1726C86.8176 24.0469 86.4934 23.8526 86.2695 23.6C86.0353 23.3486 85.8888 23.0389 85.7999 22.6606C85.7125 22.2341 85.6639 21.8008 85.6545 21.3657V14.4366H83.7414V12.4777H83.7195ZM92.2326 12.4777H94.6268V14.0697H94.6718C95.0295 13.3829 95.5222 12.9017 96.1603 12.6034C96.8075 12.3032 97.5145 12.1508 98.2291 12.1577C99.1361 12.1577 99.9184 12.3177 100.59 12.6491C101.248 12.9592 101.823 13.4184 102.268 13.9897C102.724 14.5858 103.062 15.2621 103.263 15.9829C103.487 16.7394 103.599 17.552 103.599 18.4114C103.602 19.1847 103.501 19.9549 103.298 20.7017C103.114 21.4059 102.807 22.0728 102.391 22.672C101.99 23.239 101.462 23.7058 100.847 24.0354C100.221 24.3783 99.4938 24.5497 98.6434 24.5497C98.2741 24.5497 97.9049 24.5154 97.5357 24.4469C97.1665 24.3783 96.8088 24.264 96.473 24.1154C95.7899 23.8176 95.2102 23.3276 94.8057 22.7063H94.7607V28.5714H92.2338L92.2326 12.4777ZM101.071 18.3657C101.071 17.8389 101.004 17.3234 100.869 16.8194C100.747 16.3452 100.543 15.8954 100.266 15.4903C100.007 15.1117 99.6671 14.7948 99.2699 14.5623C98.8661 14.3337 98.408 14.208 97.8934 14.208C96.8318 14.208 96.0253 14.5851 95.4888 15.3417C94.9511 16.0971 94.6834 17.1051 94.6834 18.3657C94.6834 18.96 94.7503 19.5109 94.8957 20.0149C95.0411 20.5177 95.2418 20.9543 95.5338 21.32C95.813 21.6869 96.1488 21.9737 96.5399 22.1794C96.9322 22.3966 97.3903 22.4994 97.9049 22.4994C98.4865 22.4994 98.9676 22.3737 99.3703 22.1337C99.7741 21.8937 100.097 21.5726 100.355 21.1943C100.612 20.8057 100.802 20.3703 100.914 19.8777C101.015 19.3851 101.071 18.8811 101.071 18.3657ZM105.535 8H108.062V10.4503H105.535V8ZM105.535 12.4777H108.062V24.2297H105.535V12.4777ZM110.324 8H112.851V24.2286H110.324V8ZM120.605 24.5509C119.687 24.5509 118.87 24.3909 118.155 24.0811C117.463 23.7838 116.842 23.3467 116.331 22.7977C115.825 22.2271 115.441 21.5612 115.201 20.84C114.934 20.0343 114.801 19.1908 114.809 18.3429C114.809 17.4491 114.944 16.624 115.201 15.8686C115.441 15.1469 115.825 14.4806 116.331 13.9097C116.823 13.36 117.438 12.936 118.155 12.6274C118.87 12.3177 119.687 12.1577 120.605 12.1577C121.522 12.1577 122.339 12.3177 123.055 12.6263C123.771 12.936 124.375 13.3714 124.878 13.9097C125.371 14.4594 125.751 15.112 126.008 15.8686C126.265 16.624 126.4 17.4491 126.4 18.3429C126.4 19.2469 126.265 20.0834 126.008 20.8389C125.769 21.5607 125.385 22.227 124.878 22.7977C124.373 23.3525 123.75 23.7906 123.055 24.0811C122.339 24.3897 121.522 24.5509 120.605 24.5509ZM120.605 22.5006C121.164 22.5006 121.657 22.3749 122.07 22.1337C122.484 21.8937 122.82 21.5726 123.089 21.1829C123.36 20.7762 123.56 20.3273 123.681 19.8549C123.804 19.3623 123.871 18.8583 123.871 18.3429C123.871 17.8389 123.804 17.3463 123.681 16.8423C123.567 16.367 123.367 15.9165 123.089 15.5131C122.825 15.1282 122.476 14.8071 122.07 14.5737C121.657 14.3337 121.164 14.208 120.605 14.208C120.045 14.208 119.553 14.3337 119.139 14.5737C118.735 14.8099 118.388 15.1305 118.121 15.5131C117.847 15.9186 117.646 16.3684 117.528 16.8423C117.404 17.3331 117.34 17.8369 117.338 18.3429C117.338 18.8571 117.405 19.3623 117.528 19.8549C117.651 20.3463 117.853 20.7931 118.121 21.1829C118.389 21.5714 118.725 21.8937 119.139 22.1337C119.553 22.3851 120.045 22.5006 120.605 22.5006ZM127.139 12.4777H129.052V8.94971H131.58V12.4777H133.862V14.4137H131.58V20.6903C131.58 20.9646 131.591 21.1943 131.613 21.4011C131.635 21.5954 131.692 21.7669 131.77 21.904C131.849 22.0411 131.971 22.1451 132.14 22.2137C132.307 22.2823 132.519 22.3166 132.81 22.3166C132.99 22.3166 133.169 22.3166 133.348 22.3051C133.526 22.2937 133.705 22.2709 133.884 22.2251V24.2297C133.605 24.264 133.325 24.2869 133.067 24.3211C132.8 24.3554 132.531 24.3669 132.251 24.3669C131.58 24.3669 131.042 24.2983 130.64 24.1726C130.237 24.0469 129.913 23.8526 129.689 23.6C129.455 23.3486 129.309 23.0389 129.219 22.6606C129.132 22.2341 129.083 21.8008 129.074 21.3657V14.4366H127.161V12.4777H127.139Z" fill="#302E2E"/>
<mask id="mask0_2002_281" style="mask-type:luminance" maskUnits="userSpaceOnUse" x="5" y="45" width="99" height="19">
<path d="M5.80737 45.7131H103.884V63.9989H5.80737V45.7131Z" fill="white"/>
</mask>
<g mask="url(#mask0_2002_281)">
<path d="M24.1963 45.7146H5.80859V64.0004H24.1986V45.7146H24.1963ZM44.1186 45.7146H25.7309V64.0004H44.1197L44.1186 45.7146ZM64.0409 45.7146H45.6509V64.0004H64.0409V45.7146ZM83.9632 45.7146H65.5732V64.0004H83.9632V45.7146Z" fill="#00B67A"/>
<path d="M103.884 45.7143H94.6892V64H103.885L103.884 45.7143Z" fill="#DCDCE6"/>
<path d="M94.6892 45.7143H85.4954V64H94.6892V45.7143Z" fill="#00B67A"/>
<path d="M15.0023 58.0377L17.7992 57.3326L18.9681 60.9143L15.0023 58.0377ZM21.4385 53.4091H16.5162L15.0023 48.8L13.4885 53.4091H8.56616L12.5504 56.2663L11.0365 60.8754L15.0219 58.0183L17.4739 56.2663L21.4385 53.4091ZM34.9246 58.0377L37.7204 57.3326L38.8892 60.9143L34.9246 58.0377ZM41.3608 53.4091H36.4373L34.9246 48.8L33.4108 53.4091H28.4885L32.4739 56.2663L30.96 60.8754L34.9442 58.0183L37.3962 56.2663L41.3608 53.4091ZM54.8458 58.0377L57.6427 57.3326L58.8115 60.9143L54.8458 58.0377ZM61.2819 53.4091H56.3596L54.8458 48.8L53.3331 53.4091H48.4096L52.3939 56.2663L50.8812 60.8754L54.8654 58.0183L57.3173 56.2663L61.2819 53.4091ZM74.7681 58.0377L77.565 57.3326L78.7327 60.9143L74.7681 58.0377ZM81.2042 53.4091H76.2808L74.7692 48.8L73.2554 53.4091H68.3331L72.3173 56.2663L70.8035 60.8754L74.7877 58.0183L77.2396 56.2663L81.2042 53.4091ZM94.6892 58.0377L97.4861 57.3326L98.655 60.9143L94.6892 58.0377ZM101.127 53.4091H96.2031L94.6892 48.8L93.1765 53.4091H88.2531L92.2373 56.2663L90.7246 60.8754L94.7088 58.0183L97.1608 56.2663L101.127 53.4091Z" fill="white"/>
</g>
</svg>
