<svg width="512" height="512" viewBox="0 0 512 512" fill="none" xmlns="http://www.w3.org/2000/svg">
<g clip-path="url(#clip0_17_2)">
<path d="M24.6875 -0.4375C25.8257 -0.477461 26.964 -0.517422 28.1367 -0.558594C37.9326 0.857804 44.5713 6.84772 51.2888 13.6876C52.1672 14.5616 53.0455 15.4357 53.9505 16.3363C56.3657 18.7447 58.7692 21.1637 61.1683 23.588C63.7657 26.2071 66.3777 28.8117 68.9879 31.4181C73.5015 35.929 78.0059 40.449 82.504 44.9754C89.0075 51.5196 95.5249 58.0499 102.046 64.5769C112.626 75.1684 123.196 85.771 133.758 96.3806C144.015 106.683 154.277 116.981 164.546 127.271C165.18 127.906 165.813 128.541 166.466 129.195C169.645 132.381 172.824 135.566 176.003 138.751C202.351 165.151 228.682 191.57 255 218C258.182 216.595 260.313 214.933 262.76 212.473C263.496 211.737 264.233 211.001 264.992 210.243C265.795 209.431 266.597 208.619 267.424 207.783C268.282 206.923 269.14 206.063 270.024 205.177C272.405 202.789 274.782 200.397 277.156 198.003C279.718 195.421 282.287 192.846 284.854 190.27C289.304 185.805 293.75 181.336 298.194 176.865C305.221 169.795 312.259 162.735 319.298 155.677C321.707 153.261 324.116 150.845 326.525 148.429C327.127 147.826 327.729 147.222 328.349 146.6C335.201 139.727 342.052 132.851 348.901 125.975C349.528 125.346 350.154 124.718 350.799 124.07C360.939 113.89 371.073 103.704 381.206 93.5165C391.613 83.0536 402.031 72.6003 412.456 62.1551C418.883 55.7147 425.302 49.2664 431.711 42.8077C436.107 38.3789 440.513 33.9593 444.925 29.5467C447.468 27.0025 450.007 24.4545 452.536 21.8953C455.281 19.1159 458.047 16.3563 460.814 13.5982C461.603 12.7931 462.392 11.9881 463.205 11.1586C469.14 5.2924 475.345 0.838379 483.688 -0.664062C491.452 -0.572497 497.702 0.183677 504 5C509.613 10.7999 512.283 16.5791 512.438 24.6875C512.477 25.8257 512.517 26.964 512.559 28.1367C511.142 37.9326 505.152 44.5713 498.312 51.2888C497.001 52.6064 497.001 52.6064 495.664 53.9505C493.255 56.3657 490.836 58.7692 488.412 61.1683C485.793 63.7657 483.188 66.3777 480.582 68.9879C476.071 73.5015 471.551 78.0059 467.025 82.504C460.48 89.0075 453.95 95.5249 447.423 102.046C436.832 112.626 426.229 123.196 415.619 133.758C405.317 144.015 395.019 154.277 384.729 164.546C384.094 165.18 383.459 165.813 382.805 166.466C379.619 169.645 376.434 172.824 373.249 176.003C346.849 202.351 320.43 228.682 294 255C295.405 258.182 297.067 260.313 299.527 262.76C300.263 263.496 300.999 264.233 301.757 264.992C302.569 265.795 303.381 266.597 304.217 267.424C305.077 268.282 305.937 269.14 306.823 270.024C309.211 272.405 311.603 274.782 313.997 277.156C316.579 279.718 319.154 282.287 321.73 284.854C326.195 289.304 330.664 293.75 335.135 298.194C342.205 305.221 349.265 312.259 356.323 319.298C358.739 321.707 361.155 324.116 363.571 326.525C364.174 327.127 364.778 327.729 365.4 328.349C372.273 335.201 379.149 342.052 386.025 348.901C386.968 349.841 386.968 349.841 387.93 350.799C398.11 360.939 408.296 371.073 418.483 381.206C428.946 391.613 439.4 402.031 449.845 412.456C456.285 418.883 462.734 425.302 469.192 431.711C473.621 436.107 478.041 440.513 482.453 444.925C484.997 447.468 487.545 450.007 490.105 452.536C492.884 455.281 495.644 458.047 498.402 460.814C499.207 461.603 500.012 462.392 500.841 463.205C506.708 469.14 511.162 475.345 512.664 483.688C512.572 491.452 511.816 497.702 507 504C501.2 509.613 495.421 512.283 487.312 512.438C486.174 512.477 485.036 512.517 483.863 512.559C474.067 511.142 467.429 505.152 460.711 498.312C459.833 497.438 458.954 496.564 458.049 495.664C455.634 493.255 453.231 490.836 450.832 488.412C448.234 485.793 445.622 483.188 443.012 480.582C438.499 476.071 433.994 471.551 429.496 467.025C422.992 460.48 416.475 453.95 409.954 447.423C399.374 436.832 388.804 426.229 378.242 415.619C367.985 405.317 357.723 395.019 347.454 384.729C346.82 384.094 346.187 383.459 345.534 382.805C342.355 379.619 339.176 376.434 335.997 373.249C309.649 346.849 283.318 320.43 257 294C253.818 295.405 251.687 297.067 249.24 299.527C248.504 300.263 247.767 300.999 247.008 301.757C245.804 302.975 245.804 302.975 244.576 304.217C243.718 305.077 242.86 305.937 241.976 306.823C239.595 309.211 237.218 311.603 234.844 313.997C232.282 316.579 229.713 319.154 227.146 321.73C222.697 326.195 218.25 330.664 213.806 335.135C206.779 342.205 199.741 349.265 192.702 356.323C190.293 358.739 187.884 361.155 185.475 363.571C184.873 364.174 184.271 364.778 183.651 365.4C176.799 372.273 169.948 379.149 163.099 386.025C162.472 386.654 161.846 387.282 161.201 387.93C151.061 398.11 140.927 408.296 130.794 418.483C120.387 428.946 109.969 439.4 99.5442 449.845C93.1168 456.285 86.6976 462.734 80.2886 469.192C75.8926 473.621 71.4874 478.041 67.0751 482.453C64.5318 484.997 61.9926 487.545 59.4644 490.105C56.7185 492.884 53.9533 495.644 51.186 498.402C50.3969 499.207 49.6077 500.012 48.7947 500.841C42.8597 506.708 36.6555 511.162 28.3125 512.664C20.5477 512.572 14.2983 511.816 8 507C2.38721 501.2 -0.283141 495.421 -0.4375 487.312C-0.477461 486.174 -0.517422 485.036 -0.558594 483.863C0.857804 474.067 6.84772 467.429 13.6876 460.711C14.5616 459.833 15.4357 458.954 16.3363 458.049C18.7447 455.634 21.1637 453.231 23.588 450.832C26.2071 448.234 28.8117 445.622 31.4181 443.012C35.929 438.499 40.449 433.994 44.9754 429.496C51.5196 422.992 58.0499 416.475 64.5769 409.954C75.1684 399.374 85.771 388.804 96.3806 378.242C106.683 367.985 116.981 357.723 127.271 347.454C127.906 346.82 128.541 346.187 129.195 345.534C132.381 342.355 135.566 339.176 138.751 335.997C165.151 309.649 191.57 283.318 218 257C216.595 253.818 214.933 251.687 212.473 249.24C211.737 248.504 211.001 247.767 210.243 247.008C209.431 246.205 208.619 245.403 207.783 244.576C206.923 243.718 206.063 242.86 205.177 241.976C202.789 239.595 200.397 237.218 198.003 234.844C195.421 232.282 192.846 229.713 190.27 227.146C185.805 222.697 181.336 218.25 176.865 213.806C169.795 206.779 162.735 199.741 155.677 192.702C153.261 190.293 150.845 187.884 148.429 185.475C147.826 184.873 147.222 184.271 146.6 183.651C139.727 176.799 132.851 169.948 125.975 163.099C125.346 162.472 124.718 161.846 124.07 161.201C113.89 151.061 103.704 140.927 93.5165 130.794C83.0536 120.387 72.6003 109.969 62.1551 99.5442C55.7147 93.1168 49.2664 86.6976 42.8077 80.2886C38.3789 75.8926 33.9593 71.4874 29.5467 67.0751C27.0025 64.5318 24.4545 61.9926 21.8953 59.4644C19.1159 56.7185 16.3563 53.9533 13.5982 51.186C12.3906 50.0023 12.3906 50.0023 11.1586 48.7947C5.2924 42.8597 0.838379 36.6555 -0.664062 28.3125C-0.572497 20.5477 0.183677 14.2983 5 8C10.7999 2.38721 16.5791 -0.283141 24.6875 -0.4375Z" fill="#545C66"/>
</g>
<defs>
<clipPath id="clip0_17_2">
<rect width="512" height="512" fill="white"/>
</clipPath>
</defs>
</svg>
