<svg width="512px" height="512px" viewBox="0 0 512 512" fill="none" xmlns="http://www.w3.org/2000/svg" transform="rotate(0) scale(1, 1)">
<g clip-path="url(#clip0_37_2)">
<mask id="mask0_37_2" style="mask-type:luminance" maskUnits="userSpaceOnUse" x="0" y="0" width="512" height="512">
<path d="M512 0H0V512H512V0Z" fill="#ffffff"/>
</mask>
<g mask="url(#mask0_37_2)">
<path d="M97.0178 88.8597C98.0231 88.8567 99.0284 88.8537 100.064 88.8507C103.431 88.842 106.798 88.8405 110.165 88.839C112.579 88.8343 114.994 88.8293 117.409 88.8239C123.969 88.8108 130.529 88.8043 137.09 88.7999C141.19 88.7971 145.29 88.7929 149.391 88.7884C160.756 88.7762 172.121 88.7659 183.485 88.7625C184.212 88.7623 184.939 88.7621 185.688 88.7619C186.78 88.7615 186.78 88.7615 187.895 88.7612C189.371 88.7608 190.847 88.7603 192.323 88.7599C193.055 88.7596 193.787 88.7594 194.542 88.7592C206.396 88.7552 218.251 88.7378 230.105 88.7145C242.291 88.6907 254.477 88.6783 266.664 88.6772C273.5 88.6762 280.335 88.6706 287.171 88.6523C293.605 88.6353 300.038 88.6337 306.471 88.6425C308.827 88.6433 311.183 88.6389 313.539 88.629C345.466 88.5027 345.466 88.5027 358.223 100.004C365.271 107.368 370.115 116.678 370.137 126.958C370.145 128.837 370.145 128.837 370.152 130.754C370.153 132.151 370.153 133.549 370.154 134.947C370.158 136.426 370.162 137.905 370.167 139.384C370.179 143.459 370.185 147.533 370.189 151.608C370.195 155.999 370.207 160.389 370.218 164.78C370.242 175.391 370.257 186.002 370.27 196.612C370.273 199.609 370.277 202.607 370.281 205.604C370.307 224.216 370.329 242.827 370.341 261.439C370.344 265.751 370.347 270.064 370.35 274.376C370.351 275.448 370.352 276.519 370.352 277.624C370.365 294.978 370.398 312.332 370.44 329.687C370.482 347.505 370.506 365.323 370.511 383.141C370.514 393.145 370.526 403.149 370.559 413.152C370.587 421.674 370.598 430.196 370.587 438.718C370.582 443.063 370.585 447.409 370.609 451.755C370.632 455.739 370.631 459.723 370.612 463.708C370.609 465.144 370.615 466.579 370.63 468.015C370.754 480.607 367.831 491.665 359 501C345.935 513.36 331.134 512.723 314.236 512.647C311.722 512.654 309.208 512.663 306.693 512.674C300.595 512.694 294.497 512.691 288.398 512.676C283.438 512.665 278.478 512.664 273.518 512.669C272.81 512.67 272.102 512.671 271.372 512.671C269.933 512.673 268.494 512.675 267.055 512.676C253.587 512.69 240.12 512.674 226.653 512.647C215.118 512.625 203.583 512.629 192.048 512.652C178.626 512.679 165.204 512.689 151.782 512.674C150.349 512.672 148.915 512.671 147.482 512.669C146.777 512.668 146.072 512.668 145.345 512.667C140.396 512.662 135.447 512.67 130.497 512.681C123.826 512.697 117.155 512.686 110.483 512.657C108.04 512.65 105.597 512.652 103.154 512.663C87.3862 512.728 74.0972 512.445 62 501C52.5203 490.98 50.251 479.331 50.3718 465.957C50.3667 464.469 50.3595 462.981 50.3503 461.493C50.3315 457.434 50.3435 453.377 50.361 449.318C50.3744 444.93 50.3589 440.541 50.3472 436.153C50.3288 427.568 50.3373 418.984 50.3553 410.4C50.3693 403.421 50.3732 396.443 50.3698 389.465C50.3693 388.471 50.3689 387.476 50.3684 386.451C50.3673 384.431 50.3663 382.41 50.3652 380.389C50.3566 362.538 50.3733 344.687 50.403 326.835C50.4319 309.525 50.4389 292.214 50.4235 274.904C50.4068 256.037 50.4028 237.171 50.4203 218.305C50.4221 216.292 50.4239 214.28 50.4258 212.267C50.4267 211.277 50.4276 210.287 50.4285 209.267C50.4341 202.298 50.4308 195.33 50.4242 188.361C50.4165 179.867 50.4233 171.374 50.4484 162.88C50.4609 158.548 50.467 154.217 50.4558 149.886C50.4458 145.917 50.4543 141.949 50.4774 137.98C50.4826 136.548 50.4811 135.116 50.472 133.684C50.3948 120.315 53.7465 110.083 62.7421 100.059C72.3709 90.8094 84.2037 88.8478 97.0178 88.8597ZM82.125 122.5C79.7026 125.73 79.8731 128.919 79.8685 132.79C79.8647 134.005 79.8608 135.22 79.8569 136.472C79.8577 137.828 79.8585 139.183 79.8595 140.539C79.8569 141.973 79.8539 143.407 79.8505 144.842C79.8424 148.793 79.8407 152.745 79.8399 156.696C79.8381 160.954 79.8305 165.211 79.8238 169.469C79.8102 178.783 79.8042 188.097 79.7998 197.411C79.797 203.224 79.7928 209.036 79.7883 214.849C79.7761 230.936 79.7658 247.022 79.7624 263.108C79.7622 264.138 79.762 265.168 79.7617 266.229C79.7615 267.261 79.7613 268.294 79.7611 269.357C79.7606 271.449 79.7602 273.541 79.7597 275.633C79.7595 276.671 79.7593 277.709 79.7591 278.778C79.7551 295.6 79.7376 312.423 79.7144 329.245C79.6907 346.506 79.6782 363.767 79.677 381.028C79.6761 390.724 79.6703 400.419 79.6522 410.115C79.6368 418.369 79.6317 426.624 79.6399 434.878C79.6439 439.091 79.6429 443.304 79.6289 447.518C79.6162 451.373 79.6173 455.228 79.6295 459.083C79.6314 460.48 79.6283 461.876 79.6196 463.272C79.6086 465.168 79.6178 467.063 79.628 468.958C79.6274 470.012 79.6268 471.066 79.6262 472.151C80.0606 475.462 81.0363 477.32 83 480C88.1065 483.556 92.9188 483.424 98.9063 483.381C100.396 483.388 100.396 483.388 101.916 483.395C105.242 483.407 108.567 483.398 111.893 483.388C114.278 483.392 116.663 483.398 119.048 483.404C124.853 483.416 130.657 483.415 136.462 483.406C141.18 483.399 145.898 483.398 150.616 483.401C151.288 483.402 151.96 483.402 152.652 483.403C154.017 483.404 155.382 483.405 156.747 483.406C169.541 483.414 182.336 483.404 195.131 483.388C206.106 483.375 217.081 483.377 228.056 483.391C240.806 483.407 253.555 483.413 266.304 483.404C267.664 483.403 269.024 483.402 270.384 483.401C271.053 483.401 271.722 483.401 272.412 483.4C277.123 483.397 281.835 483.402 286.546 483.409C292.889 483.418 299.232 483.412 305.576 483.394C307.905 483.39 310.234 483.391 312.563 483.398C315.74 483.406 318.917 483.396 322.094 483.381C323.018 483.388 323.941 483.394 324.893 483.401C329.954 483.355 333.754 483.06 338 480C340.503 475.822 341.375 472.72 341.377 467.875C341.385 466.661 341.393 465.448 341.401 464.198C341.395 462.86 341.388 461.521 341.381 460.183C341.384 458.755 341.389 457.327 341.395 455.899C341.408 451.979 341.401 448.06 341.392 444.14C341.385 439.911 341.396 435.682 341.404 431.452C341.417 423.169 341.415 414.886 341.406 406.603C341.399 399.872 341.398 393.141 341.401 386.409C341.402 385.452 341.402 384.494 341.403 383.507C341.404 381.562 341.405 379.616 341.406 377.67C341.414 359.423 341.404 341.176 341.388 322.929C341.375 307.27 341.377 291.61 341.391 275.95C341.407 257.769 341.413 239.587 341.404 221.406C341.403 219.467 341.402 217.529 341.401 215.591C341.401 214.16 341.401 214.16 341.4 212.7C341.397 205.977 341.402 199.253 341.409 192.529C341.417 184.336 341.415 176.142 341.399 167.949C341.391 163.768 341.388 159.587 341.398 155.406C341.407 151.58 341.402 147.753 341.386 143.926C341.383 142.541 341.384 141.156 341.392 139.772C341.401 137.889 341.39 136.007 341.377 134.125C341.377 133.08 341.377 132.034 341.376 130.957C340.821 126.595 339.284 123.201 336.062 120.187C332.715 118.26 329.616 117.875 325.795 117.869C324.541 117.863 324.541 117.863 323.261 117.857C322.347 117.858 321.434 117.859 320.493 117.86C319.518 117.857 318.544 117.854 317.54 117.851C314.266 117.842 310.992 117.84 307.717 117.839C305.374 117.834 303.03 117.829 300.686 117.824C294.312 117.811 287.938 117.804 281.564 117.8C277.583 117.797 273.602 117.793 269.622 117.788C258.597 117.776 247.573 117.766 236.549 117.762C235.844 117.762 235.138 117.762 234.411 117.762C233.704 117.762 232.997 117.761 232.269 117.761C230.836 117.761 229.404 117.76 227.971 117.76C227.26 117.76 226.55 117.759 225.817 117.759C214.302 117.755 202.787 117.738 191.272 117.714C179.446 117.691 167.621 117.678 155.795 117.677C149.156 117.676 142.518 117.67 135.88 117.652C129.636 117.636 123.392 117.634 117.148 117.642C114.857 117.643 112.565 117.639 110.273 117.629C107.145 117.616 104.017 117.622 100.888 117.633C99.528 117.62 99.528 117.62 98.1403 117.608C91.9654 117.656 87.0906 118.527 82.125 122.5Z" fill="#585858"/>
<path d="M197.764 -0.646948C200.278 -0.65373 202.793 -0.662637 205.307 -0.673498C211.405 -0.69387 217.504 -0.690973 223.602 -0.676435C228.562 -0.665105 233.522 -0.663628 238.482 -0.669054C239.19 -0.66982 239.899 -0.670586 240.628 -0.671376C242.067 -0.672975 243.506 -0.674596 244.945 -0.676239C258.413 -0.690468 271.88 -0.674148 285.348 -0.647237C296.882 -0.624901 308.417 -0.628782 319.952 -0.651831C333.374 -0.678639 346.796 -0.689095 360.218 -0.673769C361.651 -0.672177 363.085 -0.670605 364.518 -0.669054C365.576 -0.667897 365.576 -0.667897 366.655 -0.666717C371.604 -0.662415 376.554 -0.669654 381.503 -0.681452C388.175 -0.697007 394.846 -0.685802 401.517 -0.656981C403.96 -0.650391 406.403 -0.652231 408.846 -0.663294C424.614 -0.728102 437.903 -0.444781 450 11C459.48 21.0201 461.749 32.6686 461.628 46.0428C461.634 47.5309 461.641 49.0191 461.65 50.5072C461.669 54.5656 461.657 58.6233 461.639 62.6817C461.626 67.0703 461.641 71.4588 461.653 75.8474C461.671 84.4318 461.663 93.016 461.645 101.6C461.631 108.579 461.627 115.557 461.63 122.535C461.631 123.529 461.631 124.524 461.632 125.549C461.633 127.569 461.634 129.59 461.635 131.611C461.644 149.462 461.627 167.313 461.597 185.165C461.568 202.475 461.561 219.786 461.577 237.096C461.593 255.963 461.597 274.829 461.58 293.695C461.578 295.708 461.576 297.72 461.574 299.733C461.574 300.723 461.573 301.713 461.572 302.733C461.566 309.702 461.569 316.67 461.576 323.639C461.584 332.133 461.577 340.626 461.552 349.12C461.539 353.452 461.533 357.783 461.544 362.114C461.554 366.083 461.546 370.051 461.523 374.02C461.518 375.452 461.519 376.884 461.528 378.316C461.605 391.685 458.254 401.917 449.258 411.941C441.136 419.743 430.122 423.407 418.953 423.215C414.435 422.718 411.664 420.735 408.688 417.438C405.581 412.951 405.367 409.374 406 404C407.727 399.091 410.393 396.337 415 394C418.04 393.245 421.077 392.685 424.16 392.137C427.138 390.945 428.485 389.859 430.177 387.146C432.115 382.094 431.537 376.438 431.495 371.101C431.498 369.664 431.503 368.227 431.509 366.79C431.522 362.845 431.51 358.901 431.494 354.956C431.481 350.7 431.491 346.445 431.498 342.189C431.508 333.854 431.496 325.519 431.478 317.184C431.457 307.481 431.457 297.777 431.458 288.074C431.459 270.763 431.441 253.452 431.412 236.14C431.384 219.337 431.37 202.533 431.371 185.729C431.371 184.694 431.371 183.659 431.371 182.593C431.371 181.043 431.371 181.043 431.371 179.462C431.373 160.339 431.361 141.216 431.343 122.093C431.337 115.326 431.335 108.56 431.334 101.793C431.333 93.5501 431.324 85.3067 431.305 77.0633C431.296 72.8562 431.29 68.6491 431.293 64.4419C431.295 60.5923 431.288 56.7429 431.273 52.8934C431.27 51.4991 431.269 50.1049 431.273 48.7106C431.277 46.8182 431.268 44.9257 431.258 43.0333C431.255 41.4553 431.255 41.4553 431.253 39.8455C430.986 36.843 430.353 34.6863 429 32C424.571 29.1404 419.22 29.7218 414.132 29.746C413.13 29.7429 412.129 29.7398 411.098 29.7366C407.739 29.7286 404.38 29.7349 401.022 29.7412C398.615 29.7385 396.209 29.7349 393.803 29.7306C387.943 29.7224 382.083 29.7236 376.223 29.7294C371.461 29.7339 366.698 29.7345 361.936 29.7324C361.258 29.7321 360.58 29.7318 359.882 29.7314C358.505 29.7308 357.128 29.7302 355.751 29.7295C342.839 29.7238 329.927 29.7303 317.015 29.7411C305.936 29.75 294.857 29.7485 283.778 29.7393C270.912 29.7286 258.046 29.7243 245.18 29.7305C243.808 29.7311 242.437 29.7318 241.065 29.7324C240.39 29.7327 239.715 29.733 239.019 29.7333C234.262 29.735 229.506 29.7321 224.749 29.7274C218.347 29.7212 211.945 29.7256 205.543 29.7372C203.19 29.7398 200.838 29.7391 198.486 29.7347C195.28 29.7292 192.075 29.736 188.869 29.746C187.934 29.7416 186.998 29.7371 186.035 29.7325C179.785 29.7653 179.785 29.7653 174 32C172.58 34.3919 172.064 36.6085 171.617 39.3398C170.615 45.3998 169.493 48.7211 165 53C160.743 55.5455 156.846 55.6619 152 55C147.129 53.2702 144.225 50.6569 142 46C140.356 34.2602 143.107 24.3443 149.813 14.625C162.567 -0.970563 179.204 -0.731005 197.764 -0.646948Z" fill="#585858"/>
</g>
</g>
<defs>
<clipPath id="clip0_37_2">
<rect width="512" height="512" fill="#ffffff"/>
</clipPath>
</defs>
</svg>