<svg width="16" height="16" viewBox="0 0 16 16" fill="none" xmlns="http://www.w3.org/2000/svg">
<path d="M10.5714 7.35714H8.64286V5.42857C8.64286 5.19192 8.45094 5 8.21429 5H7.78571C7.54906 5 7.35714 5.19192 7.35714 5.42857V7.35714H5.42857C5.19192 7.35714 5 7.54906 5 7.78571V8.21429C5 8.45094 5.19192 8.64286 5.42857 8.64286H7.35714V10.5714C7.35714 10.8081 7.54906 11 7.78571 11H8.21429C8.45094 11 8.64286 10.8081 8.64286 10.5714V8.64286H10.5714C10.8081 8.64286 11 8.45094 11 8.21429V7.78571C11 7.54906 10.8081 7.35714 10.5714 7.35714Z" fill="#00517C"/>
<rect x="0.5" y="0.5" width="15" height="15" rx="7.5" stroke="#00517C"/>
</svg>
