<svg width="19" height="22" viewBox="0 0 19 22" fill="none" xmlns="http://www.w3.org/2000/svg">
<path d="M1.35714 19.9375C1.35714 20.4845 1.57162 21.0091 1.95339 21.3959C2.33516 21.7827 2.85295 22 3.39286 22H15.6071C16.147 22 16.6648 21.7827 17.0466 21.3959C17.4284 21.0091 17.6429 20.4845 17.6429 19.9375V5.50001H1.35714V19.9375ZM12.8929 8.9375C12.8929 8.75517 12.9643 8.5803 13.0916 8.45137C13.2189 8.32244 13.3915 8.25 13.5714 8.25C13.7514 8.25 13.924 8.32244 14.0513 8.45137C14.1785 8.5803 14.25 8.75517 14.25 8.9375V18.5625C14.25 18.7448 14.1785 18.9197 14.0513 19.0486C13.924 19.1776 13.7514 19.25 13.5714 19.25C13.3915 19.25 13.2189 19.1776 13.0916 19.0486C12.9643 18.9197 12.8929 18.7448 12.8929 18.5625V8.9375ZM8.82143 8.9375C8.82143 8.75517 8.89292 8.5803 9.02018 8.45137C9.14743 8.32244 9.32003 8.25 9.5 8.25C9.67997 8.25 9.85256 8.32244 9.97982 8.45137C10.1071 8.5803 10.1786 8.75517 10.1786 8.9375V18.5625C10.1786 18.7448 10.1071 18.9197 9.97982 19.0486C9.85256 19.1776 9.67997 19.25 9.5 19.25C9.32003 19.25 9.14743 19.1776 9.02018 19.0486C8.89292 18.9197 8.82143 18.7448 8.82143 18.5625V8.9375ZM4.75 8.9375C4.75 8.75517 4.82149 8.5803 4.94875 8.45137C5.07601 8.32244 5.2486 8.25 5.42857 8.25C5.60854 8.25 5.78114 8.32244 5.90839 8.45137C6.03565 8.5803 6.10714 8.75517 6.10714 8.9375V18.5625C6.10714 18.7448 6.03565 18.9197 5.90839 19.0486C5.78114 19.1776 5.60854 19.25 5.42857 19.25C5.2486 19.25 5.07601 19.1776 4.94875 19.0486C4.82149 18.9197 4.75 18.7448 4.75 18.5625V8.9375ZM18.3214 1.37501H13.2321L12.8335 0.571492C12.749 0.399709 12.6189 0.255209 12.4579 0.154247C12.2968 0.0532863 12.1111 -0.000130108 11.9217 7.53359e-06H7.07411C6.88512 -0.000728544 6.69974 0.0524887 6.53923 0.153562C6.37871 0.254636 6.24954 0.399477 6.16652 0.571492L5.76786 1.37501H0.678571C0.498603 1.37501 0.326006 1.44744 0.198749 1.57637C0.0714922 1.7053 0 1.88017 0 2.06251L0 3.43751C0 3.61984 0.0714922 3.79471 0.198749 3.92364C0.326006 4.05257 0.498603 4.12501 0.678571 4.12501H18.3214C18.5014 4.12501 18.674 4.05257 18.8013 3.92364C18.9285 3.79471 19 3.61984 19 3.43751V2.06251C19 1.88017 18.9285 1.7053 18.8013 1.57637C18.674 1.44744 18.5014 1.37501 18.3214 1.37501Z" fill="#00517C"/>
</svg>
