<svg width="512" height="512" viewBox="0 0 512 512" fill="none" xmlns="http://www.w3.org/2000/svg">
<path d="M250 51C254.29 51 258.58 51 263 51C263 68.16 263 85.32 263 103C258.71 103 254.42 103 250 103C250 85.84 250 68.68 250 51Z" fill="#FF5C35"/>
<path d="M209 56C216.776 84.0228 216.776 84.0228 220 96.125C220.207 96.8924 220.414 97.6598 220.628 98.4504C221.404 101.39 222 103.945 222 107C220.564 107.506 219.126 108.004 217.688 108.5C216.887 108.778 216.086 109.057 215.262 109.344C213 110 213 110 210 110C208.143 103.22 206.292 96.4393 204.446 89.657C203.817 87.349 203.186 85.0414 202.554 82.7341C201.647 79.4214 200.745 76.1073 199.844 72.793C199.559 71.7585 199.275 70.7241 198.982 69.6582C198.722 68.6975 198.462 67.7367 198.193 66.7468C197.847 65.4777 197.847 65.4777 197.494 64.183C197 62 197 62 197 59C198.624 58.4966 200.249 57.9974 201.875 57.5C202.78 57.2216 203.685 56.9431 204.617 56.6562C207 56 207 56 209 56Z" fill="#FF5C35"/>
<path d="M159 75C159.438 75.7697 159.875 76.5393 160.326 77.3323C161.991 80.2598 163.658 83.1865 165.326 86.1125C166.065 87.4088 166.803 88.7053 167.54 90.0022C172.704 99.099 172.704 99.099 178.102 108.059C178.528 108.745 178.954 109.431 179.393 110.138C180.481 111.87 181.586 113.592 182.691 115.312C184 118 184 118 183.891 120.23C182.355 123.281 179.942 124.442 177 126C174.995 125.902 174.995 125.902 173 125C171.419 122.953 171.419 122.953 169.898 120.25C169.33 119.256 168.762 118.263 168.176 117.239C167.582 116.17 166.987 115.101 166.375 114C165.131 111.807 163.886 109.614 162.641 107.422C162.028 106.335 161.415 105.247 160.783 104.127C159.18 101.315 157.537 98.5342 155.859 95.7656C155.161 94.6093 155.161 94.6093 154.448 93.4297C153.586 92.0095 152.719 90.5927 151.845 89.1797C149.782 85.7446 149 84.1156 149 80C150.68 78.5156 150.68 78.5156 152.875 77.25C153.594 76.822 154.314 76.3941 155.055 75.9531C157 75 157 75 159 75Z" fill="#FF5C35"/>
<path d="M114 107C117.016 108.355 119.144 109.881 121.499 112.193C122.163 112.84 122.826 113.488 123.51 114.155C124.215 114.854 124.919 115.553 125.645 116.273C126.374 116.994 127.103 117.714 127.854 118.456C129.391 119.978 130.925 121.503 132.456 123.03C134.809 125.372 137.18 127.694 139.553 130.016C141.043 131.496 142.532 132.978 144.02 134.461C144.734 135.156 145.448 135.851 146.185 136.567C146.832 137.221 147.48 137.875 148.148 138.548C148.724 139.12 149.3 139.691 149.894 140.28C151 142 151 142 150.823 144.04C149.52 147.143 147.581 148.899 145 151C141.521 150.712 139.821 149.189 137.425 146.765C136.744 146.085 136.064 145.404 135.363 144.703C134.64 143.964 133.917 143.226 133.172 142.465C132.423 141.712 131.674 140.958 130.902 140.182C128.511 137.774 126.13 135.356 123.75 132.938C122.131 131.303 120.511 129.67 118.891 128.037C114.919 124.033 110.956 120.02 107 116C108.722 112.235 110.992 109.849 114 107Z" fill="#FF5C35"/>
<path d="M80 149C84.0907 150.25 87.6 151.757 91.2734 153.941C92.2563 154.521 93.2393 155.101 94.252 155.699C95.7979 156.621 95.7979 156.621 97.375 157.562C99.5176 158.828 101.661 160.092 103.805 161.355C104.854 161.975 105.903 162.594 106.983 163.232C111.129 165.662 115.306 168.03 119.5 170.375C120.17 170.75 120.839 171.124 121.529 171.51C123.018 172.342 124.509 173.171 126 174C124.617 177.578 123.044 180.748 121 184C117.051 182.531 113.499 180.678 109.844 178.586C109.26 178.253 108.677 177.919 108.075 177.576C106.841 176.87 105.607 176.162 104.374 175.453C102.535 174.395 100.694 173.344 98.8516 172.293C90.8003 167.686 82.871 162.909 75 158C76.65 155.03 78.3 152.06 80 149Z" fill="#FF5C35"/>
<path d="M59 198C70.7497 200.698 82.4173 203.634 94.0625 206.75C95.623 207.166 97.1835 207.581 98.7441 207.996C102.497 208.995 106.249 209.997 110 211C109.01 214.3 108.02 217.6 107 221C96.2023 219.336 85.8163 216.314 75.3125 213.375C73.4357 212.854 71.5587 212.333 69.6816 211.812C65.1197 210.547 60.5594 209.275 56 208C56.99 204.7 57.98 201.4 59 198Z" fill="#FF5C35"/>
<path d="M51 251C68.16 251 85.32 251 103 251C103 254.3 103 257.6 103 261C85.84 261 68.68 261 51 261C51 257.7 51 254.4 51 251Z" fill="#FF5C35"/>
<path d="M145.102 362.24C147.397 363.159 148.573 363.972 150 366C149.587 369.48 148.214 371.153 145.765 373.575C145.085 374.256 144.404 374.936 143.703 375.637C142.964 376.36 142.226 377.083 141.465 377.828C140.712 378.577 139.958 379.326 139.182 380.098C136.774 382.489 134.356 384.87 131.938 387.25C130.303 388.869 128.67 390.489 127.037 392.109C123.033 396.081 119.02 400.044 115 404C112.139 402.641 110.141 401.355 108 399C109.355 395.984 110.881 393.856 113.193 391.501C113.84 390.837 114.488 390.173 115.155 389.49C115.854 388.785 116.553 388.081 117.273 387.355C117.994 386.626 118.714 385.897 119.456 385.146C120.978 383.609 122.503 382.075 124.03 380.544C126.372 378.191 128.694 375.82 131.016 373.447C132.496 371.957 133.978 370.468 135.461 368.98C136.156 368.266 136.851 367.552 137.567 366.815C138.221 366.168 138.875 365.52 139.548 364.852C140.12 364.276 140.691 363.699 141.28 363.106C143 362 143 362 145.102 362.24Z" fill="#FF5C35"/>
<path d="M122.281 329.414C124.672 331.62 125.192 333.901 126 337C124.979 337.559 123.958 338.119 122.906 338.695C112.488 344.433 102.192 350.351 91.9746 356.44C90.9956 357.018 90.0165 357.596 89.0078 358.191C88.1379 358.709 87.2679 359.227 86.3716 359.76C84.2131 360.889 82.3795 361.542 80 362C76 356.25 76 356.25 76 354C77.8541 352.939 79.7083 351.877 81.5625 350.816C82.1413 350.485 82.7202 350.154 83.3165 349.812C86.4987 347.991 89.6825 346.173 92.8691 344.36C98.3632 341.232 103.854 338.106 109.281 334.863C110.012 334.433 110.743 334.002 111.496 333.558C112.798 332.789 114.093 332.008 115.379 331.213C117.871 329.756 119.38 328.887 122.281 329.414Z" fill="#FF5C35"/>
<path d="M108 291C108.66 293.97 109.32 296.94 110 300C104.096 301.711 98.186 303.403 92.2705 305.075C90.0244 305.71 87.779 306.348 85.5342 306.987C82.026 307.983 78.5137 308.962 75 309.938C73.8851 310.256 72.7702 310.574 71.6216 310.903C70.5708 311.191 69.5201 311.48 68.4375 311.777C67.5081 312.038 66.5787 312.298 65.6211 312.566C62.7732 313.038 60.7708 312.739 58 312C57.67 309.69 57.34 307.38 57 305C62.8214 302.717 68.6383 300.902 74.6797 299.301C76.0206 298.941 76.0206 298.941 77.3887 298.574C79.2622 298.072 81.1362 297.572 83.0107 297.074C85.8887 296.309 88.7648 295.537 91.6406 294.764C93.466 294.276 95.2916 293.788 97.1172 293.301C97.9786 293.07 98.84 292.838 99.7275 292.6C105.769 291 105.769 291 108 291Z" fill="#FF5C35"/>
<path d="M175 387C177.938 387.812 177.938 387.812 181 389C182 392 182 392 180.896 394.549C180.326 395.557 179.756 396.564 179.168 397.602C178.539 398.725 177.909 399.848 177.26 401.005C176.57 402.212 175.879 403.418 175.188 404.625C174.497 405.848 173.807 407.071 173.117 408.294C167.861 417.597 162.494 426.836 157 436C154.274 435.139 152.408 434.436 150.438 432.328C149.717 428.491 151.999 425.867 154 422.75C154.928 421.244 155.853 419.738 156.778 418.23C157.289 417.406 157.801 416.581 158.328 415.732C161.494 410.56 164.517 405.305 167.563 400.062C168.182 399.002 168.802 397.941 169.44 396.849C172.327 391.983 172.327 391.983 175 387Z" fill="#FF5C35"/>
<path d="M213 403C215.31 403.33 217.62 403.66 220 404C219.38 410.092 218.145 415.779 216.531 421.68C216.291 422.574 216.051 423.468 215.803 424.389C215.298 426.263 214.79 428.137 214.28 430.011C213.497 432.886 212.722 435.763 211.949 438.641C211.456 440.466 210.963 442.292 210.469 444.117C210.236 444.979 210.004 445.84 209.765 446.728C209.548 447.522 209.331 448.317 209.107 449.136C208.917 449.836 208.727 450.536 208.531 451.257C208 453 208 453 207 455C204.69 454.67 202.38 454.34 200 454C200.62 447.908 201.855 442.221 203.469 436.32C203.709 435.426 203.949 434.532 204.197 433.611C204.702 431.737 205.21 429.863 205.72 427.989C206.503 425.114 207.278 422.237 208.051 419.359C208.544 417.534 209.037 415.708 209.531 413.883C209.764 413.021 209.996 412.16 210.235 411.272C210.561 410.08 210.561 410.08 210.893 408.864C211.083 408.164 211.273 407.464 211.469 406.743C212 405 212 405 213 403Z" fill="#FF5C35"/>
<path d="M253 409C255.31 409 257.62 409 260 409C260 426.16 260 443.32 260 461C257.69 461 255.38 461 253 461C253 443.84 253 426.68 253 409Z" fill="#FF5C35"/>
<path d="M299 403C302.635 415.208 306.19 427.433 309.438 439.75C309.696 440.719 309.955 441.688 310.221 442.686C310.456 443.589 310.691 444.492 310.934 445.422C311.244 446.607 311.244 446.607 311.56 447.815C312 450 312 450 312 454C309.03 454.495 309.03 454.495 306 455C304.63 450.075 303.261 445.149 301.892 440.223C301.428 438.552 300.963 436.882 300.499 435.211C299.392 431.23 298.287 427.249 297.185 423.267C296.469 420.681 295.743 418.099 295.006 415.518C294.595 414.065 294.595 414.065 294.176 412.582C293.944 411.776 293.713 410.97 293.474 410.14C293 408 293 408 293 404C296 403 296 403 299 403Z" fill="#FF5C35"/>
<path d="M365 363C368.478 363.445 370.149 364.781 372.575 367.235C373.256 367.915 373.936 368.596 374.637 369.297C375.36 370.036 376.083 370.774 376.828 371.535C377.577 372.288 378.326 373.042 379.098 373.818C381.489 376.226 383.87 378.644 386.25 381.062C387.869 382.697 389.489 384.33 391.109 385.963C395.081 389.967 399.044 393.98 403 398C402.34 399.32 401.68 400.64 401 402C396.567 402 396.345 401.848 393.409 398.942C392.383 397.941 392.383 397.941 391.337 396.919C390.611 396.188 389.885 395.456 389.137 394.703C388.01 393.585 388.01 393.585 386.86 392.445C385.274 390.866 383.693 389.282 382.117 387.693C379.695 385.258 377.25 382.847 374.803 380.438C373.267 378.902 371.732 377.366 370.199 375.828C369.095 374.744 369.095 374.744 367.968 373.637C367.3 372.957 366.632 372.276 365.944 371.575C365.35 370.98 364.756 370.385 364.144 369.772C363 368 363 368 363.254 365.839C364 364 364 364 365 363Z" fill="#FF5C35"/>
<path d="M336 388C336.438 388.77 336.875 389.539 337.326 390.332C338.991 393.26 340.658 396.187 342.326 399.113C343.065 400.409 343.803 401.705 344.54 403.001C349.422 411.579 354.394 420.08 359.691 428.41C360.123 429.265 360.555 430.119 361 431C360.67 431.99 360.34 432.98 360 434C357.938 434.688 357.938 434.688 356 435C351.212 428.115 347.057 420.96 343 413.625C342.41 412.565 341.819 411.506 341.211 410.414C337.436 403.63 333.707 396.821 330 390C333 388 333 388 336 388Z" fill="#FF5C35"/>
<path d="M389 331C393.278 332.297 396.927 333.939 400.781 336.195C401.865 336.826 402.948 337.456 404.065 338.105C405.199 338.772 406.332 339.438 407.5 340.125C408.669 340.807 409.839 341.489 411.009 342.17C413.301 343.505 415.592 344.842 417.882 346.181C421.783 348.457 425.7 350.704 429.625 352.938C430.69 353.545 431.755 354.152 432.852 354.777C433.561 355.181 434.27 355.584 435 356C434.67 357.32 434.34 358.64 434 360C430.199 359.414 427.407 358.32 424.078 356.41C422.675 355.611 422.675 355.611 421.243 354.797C420.255 354.224 419.268 353.652 418.25 353.062C417.235 352.479 416.221 351.896 415.175 351.295C413.108 350.105 411.042 348.912 408.978 347.716C406.244 346.141 403.497 344.593 400.742 343.055C399.203 342.183 397.664 341.31 396.125 340.438C395.412 340.045 394.7 339.653 393.966 339.248C389.178 336.492 389.178 336.492 388.25 333.93C388.167 333.293 388.085 332.656 388 332C388.33 331.67 388.66 331.34 389 331Z" fill="#FF5C35"/>
<path d="M405 293C411.48 294.666 417.957 296.339 424.434 298.017C426.637 298.587 428.841 299.155 431.045 299.722C434.213 300.537 437.38 301.358 440.547 302.18C441.532 302.432 442.518 302.684 443.533 302.944C444.454 303.184 445.375 303.424 446.323 303.671C447.132 303.88 447.94 304.089 448.773 304.304C450.998 304.999 452.949 305.899 455 307C454.67 308.32 454.34 309.64 454 311C437.167 307.325 420.601 302.588 404 298C404.33 296.35 404.66 294.7 405 293Z" fill="#FF5C35"/>
<path d="M409 254C426.16 254 443.32 254 461 254C461 255.32 461 256.64 461 258C443.84 258 426.68 258 409 258C409 256.68 409 255.36 409 254Z" fill="#FF5C35"/>
<path d="M454 201C454.495 202.485 454.495 202.485 455 204C448.776 206.153 442.518 208.014 436.152 209.699C435.255 209.939 434.358 210.179 433.433 210.426C430.602 211.183 427.77 211.935 424.938 212.688C423.003 213.204 421.069 213.72 419.135 214.236C414.424 215.494 409.712 216.748 405 218C404.67 216.68 404.34 215.36 404 214C410.798 212.145 417.598 210.294 424.398 208.446C426.713 207.816 429.027 207.186 431.341 206.554C434.662 205.648 437.983 204.746 441.305 203.844C442.864 203.417 442.864 203.417 444.455 202.982C445.416 202.722 446.377 202.462 447.367 202.193C448.215 201.962 449.063 201.731 449.937 201.494C452 201 452 201 454 201Z" fill="#FF5C35"/>
<path d="M431 152C431.99 152.33 432.98 152.66 434 153C432.722 156.834 431.525 157.106 428.031 159.004C426.992 159.575 425.954 160.147 424.883 160.736C423.767 161.339 422.65 161.941 421.5 162.562C419.215 163.815 416.931 165.069 414.648 166.324C413.52 166.943 412.392 167.563 411.229 168.201C406.093 171.062 401.051 174.078 396.041 177.155C391.32 180 391.32 180 388 180C388 179.01 388 178.02 388 177C388.77 176.562 389.539 176.125 390.332 175.674C393.26 174.009 396.187 172.342 399.113 170.674C400.409 169.935 401.705 169.197 403.001 168.46C411.579 163.578 420.08 158.606 428.41 153.309C429.265 152.877 430.119 152.445 431 152Z" fill="#FF5C35"/>
<path d="M400 111C400.66 111.33 401.32 111.66 402 112C390.12 123.88 378.24 135.76 366 148C365.34 147.67 364.68 147.34 364 147C375.88 135.12 387.76 123.24 400 111Z" fill="#FF5C35"/>
<path d="M355 83C355.33 83.66 355.66 84.32 356 85C354.848 87.531 354.848 87.531 353.062 90.7148C352.745 91.2852 352.427 91.8556 352.1 92.4433C351.421 93.6584 350.738 94.8713 350.051 96.0823C349.024 97.8946 348.009 99.7131 346.996 101.533C342.904 108.846 338.586 115.985 334 123C333.34 122.67 332.68 122.34 332 122C348.257 93.6421 348.257 93.6421 355 83Z" fill="#FF5C35"/>
<path d="M357 79C357.66 79.33 358.32 79.66 359 80C358.01 80.99 357.02 81.98 356 83C356.33 81.68 356.66 80.36 357 79Z" fill="#FF5C35"/>
</svg>
