<svg width="512" height="512" viewBox="0 0 512 512" fill="none" xmlns="http://www.w3.org/2000/svg">
<g clip-path="url(#clip0_34_54)">
<path d="M139 237C140.633 238.348 140.633 238.348 142.125 240.062C159.181 258.035 186.742 270.177 211.391 271.238C239.391 271.884 266.368 262.539 287.25 243.562C288.081 242.759 288.911 241.956 289.766 241.129C293.872 237.217 293.872 237.217 296 236C300.411 236.186 304.122 238.375 307.938 240.437C308.592 240.789 309.246 241.141 309.919 241.504C325.222 249.952 339.799 261.515 352 274C352 274.66 352 275.32 352 276C351.383 276.16 350.766 276.319 350.131 276.484C312.93 286.282 283.072 304.493 263 338C252.986 355.517 247.037 374.793 246 395C245.948 395.983 245.895 396.967 245.84 397.98C245.155 423.388 252.363 448.11 265.68 469.672C267 472 267 472 267 474C264.209 474.483 261.418 474.962 258.625 475.437C257.851 475.572 257.076 475.707 256.278 475.846C247.288 477.369 238.395 478.155 229.278 478.203C227.935 478.214 227.935 478.214 226.566 478.224C223.69 478.242 220.814 478.248 217.938 478.25C216.953 478.251 215.969 478.251 214.955 478.252C199.759 478.235 184.991 477.698 170 475C168.527 474.742 168.527 474.742 167.025 474.48C117.641 465.627 73.6714 443.605 35.0004 412C33.3897 410.911 33.3897 410.911 31.7465 409.801C28.5274 406.518 28.2988 405.23 28.3195 400.822C28.3586 400.035 28.3976 399.248 28.4379 398.437C28.4723 397.188 28.4723 397.188 28.5075 395.914C29.3649 374.044 34.4725 352.13 43.0004 332C43.2822 331.329 43.564 330.659 43.8544 329.968C59.4603 293.448 87.1361 263.379 121 243C121.595 242.642 122.189 242.284 122.802 241.914C134.142 235.179 134.142 235.179 139 237Z" fill="white"/>
<path d="M405 295C405.678 295.209 406.355 295.418 407.054 295.633C430.815 303.14 452.864 319.73 466 341C466.57 341.864 467.139 342.727 467.726 343.617C482.586 367.248 486.367 396.21 481.937 423.5C475.331 452.478 458.497 478.569 433.422 494.945C408.079 510.163 379.177 516.289 349.75 510.875C347.485 510.307 345.234 509.68 343 509C342.342 508.807 341.684 508.613 341.006 508.414C325.68 503.822 312.062 496.554 300 486C299.268 485.411 298.536 484.822 297.781 484.215C276.224 466.34 264.292 438.705 261.498 411.35C258.931 381.615 268.181 352.972 287 330C287.686 329.149 288.371 328.299 289.078 327.422C303.17 310.824 322.313 300.08 343 294C344.676 293.49 344.676 293.49 346.387 292.969C364.982 288.304 386.768 289.166 405 295Z" fill="white"/>
<path d="M280.372 20.7616C281.239 21.5002 282.107 22.2389 283 22.9999C283.858 23.7076 284.715 24.4153 285.598 25.1444C305.777 42.4538 318.393 66.8026 320.79 93.328C320.894 95.1456 320.894 95.1456 321 96.9999C321.105 98.6628 321.105 98.6628 321.211 100.359C321.962 124.944 314.767 149.148 304 171C303.517 171.993 303.517 171.993 303.024 173.007C296.248 186.785 287.65 198.925 277 210C275.686 211.392 275.686 211.392 274.344 212.812C258.905 228.918 239.47 239.232 216.985 239.996C193.2 240.019 173.614 227.55 157.063 211.437C130.082 184.344 112.108 142.501 111.957 104.184C112.46 78.8936 120.769 55.5069 137 35.9999C137.745 35.037 137.745 35.037 138.504 34.0546C152.968 16.1477 177.775 2.99676 200.552 0.219609C229.403 -2.36975 257.341 2.21513 280.372 20.7616Z" fill="white"/>
<path d="M419 301C429.331 304.315 437.851 310.955 446 318C446.775 318.656 447.549 319.312 448.348 319.988C448.893 320.652 449.438 321.316 450 322C449.632 325.338 448.371 327.002 446.032 329.328C445.4 329.965 444.768 330.601 444.116 331.257C443.418 331.944 442.721 332.631 442.002 333.339C441.27 334.071 440.538 334.803 439.785 335.557C437.362 337.978 434.929 340.387 432.496 342.797C430.815 344.472 429.135 346.148 427.456 347.824C423.032 352.237 418.599 356.64 414.164 361.042C409.641 365.534 405.127 370.035 400.611 374.535C391.749 383.365 382.878 392.186 374 401C374.949 402.115 375.898 403.228 376.848 404.341C377.377 404.962 377.906 405.582 378.451 406.221C380.456 408.524 382.575 410.688 384.742 412.84C385.58 413.675 386.418 414.509 387.281 415.369C388.137 416.217 388.993 417.064 389.875 417.938C390.754 418.812 391.633 419.687 392.539 420.588C394.69 422.728 396.844 424.865 399 427C398 429 398 429 394.522 430.344C392.977 430.856 391.429 431.359 389.879 431.855C389.064 432.121 388.249 432.387 387.409 432.661C385.683 433.222 383.955 433.779 382.226 434.333C379.574 435.184 376.926 436.051 374.279 436.92C372.604 437.462 370.929 438.003 369.254 438.543C368.458 438.804 367.662 439.066 366.842 439.335C361.23 441.115 361.23 441.115 359 440C358.221 438.504 357.501 436.977 356.812 435.438C351.324 424.349 343.643 419.55 333 414C333.284 413.022 333.284 413.022 333.574 412.025C334.971 407.081 336.152 402.241 336.941 397.163C341.926 371.617 361.835 355.974 379.922 338.774C384.361 334.531 388.745 330.232 393.135 325.938C401.704 317.57 410.332 309.265 419 301Z" fill="#F1F1F1"/>
<path d="M450 323C459.557 330.32 468.579 341.752 473 353C471.867 355.956 470.289 357.96 468.064 360.176C467.464 360.779 466.864 361.382 466.245 362.003C465.589 362.653 464.932 363.302 464.255 363.972C463.563 364.665 462.87 365.358 462.156 366.072C459.867 368.36 457.57 370.641 455.273 372.922C453.684 374.508 452.095 376.094 450.507 377.68C446.325 381.854 442.138 386.021 437.95 390.188C433.676 394.44 429.409 398.699 425.141 402.957C416.766 411.31 408.385 419.657 400 428C398.887 427.053 397.776 426.106 396.664 425.157C396.045 424.63 395.426 424.102 394.788 423.558C392.405 421.481 390.169 419.281 387.941 417.039C387.062 416.156 386.182 415.273 385.275 414.363C384.38 413.46 383.485 412.556 382.562 411.625C381.64 410.698 380.718 409.771 379.768 408.816C377.509 406.547 375.254 404.274 373 402C377.161 397.035 381.493 392.372 386.091 387.811C386.773 387.131 387.455 386.45 388.158 385.749C389.627 384.284 391.097 382.82 392.568 381.357C394.894 379.044 397.217 376.728 399.539 374.41C404.46 369.5 409.386 364.593 414.312 359.688C420.039 353.984 425.765 348.279 431.486 342.57C433.778 340.284 436.073 338.002 438.368 335.72C439.764 334.327 441.16 332.935 442.556 331.542C443.197 330.905 443.839 330.269 444.5 329.613C447.631 326.598 447.631 326.598 450 323Z" fill="#B3B3B3"/>
<path d="M345 375C348.783 376.569 351.173 378.931 354.044 381.817C354.532 382.305 355.02 382.793 355.524 383.296C357.13 384.903 358.729 386.518 360.328 388.133C361.443 389.251 362.558 390.37 363.674 391.487C366.605 394.426 369.529 397.37 372.453 400.315C375.439 403.322 378.431 406.323 381.422 409.324C387.287 415.211 393.145 421.103 399 427C398 429 398 429 394.522 430.344C392.977 430.856 391.429 431.359 389.879 431.855C388.656 432.254 388.656 432.254 387.409 432.661C385.683 433.222 383.955 433.779 382.226 434.333C379.574 435.184 376.926 436.051 374.279 436.92C372.604 437.462 370.929 438.003 369.254 438.543C368.458 438.804 367.662 439.066 366.842 439.335C361.23 441.115 361.23 441.115 359 440C358.221 438.504 357.501 436.977 356.812 435.438C351.324 424.349 343.643 419.55 333 414C335.254 405.334 337.92 396.827 340.688 388.312C341.108 387.014 341.528 385.715 341.947 384.416C342.963 381.277 343.98 378.138 345 375Z" fill="#FEFEFE"/>
<path d="M332 414C340.684 415.547 347.987 421.025 353.496 427.809C360 437.286 360 437.286 360 442C354.626 443.713 349.251 445.422 343.875 447.127C342.045 447.708 340.215 448.29 338.386 448.873C335.761 449.71 333.135 450.543 330.508 451.375C329.687 451.637 328.866 451.9 328.02 452.17C322.228 454 322.228 454 320 454C321.668 445.422 324.406 437.225 327.125 428.938C327.598 427.485 328.071 426.033 328.543 424.58C329.691 421.052 330.844 417.526 332 414Z" fill="#838181"/>
</g>
<defs>
<clipPath id="clip0_34_54">
<rect width="512" height="512" fill="white"/>
</clipPath>
</defs>
</svg>
