<svg width="512" height="512" viewBox="0 0 512 512" fill="none" xmlns="http://www.w3.org/2000/svg">
<g clip-path="url(#clip0_17_4)">
<path d="M499.508 4.23438C503.094 6.77492 505.668 9.27765 508 13C508.41 13.6213 508.82 14.2427 509.242 14.8828C514.279 24.0186 513.063 34.6543 510.377 44.3074C508.298 51.2029 506.007 58.0257 503.688 64.843C502.517 68.3025 501.375 71.7714 500.23 75.2397C498.6 80.1733 496.963 85.1045 495.316 90.0324C491.8 100.554 488.412 111.115 485.057 121.69C483.465 126.704 481.862 131.716 480.258 136.727C479.927 137.761 479.596 138.795 479.255 139.861C474.3 155.324 469.286 170.769 464.282 186.217C458.154 205.134 452.046 224.057 446 243C439.482 263.424 432.888 283.823 426.281 304.218C419.838 324.11 413.422 344.009 407.066 363.928C402.921 376.914 398.747 389.891 394.547 402.859C394.31 403.591 394.073 404.322 393.829 405.076C391.658 411.779 389.486 418.482 387.311 425.184C380.617 445.795 380.617 445.795 374.106 466.465C373.824 467.37 373.543 468.275 373.253 469.207C372.017 473.187 370.791 477.168 369.587 481.157C365.757 493.678 361.469 502.866 350.203 510.164C343.016 513.567 332.489 513.31 324.988 511.121C314.604 506.303 309.529 498.655 305.581 488.265C305.137 486.963 304.698 485.658 304.266 484.352C304.02 483.626 303.774 482.9 303.521 482.152C302.708 479.744 301.903 477.334 301.098 474.923C300.514 473.186 299.928 471.449 299.343 469.712C297.761 465.014 296.187 460.314 294.615 455.612C293.632 452.674 292.648 449.737 291.664 446.799C288.23 436.551 284.802 426.301 281.381 416.049C278.191 406.491 274.984 396.938 271.769 387.389C269.009 379.184 266.261 370.976 263.522 362.764C261.887 357.861 260.246 352.96 258.593 348.064C257.04 343.465 255.503 338.861 253.978 334.252C253.416 332.561 252.847 330.871 252.273 329.184C251.491 326.883 250.729 324.576 249.973 322.267C249.74 321.598 249.507 320.93 249.267 320.241C248.278 317.15 247.91 315.317 248.808 312.159C249.9 310.181 251.006 308.328 252.328 306.496C252.791 305.849 253.253 305.202 253.73 304.535C254.482 303.497 254.482 303.497 255.25 302.438C256.344 300.908 257.438 299.378 258.531 297.848C259.102 297.051 259.673 296.255 260.262 295.434C263.119 291.434 265.934 287.404 268.75 283.375C269.329 282.547 269.908 281.72 270.505 280.867C275.695 273.446 280.865 266.01 286.034 258.574C292.098 249.854 298.187 241.15 304.282 232.452C307.19 228.302 310.095 224.151 313 220C314.167 218.333 315.333 216.667 316.5 215C317.366 213.762 317.366 213.762 318.25 212.5C323.5 205 323.5 205 325.25 202.5C326.416 200.834 327.582 199.168 328.748 197.502C331.674 193.321 334.602 189.141 337.535 184.965C345.441 173.7 353.256 162.377 361 151C352.76 156.393 344.682 161.998 336.623 167.657C331.496 171.257 326.356 174.835 321.188 178.375C311.754 184.841 302.373 191.383 292.988 197.919C287.208 201.945 281.425 205.966 275.642 209.988C270.762 213.382 265.882 216.778 261.004 220.176C251.999 226.446 242.99 232.711 233.935 238.91C230.261 241.431 226.605 243.975 222.961 246.539C222.086 247.154 221.211 247.77 220.309 248.404C218.626 249.589 216.943 250.777 215.263 251.967C213.718 253.055 212.16 254.126 210.589 255.175C207.98 256.94 207.98 256.94 205.737 259.022C201.539 262.424 198.651 264.132 193.152 263.691C188.434 262.624 183.908 260.995 179.355 259.382C177.594 258.798 175.832 258.217 174.069 257.641C169.297 256.068 164.548 254.436 159.801 252.792C154.822 251.077 149.825 249.415 144.83 247.747C136.444 244.938 128.071 242.093 119.705 239.223C108.983 235.545 98.2426 231.926 87.4945 228.325C78.2365 225.222 68.9872 222.094 59.7394 218.962C56.7754 217.959 53.8102 216.959 50.845 215.96C46.1768 214.385 41.5145 212.794 36.856 211.191C35.1501 210.606 33.4426 210.026 31.7333 209.452C18.9592 205.154 7.77171 200.362 1.35555 187.773C-0.223633 183.919 -0.462444 180.194 -0.374916 176.062C-0.36259 175.356 -0.350263 174.649 -0.337563 173.921C-0.0269278 164.286 2.86784 159.657 9.06258 152.395C18.0818 145.042 30.5515 142.413 41.4788 138.987C45.862 137.612 50.2402 136.222 54.6188 134.833C56.9895 134.081 59.3604 133.33 61.7315 132.58C74.9516 128.392 88.1444 124.121 101.337 119.848C108.301 117.593 115.266 115.341 122.231 113.09C122.91 112.87 123.59 112.65 124.291 112.424C137.123 108.277 149.966 104.164 162.813 100.062C183.298 93.5226 203.76 86.9087 224.218 80.2816C243.135 74.1539 262.057 68.0461 281 62C300.558 55.7574 320.094 49.4502 339.625 43.125C373.09 32.2879 373.09 32.2879 389.242 27.0859C391.046 26.505 391.046 26.505 392.886 25.9124C398.71 24.0378 404.536 22.1677 410.364 20.3057C412.597 19.5919 414.83 18.8781 417.063 18.1641C418.145 17.818 419.227 17.472 420.342 17.1155C426.766 15.0553 433.175 12.9535 439.573 10.8135C443.601 9.46829 447.635 8.1401 451.669 6.81372C453.516 6.20142 455.36 5.58086 457.2 4.95093C471.453 0.0750327 485.556 -3.85699 499.508 4.23438Z" fill="white"/>
</g>
<defs>
<clipPath id="clip0_17_4">
<rect width="512" height="512" fill="white"/>
</clipPath>
</defs>
</svg>
