<svg width="512" height="512" viewBox="0 0 512 512" fill="none" xmlns="http://www.w3.org/2000/svg">
<path d="M162 23C177.84 23 193.68 23 210 23C210 38.18 210 53.36 210 69C263.79 69 317.58 69 373 69C373 84.84 373 100.68 373 117C350.23 117 327.46 117 304 117C303.34 119.97 302.68 122.94 302 126C300.993 129.385 299.781 132.686 298.562 136C298.214 136.948 297.865 137.896 297.506 138.872C285.203 171.738 269.212 203.943 248 232C246.951 233.449 245.904 234.899 244.859 236.352C238.615 244.995 232.235 253.359 225.087 261.28C222.613 264.037 220.396 266.537 219 270C219.996 271.024 220.997 272.044 222 273.062C222.557 273.631 223.114 274.199 223.688 274.785C225.584 276.602 227.513 278.303 229.508 280.008C234.627 284.478 239.398 289.273 244.188 294.09C245.14 295.044 246.093 295.998 247.045 296.952C249.527 299.437 252.005 301.925 254.482 304.414C257.022 306.963 259.564 309.51 262.105 312.057C267.073 317.035 272.038 322.016 277 327C275.137 333.468 273.055 339.787 270.645 346.07C270.185 347.281 270.185 347.281 269.716 348.516C268.751 351.054 267.782 353.589 266.812 356.125C266.151 357.862 265.491 359.599 264.83 361.336C263.224 365.559 261.613 369.78 260 374C256 374 256 374 254.43 372.922C253.925 372.414 253.42 371.905 252.899 371.38C252.313 370.8 251.727 370.219 251.123 369.621C250.177 368.653 250.177 368.653 249.212 367.666C248.538 366.993 247.865 366.32 247.171 365.627C244.943 363.396 242.729 361.151 240.516 358.906C238.975 357.358 237.434 355.811 235.892 354.265C231.832 350.19 227.785 346.104 223.74 342.014C219.611 337.845 215.471 333.687 211.332 329.527C203.21 321.363 195.101 313.185 187 305C183.36 306.534 181.059 308.705 178.294 311.499C177.836 311.959 177.378 312.419 176.906 312.892C175.375 314.432 173.852 315.978 172.328 317.524C171.231 318.63 170.134 319.735 169.036 320.84C166.673 323.219 164.314 325.6 161.957 327.984C158.233 331.75 154.499 335.507 150.763 339.262C140.141 349.941 129.53 360.63 118.934 371.334C113.08 377.246 107.218 383.15 101.345 389.044C97.6265 392.777 93.919 396.522 90.2194 400.274C87.9196 402.602 85.6095 404.919 83.2962 407.233C82.2227 408.311 81.1536 409.393 80.089 410.48C78.6393 411.959 77.175 413.422 75.7061 414.882C74.889 415.706 74.072 416.53 73.2302 417.379C71 419 71 419 68.8095 418.838C66.6689 417.847 65.3588 416.72 63.7002 415.041C63.0799 414.42 62.4595 413.8 61.8204 413.16C61.1629 412.487 60.5055 411.814 59.8281 411.121C59.1457 410.434 58.4633 409.748 57.7602 409.04C55.583 406.846 53.4164 404.642 51.25 402.438C49.7754 400.948 48.3002 399.459 46.8242 397.971C43.2082 394.322 39.6017 390.663 36 387C37.5647 382.984 40.3961 380.599 43.5515 377.82C51.2387 370.882 58.5341 363.581 65.8345 356.241C68.2338 353.828 70.6364 351.419 73.0398 349.011C78.1336 343.906 83.2233 338.797 88.3125 333.688C94.2344 327.742 100.158 321.798 106.086 315.858C108.441 313.497 110.793 311.132 113.145 308.768C114.598 307.311 116.051 305.854 117.505 304.397C118.148 303.749 118.791 303.101 119.453 302.434C123.252 298.634 127.169 295.03 131.246 291.528C133.652 289.432 135.907 287.205 138.156 284.941C139.033 284.062 139.909 283.182 140.812 282.275C142.143 280.933 142.143 280.933 143.5 279.562C144.418 278.64 145.336 277.718 146.281 276.768C148.523 274.514 150.763 272.258 153 270C151.243 266.282 149.039 263.598 146.312 260.5C123.167 233.63 105.068 203.475 89 172C88.591 171.211 88.1821 170.423 87.7607 169.61C85 164.228 85 164.228 85 162C100.84 162 116.68 162 133 162C134.877 165.382 136.754 168.765 138.688 172.25C152.171 196.203 167.887 218.316 186 239C199.826 224.858 211.425 208.676 222 192C222.699 190.908 223.397 189.816 224.117 188.691C238.025 166.48 249.059 142.587 258 118C172.86 117.67 87.72 117.34 0 117C0 101.16 0 85.32 0 69C53.46 69 106.92 69 162 69C162 53.82 162 38.64 162 23Z" fill="#FF5C35"/>
<path d="M360 209C375.84 209 391.68 209 408 209C416.345 230.77 424.62 252.562 432.791 274.398C434.24 278.267 435.689 282.135 437.139 286.004C439.256 291.656 441.373 297.308 443.49 302.96C448.654 316.749 453.825 330.537 458.996 344.324C460.942 349.513 462.888 354.702 464.834 359.892C470.054 373.812 475.274 387.732 480.498 401.652C482.636 407.349 484.773 413.047 486.911 418.745C488.358 422.602 489.805 426.458 491.252 430.315C494.11 437.926 496.964 445.539 499.811 453.154C501.288 457.102 502.77 461.048 504.256 464.993C504.979 466.914 505.7 468.836 506.419 470.759C507.302 473.116 508.188 475.472 509.078 477.827C509.465 478.863 509.851 479.9 510.25 480.968C510.59 481.872 510.929 482.776 511.279 483.708C512 486 512 486 512 489C496.49 489 480.98 489 465 489C459.373 475.495 459.373 475.495 457.505 470.529C456.875 468.858 456.875 468.858 456.232 467.154C455.798 465.997 455.365 464.84 454.918 463.648C454.459 462.427 454 461.206 453.527 459.948C452.567 457.392 451.608 454.836 450.651 452.279C449.423 449 448.189 445.723 446.955 442.447C445.773 439.307 444.596 436.165 443.418 433.023C442.974 431.846 442.531 430.67 442.074 429.457C441.669 428.375 441.265 427.292 440.848 426.177C440.49 425.223 440.132 424.269 439.764 423.286C439 421 439 421 439 419C402.7 419 366.4 419 329 419C328.01 422.3 327.02 425.6 326 429C325.085 431.61 324.155 434.202 323.18 436.789C322.919 437.488 322.659 438.186 322.391 438.906C321.556 441.147 320.715 443.386 319.875 445.625C319.294 447.178 318.714 448.731 318.134 450.285C316.974 453.388 315.812 456.491 314.649 459.594C313.152 463.591 311.664 467.592 310.18 471.594C309.37 473.771 308.56 475.948 307.75 478.125C307.38 479.125 307.01 480.125 306.628 481.155C306.292 482.055 305.956 482.955 305.609 483.883C305.32 484.66 305.031 485.438 304.733 486.239C304 488 304 488 303 489C301.526 489.093 300.048 489.117 298.572 489.114C297.631 489.113 296.69 489.113 295.721 489.113C294.698 489.108 293.675 489.103 292.621 489.098C291.058 489.096 291.058 489.096 289.464 489.093C286.122 489.088 282.78 489.075 279.438 489.062C277.178 489.057 274.918 489.053 272.658 489.049C267.105 489.038 261.553 489.021 256 489C257.479 481.175 260.091 473.979 262.934 466.559C263.44 465.224 263.945 463.889 264.45 462.553C265.535 459.686 266.624 456.82 267.717 453.955C269.47 449.354 271.216 444.749 272.959 440.144C273.561 438.555 274.162 436.967 274.764 435.379C275.064 434.584 275.365 433.79 275.675 432.972C276.601 430.528 277.527 428.085 278.454 425.642C284.545 409.581 290.579 393.499 296.604 377.414C298.003 373.677 299.404 369.94 300.805 366.203C302.781 360.93 304.757 355.658 306.733 350.385C310.476 340.398 314.22 330.412 317.965 320.426C318.252 319.66 318.539 318.893 318.835 318.104C321.692 310.488 324.548 302.872 327.404 295.256C328.785 291.575 330.166 287.893 331.547 284.211C331.816 283.492 332.086 282.773 332.364 282.032C336.098 272.075 339.83 262.115 343.559 252.155C345.046 248.185 346.533 244.215 348.02 240.244C349.18 237.149 350.339 234.054 351.497 230.959C352.749 227.61 354.003 224.262 355.258 220.914C355.626 219.928 355.995 218.943 356.374 217.927C356.708 217.035 357.043 216.144 357.387 215.225C357.677 214.452 357.966 213.679 358.264 212.882C359 211 359 211 360 209ZM383 274C382.656 274.949 382.311 275.897 381.956 276.875C380.245 281.585 378.53 286.293 376.812 291C376.331 292.321 376.331 292.321 375.839 293.669C371.39 305.852 366.886 318.014 362.328 330.156C362.089 330.794 361.85 331.431 361.603 332.088C359.209 338.465 356.811 344.841 354.409 351.215C353.725 353.031 353.041 354.847 352.357 356.663C351.513 358.908 350.666 361.152 349.819 363.396C349.446 364.386 349.074 365.376 348.69 366.396C348.362 367.265 348.034 368.134 347.696 369.03C346.944 370.809 346.944 370.809 347 372C371.42 372 395.84 372 421 372C416.758 359.879 412.498 347.796 407.988 335.777C407.447 334.33 406.906 332.883 406.366 331.436C404.967 327.693 403.565 323.951 402.163 320.209C399.91 314.194 397.661 308.177 395.411 302.161C394.637 300.09 393.861 298.019 393.085 295.948C390.351 288.646 387.647 281.334 385 274C384.34 274 383.68 274 383 274Z" fill="#FF5C35"/>
</svg>
